%TF.GenerationSoftware,KiCad,Pcbnew,7.0.11+dfsg-1build4*%
%TF.CreationDate,2024-05-09T18:47:21+10:00*%
%TF.ProjectId,NoBootLoadFlasher,4e6f426f-6f74-44c6-9f61-64466c617368,rev?*%
%TF.SameCoordinates,Original*%
%TF.FileFunction,Copper,L2,Bot*%
%TF.FilePolarity,Positive*%
%FSLAX46Y46*%
G04 Gerber Fmt 4.6, Leading zero omitted, Abs format (unit mm)*
G04 Created by KiCad (PCBNEW 7.0.11+dfsg-1build4) date 2024-05-09 18:47:21*
%MOMM*%
%LPD*%
G01*
G04 APERTURE LIST*
%TA.AperFunction,ComponentPad*%
%ADD10R,1.700000X1.700000*%
%TD*%
%TA.AperFunction,ComponentPad*%
%ADD11O,1.700000X1.700000*%
%TD*%
%TA.AperFunction,ComponentPad*%
%ADD12O,1.600000X1.600000*%
%TD*%
%TA.AperFunction,ComponentPad*%
%ADD13R,1.600000X1.600000*%
%TD*%
%TA.AperFunction,ViaPad*%
%ADD14C,0.600000*%
%TD*%
%TA.AperFunction,Conductor*%
%ADD15C,0.200000*%
%TD*%
%TA.AperFunction,Conductor*%
%ADD16C,0.300000*%
%TD*%
G04 APERTURE END LIST*
D10*
%TO.P,REF\u002A\u002A,1*%
%TO.N,GND*%
X81534000Y-81407000D03*
D11*
%TO.P,REF\u002A\u002A,2*%
%TO.N,3.3v*%
X81534000Y-83947000D03*
%TO.P,REF\u002A\u002A,3*%
%TO.N,D12*%
X81534000Y-86487000D03*
%TO.P,REF\u002A\u002A,4*%
%TO.N,D10*%
X81534000Y-89027000D03*
%TO.P,REF\u002A\u002A,5*%
%TO.N,D13*%
X81534000Y-91567000D03*
%TD*%
D12*
%TO.P,LGT8F328P LQFP32 MiniEVB,30*%
%TO.N,N/C*%
X91440000Y-116840000D03*
%TO.P,LGT8F328P LQFP32 MiniEVB,29*%
%TO.N,GND*%
X91440000Y-114300000D03*
%TO.P,LGT8F328P LQFP32 MiniEVB,28*%
%TO.N,N/C*%
X91440000Y-111760000D03*
%TO.P,LGT8F328P LQFP32 MiniEVB,27*%
X91440000Y-109220000D03*
%TO.P,LGT8F328P LQFP32 MiniEVB,26*%
X91440000Y-106680000D03*
%TO.P,LGT8F328P LQFP32 MiniEVB,25*%
X91440000Y-104140000D03*
%TO.P,LGT8F328P LQFP32 MiniEVB,24*%
X91440000Y-101600000D03*
%TO.P,LGT8F328P LQFP32 MiniEVB,23*%
X91440000Y-99060000D03*
%TO.P,LGT8F328P LQFP32 MiniEVB,22*%
X91440000Y-96520000D03*
%TO.P,LGT8F328P LQFP32 MiniEVB,21*%
X91440000Y-93980000D03*
%TO.P,LGT8F328P LQFP32 MiniEVB,20*%
X91440000Y-91440000D03*
%TO.P,LGT8F328P LQFP32 MiniEVB,19*%
X91440000Y-88900000D03*
%TO.P,LGT8F328P LQFP32 MiniEVB,18*%
X91440000Y-86360000D03*
%TO.P,LGT8F328P LQFP32 MiniEVB,17*%
%TO.N,3.3v*%
X91440000Y-83820000D03*
%TO.P,LGT8F328P LQFP32 MiniEVB,16*%
%TO.N,D13*%
X91440000Y-81280000D03*
%TO.P,LGT8F328P LQFP32 MiniEVB,15*%
%TO.N,D12*%
X106680000Y-81280000D03*
%TO.P,LGT8F328P LQFP32 MiniEVB,14*%
%TO.N,N/C*%
X106680000Y-83820000D03*
%TO.P,LGT8F328P LQFP32 MiniEVB,13*%
%TO.N,D10*%
X106680000Y-86360000D03*
%TO.P,LGT8F328P LQFP32 MiniEVB,12*%
%TO.N,LED1*%
X106680000Y-88900000D03*
%TO.P,LGT8F328P LQFP32 MiniEVB,11*%
%TO.N,LED2*%
X106680000Y-91440000D03*
%TO.P,LGT8F328P LQFP32 MiniEVB,10*%
%TO.N,LED3*%
X106680000Y-93980000D03*
%TO.P,LGT8F328P LQFP32 MiniEVB,9*%
%TO.N,N/C*%
X106680000Y-96520000D03*
%TO.P,LGT8F328P LQFP32 MiniEVB,8*%
X106680000Y-99060000D03*
%TO.P,LGT8F328P LQFP32 MiniEVB,7*%
X106680000Y-101600000D03*
%TO.P,LGT8F328P LQFP32 MiniEVB,6*%
X106680000Y-104140000D03*
%TO.P,LGT8F328P LQFP32 MiniEVB,5*%
X106680000Y-106680000D03*
%TO.P,LGT8F328P LQFP32 MiniEVB,4*%
%TO.N,GND*%
X106680000Y-109220000D03*
%TO.P,LGT8F328P LQFP32 MiniEVB,3*%
%TO.N,N/C*%
X106680000Y-111760000D03*
%TO.P,LGT8F328P LQFP32 MiniEVB,2*%
X106680000Y-114300000D03*
D13*
%TO.P,LGT8F328P LQFP32 MiniEVB,1*%
X106680000Y-116840000D03*
%TD*%
D14*
%TO.N,GND*%
X95250000Y-93853000D03*
X95250000Y-95758000D03*
X95250000Y-91821000D03*
X95250000Y-89916000D03*
X88900000Y-111125000D03*
X99060000Y-88011000D03*
X87122000Y-114681000D03*
X103759000Y-88011000D03*
X99060000Y-84582000D03*
X84709000Y-86487000D03*
X84709000Y-84328000D03*
X99070000Y-97790000D03*
X99060000Y-93853000D03*
X103759000Y-97790000D03*
X99060000Y-89916000D03*
X89027000Y-86487000D03*
X103759000Y-84582000D03*
X103759000Y-89916000D03*
X99060000Y-91948000D03*
X99060000Y-82677000D03*
X88900000Y-108712000D03*
X89027000Y-84328000D03*
X103759000Y-82677000D03*
X103759000Y-92964000D03*
X99060000Y-101346000D03*
%TO.N,LED1_R*%
X85217000Y-110363000D03*
X78740000Y-99441000D03*
%TO.N,LED2_R*%
X78740000Y-101600000D03*
X85217000Y-111633000D03*
%TO.N,LED3_R*%
X85217000Y-114681000D03*
X78740000Y-103759000D03*
%TD*%
D15*
%TO.N,D13*%
X86614000Y-84709000D02*
X90043000Y-81280000D01*
X90043000Y-81280000D02*
X91440000Y-81280000D01*
X83058000Y-91567000D02*
X86614000Y-88011000D01*
X81534000Y-91567000D02*
X83058000Y-91567000D01*
X86614000Y-88011000D02*
X86614000Y-84709000D01*
%TO.N,LED1_R*%
X85217000Y-110363000D02*
X81788000Y-110363000D01*
X81788000Y-110363000D02*
X80962500Y-109537500D01*
D16*
X80010000Y-100711000D02*
X80010000Y-108585000D01*
X78740000Y-99441000D02*
X80010000Y-100711000D01*
X80010000Y-108585000D02*
X80962500Y-109537500D01*
%TO.N,LED2_R*%
X78740000Y-101600000D02*
X79390000Y-102250000D01*
X83439000Y-111633000D02*
X85217000Y-111633000D01*
X81422000Y-111633000D02*
X83439000Y-111633000D01*
X79390000Y-109601000D02*
X81422000Y-111633000D01*
X79390000Y-102250000D02*
X79390000Y-109601000D01*
%TO.N,LED3_R*%
X78740000Y-103759000D02*
X78740000Y-109982000D01*
X81343500Y-112585500D02*
X83121500Y-112585500D01*
X85217000Y-114681000D02*
X83121500Y-112585500D01*
X78740000Y-109982000D02*
X81343500Y-112585500D01*
%TD*%
%TA.AperFunction,Conductor*%
%TO.N,GND*%
G36*
X111202539Y-71640185D02*
G01*
X111248294Y-71692989D01*
X111259500Y-71744500D01*
X111259500Y-126375500D01*
X111239815Y-126442539D01*
X111187011Y-126488294D01*
X111135500Y-126499500D01*
X71744500Y-126499500D01*
X71677461Y-126479815D01*
X71631706Y-126427011D01*
X71620500Y-126375500D01*
X71620500Y-103759003D01*
X77934435Y-103759003D01*
X77954630Y-103938249D01*
X77954631Y-103938254D01*
X78014211Y-104108524D01*
X78070493Y-104198094D01*
X78089500Y-104264067D01*
X78089500Y-109896494D01*
X78087732Y-109912505D01*
X78087974Y-109912528D01*
X78087240Y-109920294D01*
X78089439Y-109990262D01*
X78089500Y-109994157D01*
X78089500Y-110022920D01*
X78089501Y-110022938D01*
X78090053Y-110027311D01*
X78090968Y-110038941D01*
X78092402Y-110084567D01*
X78092403Y-110084570D01*
X78098323Y-110104948D01*
X78102268Y-110123996D01*
X78104928Y-110145054D01*
X78104931Y-110145065D01*
X78121737Y-110187514D01*
X78125520Y-110198563D01*
X78138254Y-110242395D01*
X78138255Y-110242397D01*
X78149060Y-110260666D01*
X78157617Y-110278134D01*
X78163226Y-110292300D01*
X78165432Y-110297872D01*
X78192266Y-110334806D01*
X78198678Y-110344568D01*
X78218060Y-110377341D01*
X78221919Y-110383865D01*
X78221923Y-110383869D01*
X78236925Y-110398871D01*
X78249563Y-110413669D01*
X78262033Y-110430833D01*
X78262036Y-110430837D01*
X78297213Y-110459937D01*
X78305854Y-110467800D01*
X80823064Y-112985010D01*
X80833135Y-112997580D01*
X80833322Y-112997426D01*
X80838295Y-113003437D01*
X80838297Y-113003439D01*
X80838298Y-113003440D01*
X80867921Y-113031258D01*
X80889332Y-113051364D01*
X80892129Y-113054075D01*
X80912467Y-113074413D01*
X80915950Y-113077115D01*
X80924826Y-113084696D01*
X80938850Y-113097865D01*
X80958107Y-113115948D01*
X80958110Y-113115950D01*
X80958112Y-113115951D01*
X80976707Y-113126174D01*
X80992968Y-113136856D01*
X81009732Y-113149859D01*
X81009736Y-113149862D01*
X81051638Y-113167994D01*
X81062112Y-113173125D01*
X81102132Y-113195127D01*
X81122704Y-113200408D01*
X81141094Y-113206705D01*
X81160574Y-113215135D01*
X81205675Y-113222277D01*
X81217086Y-113224641D01*
X81261323Y-113236000D01*
X81282545Y-113236000D01*
X81301944Y-113237526D01*
X81322905Y-113240847D01*
X81368360Y-113236550D01*
X81380030Y-113236000D01*
X82800692Y-113236000D01*
X82867731Y-113255685D01*
X82888373Y-113272319D01*
X84395277Y-114779223D01*
X84428762Y-114840546D01*
X84430815Y-114853012D01*
X84431630Y-114860246D01*
X84431632Y-114860255D01*
X84491210Y-115030521D01*
X84559259Y-115138820D01*
X84587184Y-115183262D01*
X84714738Y-115310816D01*
X84742233Y-115328092D01*
X84837863Y-115388181D01*
X84867478Y-115406789D01*
X84966242Y-115441348D01*
X85037745Y-115466368D01*
X85037750Y-115466369D01*
X85216996Y-115486565D01*
X85217000Y-115486565D01*
X85217004Y-115486565D01*
X85396249Y-115466369D01*
X85396252Y-115466368D01*
X85396255Y-115466368D01*
X85566522Y-115406789D01*
X85719262Y-115310816D01*
X85846816Y-115183262D01*
X85942789Y-115030522D01*
X86002368Y-114860255D01*
X86009157Y-114800000D01*
X86022565Y-114681003D01*
X86022565Y-114680996D01*
X86002369Y-114501750D01*
X86002368Y-114501745D01*
X85942788Y-114331476D01*
X85846815Y-114178737D01*
X85719262Y-114051184D01*
X85566521Y-113955210D01*
X85396255Y-113895632D01*
X85396246Y-113895630D01*
X85389012Y-113894815D01*
X85324600Y-113867744D01*
X85315223Y-113859277D01*
X83951127Y-112495181D01*
X83917642Y-112433858D01*
X83922626Y-112364166D01*
X83964498Y-112308233D01*
X84029962Y-112283816D01*
X84038808Y-112283500D01*
X84711932Y-112283500D01*
X84777904Y-112302506D01*
X84867477Y-112358789D01*
X84867481Y-112358790D01*
X85037737Y-112418366D01*
X85037743Y-112418367D01*
X85037745Y-112418368D01*
X85037746Y-112418368D01*
X85037750Y-112418369D01*
X85216996Y-112438565D01*
X85217000Y-112438565D01*
X85217004Y-112438565D01*
X85396249Y-112418369D01*
X85396252Y-112418368D01*
X85396255Y-112418368D01*
X85566522Y-112358789D01*
X85719262Y-112262816D01*
X85846816Y-112135262D01*
X85942789Y-111982522D01*
X86002368Y-111812255D01*
X86022565Y-111633000D01*
X86011333Y-111533313D01*
X86002369Y-111453750D01*
X86002368Y-111453745D01*
X85953298Y-111313511D01*
X85942789Y-111283478D01*
X85846816Y-111130738D01*
X85801759Y-111085681D01*
X85768274Y-111024358D01*
X85773258Y-110954666D01*
X85801759Y-110910319D01*
X85846816Y-110865262D01*
X85942789Y-110712522D01*
X86002368Y-110542255D01*
X86002369Y-110542249D01*
X86022565Y-110363003D01*
X86022565Y-110362996D01*
X86002369Y-110183750D01*
X86002368Y-110183745D01*
X85951699Y-110038941D01*
X85942789Y-110013478D01*
X85928201Y-109990262D01*
X85884239Y-109920296D01*
X85846816Y-109860738D01*
X85719262Y-109733184D01*
X85673898Y-109704680D01*
X85566523Y-109637211D01*
X85396254Y-109577631D01*
X85396249Y-109577630D01*
X85217004Y-109557435D01*
X85216996Y-109557435D01*
X85037750Y-109577630D01*
X85037745Y-109577631D01*
X84867476Y-109637211D01*
X84714736Y-109733185D01*
X84711903Y-109735445D01*
X84709724Y-109736334D01*
X84708842Y-109736889D01*
X84708744Y-109736734D01*
X84647217Y-109761855D01*
X84634588Y-109762500D01*
X82088097Y-109762500D01*
X82021058Y-109742815D01*
X82000416Y-109726181D01*
X81590817Y-109316582D01*
X81568454Y-109283675D01*
X81568216Y-109283817D01*
X81565969Y-109280018D01*
X81564693Y-109278140D01*
X81564245Y-109277106D01*
X81564244Y-109277101D01*
X81530475Y-109220001D01*
X81480583Y-109135638D01*
X81480576Y-109135629D01*
X80696819Y-108351872D01*
X80663334Y-108290549D01*
X80660500Y-108264191D01*
X80660500Y-100796501D01*
X80662268Y-100780488D01*
X80662026Y-100780466D01*
X80662758Y-100772710D01*
X80662760Y-100772703D01*
X80660561Y-100702735D01*
X80660500Y-100698840D01*
X80660500Y-100670077D01*
X80660499Y-100670070D01*
X80659949Y-100665716D01*
X80659030Y-100654054D01*
X80657597Y-100608430D01*
X80651676Y-100588052D01*
X80647731Y-100569003D01*
X80645071Y-100547942D01*
X80628261Y-100505487D01*
X80624481Y-100494445D01*
X80611744Y-100450601D01*
X80600939Y-100432332D01*
X80592379Y-100414858D01*
X80585651Y-100397865D01*
X80584568Y-100395129D01*
X80557737Y-100358199D01*
X80551323Y-100348435D01*
X80528081Y-100309135D01*
X80513075Y-100294129D01*
X80500435Y-100279330D01*
X80487961Y-100262160D01*
X80452780Y-100233056D01*
X80444140Y-100225194D01*
X79561722Y-99342776D01*
X79528237Y-99281453D01*
X79526182Y-99268973D01*
X79525368Y-99261745D01*
X79465789Y-99091478D01*
X79369816Y-98938738D01*
X79242262Y-98811184D01*
X79089523Y-98715211D01*
X78919254Y-98655631D01*
X78919249Y-98655630D01*
X78740004Y-98635435D01*
X78739996Y-98635435D01*
X78560750Y-98655630D01*
X78560745Y-98655631D01*
X78390476Y-98715211D01*
X78237737Y-98811184D01*
X78110184Y-98938737D01*
X78014211Y-99091476D01*
X77954631Y-99261745D01*
X77954630Y-99261750D01*
X77934435Y-99440996D01*
X77934435Y-99441003D01*
X77954630Y-99620249D01*
X77954631Y-99620254D01*
X78014211Y-99790523D01*
X78082461Y-99899141D01*
X78110184Y-99943262D01*
X78237738Y-100070816D01*
X78390478Y-100166789D01*
X78560745Y-100226368D01*
X78567974Y-100227182D01*
X78632388Y-100254246D01*
X78641776Y-100262722D01*
X78977954Y-100598900D01*
X79011439Y-100660223D01*
X79006455Y-100729915D01*
X78964583Y-100785848D01*
X78899119Y-100810265D01*
X78876390Y-100809801D01*
X78740004Y-100794435D01*
X78739996Y-100794435D01*
X78560750Y-100814630D01*
X78560745Y-100814631D01*
X78390476Y-100874211D01*
X78237737Y-100970184D01*
X78110184Y-101097737D01*
X78014211Y-101250476D01*
X77954631Y-101420745D01*
X77954630Y-101420750D01*
X77934435Y-101599996D01*
X77934435Y-101600003D01*
X77954630Y-101779249D01*
X77954631Y-101779254D01*
X78014211Y-101949523D01*
X78075139Y-102046488D01*
X78110184Y-102102262D01*
X78237738Y-102229816D01*
X78390478Y-102325789D01*
X78560745Y-102385368D01*
X78567974Y-102386182D01*
X78632388Y-102413247D01*
X78641775Y-102421721D01*
X78703181Y-102483126D01*
X78736666Y-102544449D01*
X78739500Y-102570808D01*
X78739500Y-102842677D01*
X78719815Y-102909716D01*
X78667011Y-102955471D01*
X78629384Y-102965897D01*
X78560750Y-102973630D01*
X78390478Y-103033210D01*
X78237737Y-103129184D01*
X78110184Y-103256737D01*
X78014211Y-103409476D01*
X77954631Y-103579745D01*
X77954630Y-103579750D01*
X77934435Y-103758996D01*
X77934435Y-103759003D01*
X71620500Y-103759003D01*
X71620500Y-91567000D01*
X80178341Y-91567000D01*
X80198936Y-91802403D01*
X80198938Y-91802413D01*
X80260094Y-92030655D01*
X80260096Y-92030659D01*
X80260097Y-92030663D01*
X80324400Y-92168561D01*
X80359965Y-92244830D01*
X80359967Y-92244834D01*
X80468281Y-92399521D01*
X80495505Y-92438401D01*
X80662599Y-92605495D01*
X80750064Y-92666739D01*
X80856165Y-92741032D01*
X80856167Y-92741033D01*
X80856170Y-92741035D01*
X81070337Y-92840903D01*
X81298592Y-92902063D01*
X81486918Y-92918539D01*
X81533999Y-92922659D01*
X81534000Y-92922659D01*
X81534001Y-92922659D01*
X81573234Y-92919226D01*
X81769408Y-92902063D01*
X81997663Y-92840903D01*
X82211830Y-92741035D01*
X82405401Y-92605495D01*
X82572495Y-92438401D01*
X82708035Y-92244830D01*
X82710707Y-92239097D01*
X82756878Y-92186658D01*
X82823091Y-92167500D01*
X83010513Y-92167500D01*
X83026697Y-92168560D01*
X83058000Y-92172682D01*
X83058001Y-92172682D01*
X83110254Y-92165802D01*
X83214762Y-92152044D01*
X83360841Y-92091536D01*
X83486282Y-91995282D01*
X83505509Y-91970223D01*
X83516190Y-91958043D01*
X87005043Y-88469190D01*
X87017223Y-88458509D01*
X87042282Y-88439282D01*
X87138536Y-88313841D01*
X87199044Y-88167762D01*
X87214500Y-88050361D01*
X87219682Y-88011000D01*
X87215561Y-87979697D01*
X87214500Y-87963512D01*
X87214500Y-85009096D01*
X87234185Y-84942057D01*
X87250814Y-84921420D01*
X90176138Y-81996095D01*
X90237459Y-81962612D01*
X90307151Y-81967596D01*
X90363084Y-82009468D01*
X90365392Y-82012655D01*
X90439953Y-82119140D01*
X90600858Y-82280045D01*
X90600861Y-82280047D01*
X90787266Y-82410568D01*
X90845275Y-82437618D01*
X90897714Y-82483791D01*
X90916866Y-82550984D01*
X90896650Y-82617865D01*
X90845275Y-82662382D01*
X90787267Y-82689431D01*
X90787265Y-82689432D01*
X90600858Y-82819954D01*
X90439954Y-82980858D01*
X90309432Y-83167265D01*
X90309431Y-83167267D01*
X90213261Y-83373502D01*
X90213258Y-83373511D01*
X90154366Y-83593302D01*
X90154364Y-83593313D01*
X90134532Y-83819998D01*
X90134532Y-83820001D01*
X90154364Y-84046686D01*
X90154366Y-84046697D01*
X90213258Y-84266488D01*
X90213261Y-84266497D01*
X90309431Y-84472732D01*
X90309432Y-84472734D01*
X90439954Y-84659141D01*
X90600858Y-84820045D01*
X90600861Y-84820047D01*
X90787266Y-84950568D01*
X90802636Y-84957735D01*
X90845275Y-84977618D01*
X90897714Y-85023791D01*
X90916866Y-85090984D01*
X90896650Y-85157865D01*
X90845275Y-85202382D01*
X90787267Y-85229431D01*
X90787265Y-85229432D01*
X90600858Y-85359954D01*
X90439954Y-85520858D01*
X90309432Y-85707265D01*
X90309431Y-85707267D01*
X90213261Y-85913502D01*
X90213258Y-85913511D01*
X90154366Y-86133302D01*
X90154364Y-86133313D01*
X90134532Y-86359998D01*
X90134532Y-86360001D01*
X90154364Y-86586686D01*
X90154366Y-86586697D01*
X90213258Y-86806488D01*
X90213261Y-86806497D01*
X90309431Y-87012732D01*
X90309432Y-87012734D01*
X90439954Y-87199141D01*
X90600858Y-87360045D01*
X90600861Y-87360047D01*
X90787266Y-87490568D01*
X90845275Y-87517618D01*
X90897714Y-87563791D01*
X90916866Y-87630984D01*
X90896650Y-87697865D01*
X90845275Y-87742382D01*
X90787267Y-87769431D01*
X90787265Y-87769432D01*
X90600858Y-87899954D01*
X90439954Y-88060858D01*
X90309432Y-88247265D01*
X90309431Y-88247267D01*
X90213261Y-88453502D01*
X90213258Y-88453511D01*
X90154366Y-88673302D01*
X90154364Y-88673313D01*
X90134532Y-88899998D01*
X90134532Y-88900001D01*
X90154364Y-89126686D01*
X90154366Y-89126697D01*
X90213258Y-89346488D01*
X90213261Y-89346497D01*
X90309431Y-89552732D01*
X90309432Y-89552734D01*
X90439954Y-89739141D01*
X90600858Y-89900045D01*
X90600861Y-89900047D01*
X90787266Y-90030568D01*
X90845275Y-90057618D01*
X90897714Y-90103791D01*
X90916866Y-90170984D01*
X90896650Y-90237865D01*
X90845275Y-90282382D01*
X90787267Y-90309431D01*
X90787265Y-90309432D01*
X90600858Y-90439954D01*
X90439954Y-90600858D01*
X90309432Y-90787265D01*
X90309431Y-90787267D01*
X90213261Y-90993502D01*
X90213258Y-90993511D01*
X90154366Y-91213302D01*
X90154364Y-91213313D01*
X90134532Y-91439998D01*
X90134532Y-91440001D01*
X90154364Y-91666686D01*
X90154366Y-91666697D01*
X90213258Y-91886488D01*
X90213261Y-91886497D01*
X90309431Y-92092732D01*
X90309432Y-92092734D01*
X90439954Y-92279141D01*
X90600858Y-92440045D01*
X90600861Y-92440047D01*
X90787266Y-92570568D01*
X90845275Y-92597618D01*
X90897714Y-92643791D01*
X90916866Y-92710984D01*
X90896650Y-92777865D01*
X90845275Y-92822382D01*
X90787267Y-92849431D01*
X90787265Y-92849432D01*
X90600858Y-92979954D01*
X90439954Y-93140858D01*
X90309432Y-93327265D01*
X90309431Y-93327267D01*
X90213261Y-93533502D01*
X90213258Y-93533511D01*
X90154366Y-93753302D01*
X90154364Y-93753313D01*
X90134532Y-93979998D01*
X90134532Y-93980001D01*
X90154364Y-94206686D01*
X90154366Y-94206697D01*
X90213258Y-94426488D01*
X90213261Y-94426497D01*
X90309431Y-94632732D01*
X90309432Y-94632734D01*
X90439954Y-94819141D01*
X90600858Y-94980045D01*
X90600861Y-94980047D01*
X90787266Y-95110568D01*
X90845275Y-95137618D01*
X90897714Y-95183791D01*
X90916866Y-95250984D01*
X90896650Y-95317865D01*
X90845275Y-95362382D01*
X90787267Y-95389431D01*
X90787265Y-95389432D01*
X90600858Y-95519954D01*
X90439954Y-95680858D01*
X90309432Y-95867265D01*
X90309431Y-95867267D01*
X90213261Y-96073502D01*
X90213258Y-96073511D01*
X90154366Y-96293302D01*
X90154364Y-96293313D01*
X90134532Y-96519998D01*
X90134532Y-96520001D01*
X90154364Y-96746686D01*
X90154366Y-96746697D01*
X90213258Y-96966488D01*
X90213261Y-96966497D01*
X90309431Y-97172732D01*
X90309432Y-97172734D01*
X90439954Y-97359141D01*
X90600858Y-97520045D01*
X90600861Y-97520047D01*
X90787266Y-97650568D01*
X90845275Y-97677618D01*
X90897714Y-97723791D01*
X90916866Y-97790984D01*
X90896650Y-97857865D01*
X90845275Y-97902382D01*
X90787267Y-97929431D01*
X90787265Y-97929432D01*
X90600858Y-98059954D01*
X90439954Y-98220858D01*
X90309432Y-98407265D01*
X90309431Y-98407267D01*
X90213261Y-98613502D01*
X90213258Y-98613511D01*
X90154366Y-98833302D01*
X90154364Y-98833313D01*
X90134532Y-99059998D01*
X90134532Y-99060001D01*
X90154364Y-99286686D01*
X90154366Y-99286697D01*
X90213258Y-99506488D01*
X90213261Y-99506497D01*
X90309431Y-99712732D01*
X90309432Y-99712734D01*
X90439954Y-99899141D01*
X90600858Y-100060045D01*
X90600861Y-100060047D01*
X90787266Y-100190568D01*
X90845275Y-100217618D01*
X90897714Y-100263791D01*
X90916866Y-100330984D01*
X90896650Y-100397865D01*
X90845275Y-100442382D01*
X90787267Y-100469431D01*
X90787265Y-100469432D01*
X90600858Y-100599954D01*
X90439954Y-100760858D01*
X90309432Y-100947265D01*
X90309431Y-100947267D01*
X90213261Y-101153502D01*
X90213258Y-101153511D01*
X90154366Y-101373302D01*
X90154364Y-101373313D01*
X90134532Y-101599998D01*
X90134532Y-101600001D01*
X90154364Y-101826686D01*
X90154366Y-101826697D01*
X90213258Y-102046488D01*
X90213261Y-102046497D01*
X90309431Y-102252732D01*
X90309432Y-102252734D01*
X90439954Y-102439141D01*
X90600858Y-102600045D01*
X90600861Y-102600047D01*
X90787266Y-102730568D01*
X90845275Y-102757618D01*
X90897714Y-102803791D01*
X90916866Y-102870984D01*
X90896650Y-102937865D01*
X90845275Y-102982382D01*
X90787267Y-103009431D01*
X90787265Y-103009432D01*
X90600858Y-103139954D01*
X90439954Y-103300858D01*
X90309432Y-103487265D01*
X90309431Y-103487267D01*
X90213261Y-103693502D01*
X90213258Y-103693511D01*
X90154366Y-103913302D01*
X90154364Y-103913313D01*
X90134532Y-104139998D01*
X90134532Y-104140001D01*
X90154364Y-104366686D01*
X90154366Y-104366697D01*
X90213258Y-104586488D01*
X90213261Y-104586497D01*
X90309431Y-104792732D01*
X90309432Y-104792734D01*
X90439954Y-104979141D01*
X90600858Y-105140045D01*
X90600861Y-105140047D01*
X90787266Y-105270568D01*
X90845275Y-105297618D01*
X90897714Y-105343791D01*
X90916866Y-105410984D01*
X90896650Y-105477865D01*
X90845275Y-105522382D01*
X90787267Y-105549431D01*
X90787265Y-105549432D01*
X90600858Y-105679954D01*
X90439954Y-105840858D01*
X90309432Y-106027265D01*
X90309431Y-106027267D01*
X90213261Y-106233502D01*
X90213258Y-106233511D01*
X90154366Y-106453302D01*
X90154364Y-106453313D01*
X90134532Y-106679998D01*
X90134532Y-106680001D01*
X90154364Y-106906686D01*
X90154366Y-106906697D01*
X90213258Y-107126488D01*
X90213261Y-107126497D01*
X90309431Y-107332732D01*
X90309432Y-107332734D01*
X90439954Y-107519141D01*
X90600858Y-107680045D01*
X90600861Y-107680047D01*
X90787266Y-107810568D01*
X90845275Y-107837618D01*
X90897714Y-107883791D01*
X90916866Y-107950984D01*
X90896650Y-108017865D01*
X90845275Y-108062382D01*
X90787267Y-108089431D01*
X90787265Y-108089432D01*
X90600858Y-108219954D01*
X90439954Y-108380858D01*
X90309432Y-108567265D01*
X90309431Y-108567267D01*
X90213261Y-108773502D01*
X90213258Y-108773511D01*
X90154366Y-108993302D01*
X90154364Y-108993313D01*
X90134532Y-109219998D01*
X90134532Y-109220001D01*
X90154364Y-109446686D01*
X90154366Y-109446697D01*
X90213258Y-109666488D01*
X90213261Y-109666497D01*
X90309431Y-109872732D01*
X90309432Y-109872734D01*
X90439954Y-110059141D01*
X90600858Y-110220045D01*
X90632780Y-110242397D01*
X90787266Y-110350568D01*
X90844681Y-110377341D01*
X90845275Y-110377618D01*
X90897714Y-110423791D01*
X90916866Y-110490984D01*
X90896650Y-110557865D01*
X90845275Y-110602382D01*
X90787267Y-110629431D01*
X90787265Y-110629432D01*
X90600858Y-110759954D01*
X90439954Y-110920858D01*
X90309432Y-111107265D01*
X90309431Y-111107267D01*
X90213261Y-111313502D01*
X90213258Y-111313511D01*
X90154366Y-111533302D01*
X90154364Y-111533313D01*
X90134532Y-111759998D01*
X90134532Y-111760001D01*
X90154364Y-111986686D01*
X90154366Y-111986697D01*
X90213258Y-112206488D01*
X90213261Y-112206497D01*
X90309431Y-112412732D01*
X90309432Y-112412734D01*
X90439954Y-112599141D01*
X90600858Y-112760045D01*
X90600861Y-112760047D01*
X90787266Y-112890568D01*
X90845865Y-112917893D01*
X90898305Y-112964065D01*
X90917457Y-113031258D01*
X90897242Y-113098139D01*
X90845867Y-113142657D01*
X90787515Y-113169867D01*
X90601179Y-113300342D01*
X90440342Y-113461179D01*
X90309865Y-113647517D01*
X90213734Y-113853673D01*
X90213730Y-113853682D01*
X90161127Y-114049999D01*
X90161128Y-114050000D01*
X91006314Y-114050000D01*
X90980507Y-114090156D01*
X90940000Y-114228111D01*
X90940000Y-114371889D01*
X90980507Y-114509844D01*
X91006314Y-114550000D01*
X90161128Y-114550000D01*
X90213730Y-114746317D01*
X90213734Y-114746326D01*
X90309865Y-114952482D01*
X90440342Y-115138820D01*
X90601179Y-115299657D01*
X90787518Y-115430134D01*
X90787520Y-115430135D01*
X90845865Y-115457342D01*
X90898305Y-115503514D01*
X90917457Y-115570707D01*
X90897242Y-115637589D01*
X90845867Y-115682105D01*
X90787268Y-115709431D01*
X90787264Y-115709433D01*
X90600858Y-115839954D01*
X90439954Y-116000858D01*
X90309432Y-116187265D01*
X90309431Y-116187267D01*
X90213261Y-116393502D01*
X90213258Y-116393511D01*
X90154366Y-116613302D01*
X90154364Y-116613313D01*
X90134532Y-116839998D01*
X90134532Y-116840001D01*
X90154364Y-117066686D01*
X90154366Y-117066697D01*
X90213258Y-117286488D01*
X90213261Y-117286497D01*
X90309431Y-117492732D01*
X90309432Y-117492734D01*
X90439954Y-117679141D01*
X90600858Y-117840045D01*
X90600861Y-117840047D01*
X90787266Y-117970568D01*
X90993504Y-118066739D01*
X91213308Y-118125635D01*
X91375230Y-118139801D01*
X91439998Y-118145468D01*
X91440000Y-118145468D01*
X91440002Y-118145468D01*
X91496807Y-118140498D01*
X91666692Y-118125635D01*
X91886496Y-118066739D01*
X92092734Y-117970568D01*
X92279139Y-117840047D01*
X92440047Y-117679139D01*
X92570568Y-117492734D01*
X92666739Y-117286496D01*
X92725635Y-117066692D01*
X92745468Y-116840000D01*
X92725635Y-116613308D01*
X92666739Y-116393504D01*
X92570568Y-116187266D01*
X92440047Y-116000861D01*
X92440045Y-116000858D01*
X92279141Y-115839954D01*
X92092734Y-115709432D01*
X92092732Y-115709431D01*
X92081275Y-115704088D01*
X92034132Y-115682105D01*
X91981694Y-115635934D01*
X91962542Y-115568740D01*
X91982758Y-115501859D01*
X92034134Y-115457341D01*
X92092484Y-115430132D01*
X92278820Y-115299657D01*
X92439657Y-115138820D01*
X92570134Y-114952482D01*
X92666265Y-114746326D01*
X92666269Y-114746317D01*
X92718872Y-114550000D01*
X91873686Y-114550000D01*
X91899493Y-114509844D01*
X91940000Y-114371889D01*
X91940000Y-114300001D01*
X105374532Y-114300001D01*
X105394364Y-114526686D01*
X105394366Y-114526697D01*
X105453258Y-114746488D01*
X105453261Y-114746497D01*
X105549431Y-114952732D01*
X105549432Y-114952734D01*
X105679954Y-115139141D01*
X105840858Y-115300045D01*
X105865462Y-115317273D01*
X105909087Y-115371849D01*
X105916281Y-115441348D01*
X105884758Y-115503703D01*
X105824529Y-115539117D01*
X105807593Y-115542138D01*
X105772516Y-115545908D01*
X105637671Y-115596202D01*
X105637664Y-115596206D01*
X105522455Y-115682452D01*
X105522452Y-115682455D01*
X105436206Y-115797664D01*
X105436202Y-115797671D01*
X105385908Y-115932517D01*
X105379501Y-115992116D01*
X105379501Y-115992123D01*
X105379500Y-115992135D01*
X105379500Y-117687870D01*
X105379501Y-117687876D01*
X105385908Y-117747483D01*
X105436202Y-117882328D01*
X105436206Y-117882335D01*
X105522452Y-117997544D01*
X105522455Y-117997547D01*
X105637664Y-118083793D01*
X105637671Y-118083797D01*
X105772517Y-118134091D01*
X105772516Y-118134091D01*
X105779444Y-118134835D01*
X105832127Y-118140500D01*
X107527872Y-118140499D01*
X107587483Y-118134091D01*
X107722331Y-118083796D01*
X107837546Y-117997546D01*
X107923796Y-117882331D01*
X107974091Y-117747483D01*
X107980500Y-117687873D01*
X107980499Y-115992128D01*
X107974091Y-115932517D01*
X107939567Y-115839954D01*
X107923797Y-115797671D01*
X107923793Y-115797664D01*
X107837547Y-115682455D01*
X107837544Y-115682452D01*
X107722335Y-115596206D01*
X107722328Y-115596202D01*
X107587482Y-115545908D01*
X107587483Y-115545908D01*
X107552404Y-115542137D01*
X107487853Y-115515399D01*
X107448005Y-115458006D01*
X107445512Y-115388181D01*
X107481165Y-115328092D01*
X107494539Y-115317272D01*
X107503759Y-115310816D01*
X107519139Y-115300047D01*
X107680047Y-115139139D01*
X107810568Y-114952734D01*
X107906739Y-114746496D01*
X107965635Y-114526692D01*
X107985468Y-114300000D01*
X107965635Y-114073308D01*
X107906739Y-113853504D01*
X107810568Y-113647266D01*
X107680047Y-113460861D01*
X107680045Y-113460858D01*
X107519141Y-113299954D01*
X107332734Y-113169432D01*
X107332728Y-113169429D01*
X107274725Y-113142382D01*
X107222285Y-113096210D01*
X107203133Y-113029017D01*
X107223348Y-112962135D01*
X107274725Y-112917618D01*
X107332734Y-112890568D01*
X107519139Y-112760047D01*
X107680047Y-112599139D01*
X107810568Y-112412734D01*
X107906739Y-112206496D01*
X107965635Y-111986692D01*
X107985468Y-111760000D01*
X107965635Y-111533308D01*
X107906739Y-111313504D01*
X107810568Y-111107266D01*
X107680047Y-110920861D01*
X107680045Y-110920858D01*
X107519141Y-110759954D01*
X107332734Y-110629432D01*
X107332732Y-110629431D01*
X107274725Y-110602382D01*
X107274132Y-110602105D01*
X107221694Y-110555934D01*
X107202542Y-110488740D01*
X107222758Y-110421859D01*
X107274134Y-110377341D01*
X107332484Y-110350132D01*
X107518820Y-110219657D01*
X107679657Y-110058820D01*
X107810134Y-109872482D01*
X107906265Y-109666326D01*
X107906269Y-109666317D01*
X107958872Y-109470000D01*
X107113686Y-109470000D01*
X107139493Y-109429844D01*
X107180000Y-109291889D01*
X107180000Y-109148111D01*
X107139493Y-109010156D01*
X107113686Y-108970000D01*
X107958872Y-108970000D01*
X107958872Y-108969999D01*
X107906269Y-108773682D01*
X107906265Y-108773673D01*
X107810134Y-108567517D01*
X107679657Y-108381179D01*
X107518820Y-108220342D01*
X107332482Y-108089865D01*
X107274133Y-108062657D01*
X107221694Y-108016484D01*
X107202542Y-107949291D01*
X107222758Y-107882410D01*
X107274129Y-107837895D01*
X107332734Y-107810568D01*
X107519139Y-107680047D01*
X107680047Y-107519139D01*
X107810568Y-107332734D01*
X107906739Y-107126496D01*
X107965635Y-106906692D01*
X107985468Y-106680000D01*
X107965635Y-106453308D01*
X107906739Y-106233504D01*
X107810568Y-106027266D01*
X107680047Y-105840861D01*
X107680045Y-105840858D01*
X107519141Y-105679954D01*
X107332734Y-105549432D01*
X107332728Y-105549429D01*
X107274725Y-105522382D01*
X107222285Y-105476210D01*
X107203133Y-105409017D01*
X107223348Y-105342135D01*
X107274725Y-105297618D01*
X107332734Y-105270568D01*
X107519139Y-105140047D01*
X107680047Y-104979139D01*
X107810568Y-104792734D01*
X107906739Y-104586496D01*
X107965635Y-104366692D01*
X107985468Y-104140000D01*
X107965635Y-103913308D01*
X107906739Y-103693504D01*
X107810568Y-103487266D01*
X107680047Y-103300861D01*
X107680045Y-103300858D01*
X107519141Y-103139954D01*
X107332734Y-103009432D01*
X107332728Y-103009429D01*
X107274725Y-102982382D01*
X107222285Y-102936210D01*
X107203133Y-102869017D01*
X107223348Y-102802135D01*
X107274725Y-102757618D01*
X107332734Y-102730568D01*
X107519139Y-102600047D01*
X107680047Y-102439139D01*
X107810568Y-102252734D01*
X107906739Y-102046496D01*
X107965635Y-101826692D01*
X107985468Y-101600000D01*
X107965635Y-101373308D01*
X107906739Y-101153504D01*
X107810568Y-100947266D01*
X107693790Y-100780488D01*
X107680045Y-100760858D01*
X107519141Y-100599954D01*
X107332734Y-100469432D01*
X107332728Y-100469429D01*
X107274725Y-100442382D01*
X107222285Y-100396210D01*
X107203133Y-100329017D01*
X107223348Y-100262135D01*
X107274725Y-100217618D01*
X107332734Y-100190568D01*
X107519139Y-100060047D01*
X107680047Y-99899139D01*
X107810568Y-99712734D01*
X107906739Y-99506496D01*
X107965635Y-99286692D01*
X107985468Y-99060000D01*
X107965635Y-98833308D01*
X107906739Y-98613504D01*
X107810568Y-98407266D01*
X107680047Y-98220861D01*
X107680045Y-98220858D01*
X107519141Y-98059954D01*
X107332734Y-97929432D01*
X107332728Y-97929429D01*
X107274725Y-97902382D01*
X107222285Y-97856210D01*
X107203133Y-97789017D01*
X107223348Y-97722135D01*
X107274725Y-97677618D01*
X107332734Y-97650568D01*
X107519139Y-97520047D01*
X107680047Y-97359139D01*
X107810568Y-97172734D01*
X107906739Y-96966496D01*
X107965635Y-96746692D01*
X107985468Y-96520000D01*
X107965635Y-96293308D01*
X107906739Y-96073504D01*
X107810568Y-95867266D01*
X107680047Y-95680861D01*
X107680045Y-95680858D01*
X107519141Y-95519954D01*
X107332734Y-95389432D01*
X107332728Y-95389429D01*
X107274725Y-95362382D01*
X107222285Y-95316210D01*
X107203133Y-95249017D01*
X107223348Y-95182135D01*
X107274725Y-95137618D01*
X107332734Y-95110568D01*
X107519139Y-94980047D01*
X107680047Y-94819139D01*
X107810568Y-94632734D01*
X107906739Y-94426496D01*
X107965635Y-94206692D01*
X107985468Y-93980000D01*
X107965635Y-93753308D01*
X107906739Y-93533504D01*
X107810568Y-93327266D01*
X107680047Y-93140861D01*
X107680045Y-93140858D01*
X107519141Y-92979954D01*
X107332734Y-92849432D01*
X107332728Y-92849429D01*
X107274725Y-92822382D01*
X107222285Y-92776210D01*
X107203133Y-92709017D01*
X107223348Y-92642135D01*
X107274725Y-92597618D01*
X107332734Y-92570568D01*
X107519139Y-92440047D01*
X107680047Y-92279139D01*
X107810568Y-92092734D01*
X107906739Y-91886496D01*
X107965635Y-91666692D01*
X107985468Y-91440000D01*
X107965635Y-91213308D01*
X107906739Y-90993504D01*
X107810568Y-90787266D01*
X107680047Y-90600861D01*
X107680045Y-90600858D01*
X107519141Y-90439954D01*
X107332734Y-90309432D01*
X107332728Y-90309429D01*
X107274725Y-90282382D01*
X107222285Y-90236210D01*
X107203133Y-90169017D01*
X107223348Y-90102135D01*
X107274725Y-90057618D01*
X107332734Y-90030568D01*
X107519139Y-89900047D01*
X107680047Y-89739139D01*
X107810568Y-89552734D01*
X107906739Y-89346496D01*
X107965635Y-89126692D01*
X107985468Y-88900000D01*
X107965635Y-88673308D01*
X107906739Y-88453504D01*
X107810568Y-88247266D01*
X107680047Y-88060861D01*
X107680045Y-88060858D01*
X107519141Y-87899954D01*
X107332734Y-87769432D01*
X107332728Y-87769429D01*
X107274725Y-87742382D01*
X107222285Y-87696210D01*
X107203133Y-87629017D01*
X107223348Y-87562135D01*
X107274725Y-87517618D01*
X107332734Y-87490568D01*
X107519139Y-87360047D01*
X107680047Y-87199139D01*
X107810568Y-87012734D01*
X107906739Y-86806496D01*
X107965635Y-86586692D01*
X107985468Y-86360000D01*
X107965635Y-86133308D01*
X107906739Y-85913504D01*
X107810568Y-85707266D01*
X107680047Y-85520861D01*
X107680045Y-85520858D01*
X107519141Y-85359954D01*
X107332734Y-85229432D01*
X107332728Y-85229429D01*
X107274725Y-85202382D01*
X107222285Y-85156210D01*
X107203133Y-85089017D01*
X107223348Y-85022135D01*
X107274725Y-84977618D01*
X107332734Y-84950568D01*
X107519139Y-84820047D01*
X107680047Y-84659139D01*
X107810568Y-84472734D01*
X107906739Y-84266496D01*
X107965635Y-84046692D01*
X107985468Y-83820000D01*
X107965635Y-83593308D01*
X107906739Y-83373504D01*
X107810568Y-83167266D01*
X107680047Y-82980861D01*
X107680045Y-82980858D01*
X107519141Y-82819954D01*
X107332734Y-82689432D01*
X107332728Y-82689429D01*
X107274725Y-82662382D01*
X107222285Y-82616210D01*
X107203133Y-82549017D01*
X107223348Y-82482135D01*
X107274725Y-82437618D01*
X107332734Y-82410568D01*
X107519139Y-82280047D01*
X107680047Y-82119139D01*
X107810568Y-81932734D01*
X107906739Y-81726496D01*
X107965635Y-81506692D01*
X107985468Y-81280000D01*
X107965635Y-81053308D01*
X107906739Y-80833504D01*
X107810568Y-80627266D01*
X107680047Y-80440861D01*
X107680045Y-80440858D01*
X107519141Y-80279954D01*
X107332734Y-80149432D01*
X107332732Y-80149431D01*
X107126497Y-80053261D01*
X107126488Y-80053258D01*
X106906697Y-79994366D01*
X106906693Y-79994365D01*
X106906692Y-79994365D01*
X106906691Y-79994364D01*
X106906686Y-79994364D01*
X106680002Y-79974532D01*
X106679998Y-79974532D01*
X106453313Y-79994364D01*
X106453302Y-79994366D01*
X106233511Y-80053258D01*
X106233502Y-80053261D01*
X106027267Y-80149431D01*
X106027265Y-80149432D01*
X105840858Y-80279954D01*
X105679954Y-80440858D01*
X105549432Y-80627265D01*
X105549431Y-80627267D01*
X105453261Y-80833502D01*
X105453258Y-80833511D01*
X105394366Y-81053302D01*
X105394364Y-81053313D01*
X105374532Y-81279998D01*
X105374532Y-81280001D01*
X105394364Y-81506686D01*
X105394366Y-81506697D01*
X105453258Y-81726488D01*
X105453261Y-81726497D01*
X105549431Y-81932732D01*
X105549432Y-81932734D01*
X105679954Y-82119141D01*
X105840858Y-82280045D01*
X105840861Y-82280047D01*
X106027266Y-82410568D01*
X106085275Y-82437618D01*
X106137714Y-82483791D01*
X106156866Y-82550984D01*
X106136650Y-82617865D01*
X106085275Y-82662382D01*
X106027267Y-82689431D01*
X106027265Y-82689432D01*
X105840858Y-82819954D01*
X105679954Y-82980858D01*
X105549432Y-83167265D01*
X105549431Y-83167267D01*
X105453261Y-83373502D01*
X105453258Y-83373511D01*
X105394366Y-83593302D01*
X105394364Y-83593313D01*
X105374532Y-83819998D01*
X105374532Y-83820001D01*
X105394364Y-84046686D01*
X105394366Y-84046697D01*
X105453258Y-84266488D01*
X105453261Y-84266497D01*
X105549431Y-84472732D01*
X105549432Y-84472734D01*
X105679954Y-84659141D01*
X105840858Y-84820045D01*
X105840861Y-84820047D01*
X106027266Y-84950568D01*
X106042636Y-84957735D01*
X106085275Y-84977618D01*
X106137714Y-85023791D01*
X106156866Y-85090984D01*
X106136650Y-85157865D01*
X106085275Y-85202382D01*
X106027267Y-85229431D01*
X106027265Y-85229432D01*
X105840858Y-85359954D01*
X105679954Y-85520858D01*
X105549432Y-85707265D01*
X105549431Y-85707267D01*
X105453261Y-85913502D01*
X105453258Y-85913511D01*
X105394366Y-86133302D01*
X105394364Y-86133313D01*
X105374532Y-86359998D01*
X105374532Y-86360001D01*
X105394364Y-86586686D01*
X105394366Y-86586697D01*
X105453258Y-86806488D01*
X105453261Y-86806497D01*
X105549431Y-87012732D01*
X105549432Y-87012734D01*
X105679954Y-87199141D01*
X105840858Y-87360045D01*
X105840861Y-87360047D01*
X106027266Y-87490568D01*
X106085275Y-87517618D01*
X106137714Y-87563791D01*
X106156866Y-87630984D01*
X106136650Y-87697865D01*
X106085275Y-87742382D01*
X106027267Y-87769431D01*
X106027265Y-87769432D01*
X105840858Y-87899954D01*
X105679954Y-88060858D01*
X105549432Y-88247265D01*
X105549431Y-88247267D01*
X105453261Y-88453502D01*
X105453258Y-88453511D01*
X105394366Y-88673302D01*
X105394364Y-88673313D01*
X105374532Y-88899998D01*
X105374532Y-88900001D01*
X105394364Y-89126686D01*
X105394366Y-89126697D01*
X105453258Y-89346488D01*
X105453261Y-89346497D01*
X105549431Y-89552732D01*
X105549432Y-89552734D01*
X105679954Y-89739141D01*
X105840858Y-89900045D01*
X105840861Y-89900047D01*
X106027266Y-90030568D01*
X106085275Y-90057618D01*
X106137714Y-90103791D01*
X106156866Y-90170984D01*
X106136650Y-90237865D01*
X106085275Y-90282382D01*
X106027267Y-90309431D01*
X106027265Y-90309432D01*
X105840858Y-90439954D01*
X105679954Y-90600858D01*
X105549432Y-90787265D01*
X105549431Y-90787267D01*
X105453261Y-90993502D01*
X105453258Y-90993511D01*
X105394366Y-91213302D01*
X105394364Y-91213313D01*
X105374532Y-91439998D01*
X105374532Y-91440001D01*
X105394364Y-91666686D01*
X105394366Y-91666697D01*
X105453258Y-91886488D01*
X105453261Y-91886497D01*
X105549431Y-92092732D01*
X105549432Y-92092734D01*
X105679954Y-92279141D01*
X105840858Y-92440045D01*
X105840861Y-92440047D01*
X106027266Y-92570568D01*
X106085275Y-92597618D01*
X106137714Y-92643791D01*
X106156866Y-92710984D01*
X106136650Y-92777865D01*
X106085275Y-92822382D01*
X106027267Y-92849431D01*
X106027265Y-92849432D01*
X105840858Y-92979954D01*
X105679954Y-93140858D01*
X105549432Y-93327265D01*
X105549431Y-93327267D01*
X105453261Y-93533502D01*
X105453258Y-93533511D01*
X105394366Y-93753302D01*
X105394364Y-93753313D01*
X105374532Y-93979998D01*
X105374532Y-93980001D01*
X105394364Y-94206686D01*
X105394366Y-94206697D01*
X105453258Y-94426488D01*
X105453261Y-94426497D01*
X105549431Y-94632732D01*
X105549432Y-94632734D01*
X105679954Y-94819141D01*
X105840858Y-94980045D01*
X105840861Y-94980047D01*
X106027266Y-95110568D01*
X106085275Y-95137618D01*
X106137714Y-95183791D01*
X106156866Y-95250984D01*
X106136650Y-95317865D01*
X106085275Y-95362382D01*
X106027267Y-95389431D01*
X106027265Y-95389432D01*
X105840858Y-95519954D01*
X105679954Y-95680858D01*
X105549432Y-95867265D01*
X105549431Y-95867267D01*
X105453261Y-96073502D01*
X105453258Y-96073511D01*
X105394366Y-96293302D01*
X105394364Y-96293313D01*
X105374532Y-96519998D01*
X105374532Y-96520001D01*
X105394364Y-96746686D01*
X105394366Y-96746697D01*
X105453258Y-96966488D01*
X105453261Y-96966497D01*
X105549431Y-97172732D01*
X105549432Y-97172734D01*
X105679954Y-97359141D01*
X105840858Y-97520045D01*
X105840861Y-97520047D01*
X106027266Y-97650568D01*
X106085275Y-97677618D01*
X106137714Y-97723791D01*
X106156866Y-97790984D01*
X106136650Y-97857865D01*
X106085275Y-97902382D01*
X106027267Y-97929431D01*
X106027265Y-97929432D01*
X105840858Y-98059954D01*
X105679954Y-98220858D01*
X105549432Y-98407265D01*
X105549431Y-98407267D01*
X105453261Y-98613502D01*
X105453258Y-98613511D01*
X105394366Y-98833302D01*
X105394364Y-98833313D01*
X105374532Y-99059998D01*
X105374532Y-99060001D01*
X105394364Y-99286686D01*
X105394366Y-99286697D01*
X105453258Y-99506488D01*
X105453261Y-99506497D01*
X105549431Y-99712732D01*
X105549432Y-99712734D01*
X105679954Y-99899141D01*
X105840858Y-100060045D01*
X105840861Y-100060047D01*
X106027266Y-100190568D01*
X106085275Y-100217618D01*
X106137714Y-100263791D01*
X106156866Y-100330984D01*
X106136650Y-100397865D01*
X106085275Y-100442382D01*
X106027267Y-100469431D01*
X106027265Y-100469432D01*
X105840858Y-100599954D01*
X105679954Y-100760858D01*
X105549432Y-100947265D01*
X105549431Y-100947267D01*
X105453261Y-101153502D01*
X105453258Y-101153511D01*
X105394366Y-101373302D01*
X105394364Y-101373313D01*
X105374532Y-101599998D01*
X105374532Y-101600001D01*
X105394364Y-101826686D01*
X105394366Y-101826697D01*
X105453258Y-102046488D01*
X105453261Y-102046497D01*
X105549431Y-102252732D01*
X105549432Y-102252734D01*
X105679954Y-102439141D01*
X105840858Y-102600045D01*
X105840861Y-102600047D01*
X106027266Y-102730568D01*
X106085275Y-102757618D01*
X106137714Y-102803791D01*
X106156866Y-102870984D01*
X106136650Y-102937865D01*
X106085275Y-102982382D01*
X106027267Y-103009431D01*
X106027265Y-103009432D01*
X105840858Y-103139954D01*
X105679954Y-103300858D01*
X105549432Y-103487265D01*
X105549431Y-103487267D01*
X105453261Y-103693502D01*
X105453258Y-103693511D01*
X105394366Y-103913302D01*
X105394364Y-103913313D01*
X105374532Y-104139998D01*
X105374532Y-104140001D01*
X105394364Y-104366686D01*
X105394366Y-104366697D01*
X105453258Y-104586488D01*
X105453261Y-104586497D01*
X105549431Y-104792732D01*
X105549432Y-104792734D01*
X105679954Y-104979141D01*
X105840858Y-105140045D01*
X105840861Y-105140047D01*
X106027266Y-105270568D01*
X106085275Y-105297618D01*
X106137714Y-105343791D01*
X106156866Y-105410984D01*
X106136650Y-105477865D01*
X106085275Y-105522382D01*
X106027267Y-105549431D01*
X106027265Y-105549432D01*
X105840858Y-105679954D01*
X105679954Y-105840858D01*
X105549432Y-106027265D01*
X105549431Y-106027267D01*
X105453261Y-106233502D01*
X105453258Y-106233511D01*
X105394366Y-106453302D01*
X105394364Y-106453313D01*
X105374532Y-106679998D01*
X105374532Y-106680001D01*
X105394364Y-106906686D01*
X105394366Y-106906697D01*
X105453258Y-107126488D01*
X105453261Y-107126497D01*
X105549431Y-107332732D01*
X105549432Y-107332734D01*
X105679954Y-107519141D01*
X105840858Y-107680045D01*
X105840861Y-107680047D01*
X106027266Y-107810568D01*
X106085865Y-107837893D01*
X106138305Y-107884065D01*
X106157457Y-107951258D01*
X106137242Y-108018139D01*
X106085867Y-108062657D01*
X106027515Y-108089867D01*
X105841179Y-108220342D01*
X105680342Y-108381179D01*
X105549865Y-108567517D01*
X105453734Y-108773673D01*
X105453730Y-108773682D01*
X105401127Y-108969999D01*
X105401128Y-108970000D01*
X106246314Y-108970000D01*
X106220507Y-109010156D01*
X106180000Y-109148111D01*
X106180000Y-109291889D01*
X106220507Y-109429844D01*
X106246314Y-109470000D01*
X105401128Y-109470000D01*
X105453730Y-109666317D01*
X105453734Y-109666326D01*
X105549865Y-109872482D01*
X105680342Y-110058820D01*
X105841179Y-110219657D01*
X106027518Y-110350134D01*
X106027520Y-110350135D01*
X106085865Y-110377342D01*
X106138305Y-110423514D01*
X106157457Y-110490707D01*
X106137242Y-110557589D01*
X106085867Y-110602105D01*
X106027268Y-110629431D01*
X106027264Y-110629433D01*
X105840858Y-110759954D01*
X105679954Y-110920858D01*
X105549432Y-111107265D01*
X105549431Y-111107267D01*
X105453261Y-111313502D01*
X105453258Y-111313511D01*
X105394366Y-111533302D01*
X105394364Y-111533313D01*
X105374532Y-111759998D01*
X105374532Y-111760001D01*
X105394364Y-111986686D01*
X105394366Y-111986697D01*
X105453258Y-112206488D01*
X105453261Y-112206497D01*
X105549431Y-112412732D01*
X105549432Y-112412734D01*
X105679954Y-112599141D01*
X105840858Y-112760045D01*
X105840861Y-112760047D01*
X106027266Y-112890568D01*
X106085275Y-112917618D01*
X106137714Y-112963791D01*
X106156866Y-113030984D01*
X106136650Y-113097865D01*
X106085275Y-113142382D01*
X106027267Y-113169431D01*
X106027265Y-113169432D01*
X105840858Y-113299954D01*
X105679954Y-113460858D01*
X105549432Y-113647265D01*
X105549431Y-113647267D01*
X105453261Y-113853502D01*
X105453258Y-113853511D01*
X105394366Y-114073302D01*
X105394364Y-114073313D01*
X105374532Y-114299998D01*
X105374532Y-114300001D01*
X91940000Y-114300001D01*
X91940000Y-114228111D01*
X91899493Y-114090156D01*
X91873686Y-114050000D01*
X92718872Y-114050000D01*
X92718872Y-114049999D01*
X92666269Y-113853682D01*
X92666265Y-113853673D01*
X92570134Y-113647517D01*
X92439657Y-113461179D01*
X92278820Y-113300342D01*
X92092482Y-113169865D01*
X92034133Y-113142657D01*
X91981694Y-113096484D01*
X91962542Y-113029291D01*
X91982758Y-112962410D01*
X92034129Y-112917895D01*
X92092734Y-112890568D01*
X92279139Y-112760047D01*
X92440047Y-112599139D01*
X92570568Y-112412734D01*
X92666739Y-112206496D01*
X92725635Y-111986692D01*
X92745468Y-111760000D01*
X92725635Y-111533308D01*
X92666739Y-111313504D01*
X92570568Y-111107266D01*
X92440047Y-110920861D01*
X92440045Y-110920858D01*
X92279141Y-110759954D01*
X92092734Y-110629432D01*
X92092728Y-110629429D01*
X92034725Y-110602382D01*
X91982285Y-110556210D01*
X91963133Y-110489017D01*
X91983348Y-110422135D01*
X92034725Y-110377618D01*
X92035319Y-110377341D01*
X92092734Y-110350568D01*
X92279139Y-110220047D01*
X92440047Y-110059139D01*
X92570568Y-109872734D01*
X92666739Y-109666496D01*
X92725635Y-109446692D01*
X92745468Y-109220000D01*
X92725635Y-108993308D01*
X92666739Y-108773504D01*
X92570568Y-108567266D01*
X92440047Y-108380861D01*
X92440045Y-108380858D01*
X92279141Y-108219954D01*
X92092734Y-108089432D01*
X92092728Y-108089429D01*
X92034725Y-108062382D01*
X91982285Y-108016210D01*
X91963133Y-107949017D01*
X91983348Y-107882135D01*
X92034725Y-107837618D01*
X92092734Y-107810568D01*
X92279139Y-107680047D01*
X92440047Y-107519139D01*
X92570568Y-107332734D01*
X92666739Y-107126496D01*
X92725635Y-106906692D01*
X92745468Y-106680000D01*
X92725635Y-106453308D01*
X92666739Y-106233504D01*
X92570568Y-106027266D01*
X92440047Y-105840861D01*
X92440045Y-105840858D01*
X92279141Y-105679954D01*
X92092734Y-105549432D01*
X92092728Y-105549429D01*
X92034725Y-105522382D01*
X91982285Y-105476210D01*
X91963133Y-105409017D01*
X91983348Y-105342135D01*
X92034725Y-105297618D01*
X92092734Y-105270568D01*
X92279139Y-105140047D01*
X92440047Y-104979139D01*
X92570568Y-104792734D01*
X92666739Y-104586496D01*
X92725635Y-104366692D01*
X92745468Y-104140000D01*
X92725635Y-103913308D01*
X92666739Y-103693504D01*
X92570568Y-103487266D01*
X92440047Y-103300861D01*
X92440045Y-103300858D01*
X92279141Y-103139954D01*
X92092734Y-103009432D01*
X92092728Y-103009429D01*
X92034725Y-102982382D01*
X91982285Y-102936210D01*
X91963133Y-102869017D01*
X91983348Y-102802135D01*
X92034725Y-102757618D01*
X92092734Y-102730568D01*
X92279139Y-102600047D01*
X92440047Y-102439139D01*
X92570568Y-102252734D01*
X92666739Y-102046496D01*
X92725635Y-101826692D01*
X92745468Y-101600000D01*
X92725635Y-101373308D01*
X92666739Y-101153504D01*
X92570568Y-100947266D01*
X92453790Y-100780488D01*
X92440045Y-100760858D01*
X92279141Y-100599954D01*
X92092734Y-100469432D01*
X92092728Y-100469429D01*
X92034725Y-100442382D01*
X91982285Y-100396210D01*
X91963133Y-100329017D01*
X91983348Y-100262135D01*
X92034725Y-100217618D01*
X92092734Y-100190568D01*
X92279139Y-100060047D01*
X92440047Y-99899139D01*
X92570568Y-99712734D01*
X92666739Y-99506496D01*
X92725635Y-99286692D01*
X92745468Y-99060000D01*
X92725635Y-98833308D01*
X92666739Y-98613504D01*
X92570568Y-98407266D01*
X92440047Y-98220861D01*
X92440045Y-98220858D01*
X92279141Y-98059954D01*
X92092734Y-97929432D01*
X92092728Y-97929429D01*
X92034725Y-97902382D01*
X91982285Y-97856210D01*
X91963133Y-97789017D01*
X91983348Y-97722135D01*
X92034725Y-97677618D01*
X92092734Y-97650568D01*
X92279139Y-97520047D01*
X92440047Y-97359139D01*
X92570568Y-97172734D01*
X92666739Y-96966496D01*
X92725635Y-96746692D01*
X92745468Y-96520000D01*
X92725635Y-96293308D01*
X92666739Y-96073504D01*
X92570568Y-95867266D01*
X92440047Y-95680861D01*
X92440045Y-95680858D01*
X92279141Y-95519954D01*
X92092734Y-95389432D01*
X92092728Y-95389429D01*
X92034725Y-95362382D01*
X91982285Y-95316210D01*
X91963133Y-95249017D01*
X91983348Y-95182135D01*
X92034725Y-95137618D01*
X92092734Y-95110568D01*
X92279139Y-94980047D01*
X92440047Y-94819139D01*
X92570568Y-94632734D01*
X92666739Y-94426496D01*
X92725635Y-94206692D01*
X92745468Y-93980000D01*
X92725635Y-93753308D01*
X92666739Y-93533504D01*
X92570568Y-93327266D01*
X92440047Y-93140861D01*
X92440045Y-93140858D01*
X92279141Y-92979954D01*
X92092734Y-92849432D01*
X92092728Y-92849429D01*
X92034725Y-92822382D01*
X91982285Y-92776210D01*
X91963133Y-92709017D01*
X91983348Y-92642135D01*
X92034725Y-92597618D01*
X92092734Y-92570568D01*
X92279139Y-92440047D01*
X92440047Y-92279139D01*
X92570568Y-92092734D01*
X92666739Y-91886496D01*
X92725635Y-91666692D01*
X92745468Y-91440000D01*
X92725635Y-91213308D01*
X92666739Y-90993504D01*
X92570568Y-90787266D01*
X92440047Y-90600861D01*
X92440045Y-90600858D01*
X92279141Y-90439954D01*
X92092734Y-90309432D01*
X92092728Y-90309429D01*
X92034725Y-90282382D01*
X91982285Y-90236210D01*
X91963133Y-90169017D01*
X91983348Y-90102135D01*
X92034725Y-90057618D01*
X92092734Y-90030568D01*
X92279139Y-89900047D01*
X92440047Y-89739139D01*
X92570568Y-89552734D01*
X92666739Y-89346496D01*
X92725635Y-89126692D01*
X92745468Y-88900000D01*
X92725635Y-88673308D01*
X92666739Y-88453504D01*
X92570568Y-88247266D01*
X92440047Y-88060861D01*
X92440045Y-88060858D01*
X92279141Y-87899954D01*
X92092734Y-87769432D01*
X92092728Y-87769429D01*
X92034725Y-87742382D01*
X91982285Y-87696210D01*
X91963133Y-87629017D01*
X91983348Y-87562135D01*
X92034725Y-87517618D01*
X92092734Y-87490568D01*
X92279139Y-87360047D01*
X92440047Y-87199139D01*
X92570568Y-87012734D01*
X92666739Y-86806496D01*
X92725635Y-86586692D01*
X92745468Y-86360000D01*
X92725635Y-86133308D01*
X92666739Y-85913504D01*
X92570568Y-85707266D01*
X92440047Y-85520861D01*
X92440045Y-85520858D01*
X92279141Y-85359954D01*
X92092734Y-85229432D01*
X92092728Y-85229429D01*
X92034725Y-85202382D01*
X91982285Y-85156210D01*
X91963133Y-85089017D01*
X91983348Y-85022135D01*
X92034725Y-84977618D01*
X92092734Y-84950568D01*
X92279139Y-84820047D01*
X92440047Y-84659139D01*
X92570568Y-84472734D01*
X92666739Y-84266496D01*
X92725635Y-84046692D01*
X92745468Y-83820000D01*
X92725635Y-83593308D01*
X92666739Y-83373504D01*
X92570568Y-83167266D01*
X92440047Y-82980861D01*
X92440045Y-82980858D01*
X92279141Y-82819954D01*
X92092734Y-82689432D01*
X92092728Y-82689429D01*
X92034725Y-82662382D01*
X91982285Y-82616210D01*
X91963133Y-82549017D01*
X91983348Y-82482135D01*
X92034725Y-82437618D01*
X92092734Y-82410568D01*
X92279139Y-82280047D01*
X92440047Y-82119139D01*
X92570568Y-81932734D01*
X92666739Y-81726496D01*
X92725635Y-81506692D01*
X92745468Y-81280000D01*
X92725635Y-81053308D01*
X92666739Y-80833504D01*
X92570568Y-80627266D01*
X92440047Y-80440861D01*
X92440045Y-80440858D01*
X92279141Y-80279954D01*
X92092734Y-80149432D01*
X92092732Y-80149431D01*
X91886497Y-80053261D01*
X91886488Y-80053258D01*
X91666697Y-79994366D01*
X91666693Y-79994365D01*
X91666692Y-79994365D01*
X91666691Y-79994364D01*
X91666686Y-79994364D01*
X91440002Y-79974532D01*
X91439998Y-79974532D01*
X91213313Y-79994364D01*
X91213302Y-79994366D01*
X90993511Y-80053258D01*
X90993502Y-80053261D01*
X90787267Y-80149431D01*
X90787265Y-80149432D01*
X90600858Y-80279954D01*
X90439954Y-80440858D01*
X90363450Y-80550118D01*
X90309881Y-80626624D01*
X90255307Y-80670248D01*
X90208308Y-80679500D01*
X90090487Y-80679500D01*
X90074302Y-80678439D01*
X90043000Y-80674318D01*
X90003639Y-80679500D01*
X89886239Y-80694955D01*
X89886237Y-80694956D01*
X89740157Y-80755464D01*
X89614718Y-80851716D01*
X89595489Y-80876775D01*
X89584798Y-80888965D01*
X86222965Y-84250798D01*
X86210774Y-84261490D01*
X86185718Y-84280717D01*
X86161549Y-84312213D01*
X86161550Y-84312214D01*
X86089464Y-84406158D01*
X86089461Y-84406163D01*
X86028957Y-84552234D01*
X86028955Y-84552239D01*
X86008318Y-84708998D01*
X86008318Y-84708999D01*
X86012439Y-84740301D01*
X86013500Y-84756487D01*
X86013500Y-87710903D01*
X85993815Y-87777942D01*
X85977181Y-87798584D01*
X82886066Y-90889698D01*
X82824743Y-90923183D01*
X82755051Y-90918199D01*
X82699118Y-90876327D01*
X82696810Y-90873140D01*
X82572494Y-90695597D01*
X82405402Y-90528506D01*
X82405396Y-90528501D01*
X82219842Y-90398575D01*
X82176217Y-90343998D01*
X82169023Y-90274500D01*
X82200546Y-90212145D01*
X82219842Y-90195425D01*
X82254747Y-90170984D01*
X82405401Y-90065495D01*
X82572495Y-89898401D01*
X82708035Y-89704830D01*
X82807903Y-89490663D01*
X82869063Y-89262408D01*
X82889659Y-89027000D01*
X82869063Y-88791592D01*
X82807903Y-88563337D01*
X82708035Y-88349171D01*
X82683298Y-88313842D01*
X82572494Y-88155597D01*
X82405402Y-87988506D01*
X82405396Y-87988501D01*
X82219842Y-87858575D01*
X82176217Y-87803998D01*
X82169023Y-87734500D01*
X82200546Y-87672145D01*
X82219842Y-87655425D01*
X82254747Y-87630984D01*
X82405401Y-87525495D01*
X82572495Y-87358401D01*
X82708035Y-87164830D01*
X82807903Y-86950663D01*
X82869063Y-86722408D01*
X82889659Y-86487000D01*
X82869063Y-86251592D01*
X82807903Y-86023337D01*
X82708035Y-85809171D01*
X82636682Y-85707267D01*
X82572494Y-85615597D01*
X82405402Y-85448506D01*
X82405396Y-85448501D01*
X82219842Y-85318575D01*
X82176217Y-85263998D01*
X82169023Y-85194500D01*
X82200546Y-85132145D01*
X82219842Y-85115425D01*
X82254747Y-85090984D01*
X82405401Y-84985495D01*
X82572495Y-84818401D01*
X82708035Y-84624830D01*
X82807903Y-84410663D01*
X82869063Y-84182408D01*
X82889659Y-83947000D01*
X82869063Y-83711592D01*
X82807903Y-83483337D01*
X82708035Y-83269171D01*
X82636681Y-83167267D01*
X82572496Y-83075600D01*
X82572495Y-83075599D01*
X82450179Y-82953283D01*
X82416696Y-82891963D01*
X82421680Y-82822271D01*
X82463551Y-82766337D01*
X82494529Y-82749422D01*
X82626086Y-82700354D01*
X82626093Y-82700350D01*
X82741187Y-82614190D01*
X82741190Y-82614187D01*
X82827350Y-82499093D01*
X82827354Y-82499086D01*
X82877596Y-82364379D01*
X82877598Y-82364372D01*
X82883999Y-82304844D01*
X82884000Y-82304827D01*
X82884000Y-81657000D01*
X81967686Y-81657000D01*
X81993493Y-81616844D01*
X82034000Y-81478889D01*
X82034000Y-81335111D01*
X81993493Y-81197156D01*
X81967686Y-81157000D01*
X82884000Y-81157000D01*
X82884000Y-80509172D01*
X82883999Y-80509155D01*
X82877598Y-80449627D01*
X82877596Y-80449620D01*
X82827354Y-80314913D01*
X82827350Y-80314906D01*
X82741190Y-80199812D01*
X82741187Y-80199809D01*
X82626093Y-80113649D01*
X82626086Y-80113645D01*
X82491379Y-80063403D01*
X82491372Y-80063401D01*
X82431844Y-80057000D01*
X81784000Y-80057000D01*
X81784000Y-80971498D01*
X81676315Y-80922320D01*
X81569763Y-80907000D01*
X81498237Y-80907000D01*
X81391685Y-80922320D01*
X81284000Y-80971498D01*
X81284000Y-80057000D01*
X80636155Y-80057000D01*
X80576627Y-80063401D01*
X80576620Y-80063403D01*
X80441913Y-80113645D01*
X80441906Y-80113649D01*
X80326812Y-80199809D01*
X80326809Y-80199812D01*
X80240649Y-80314906D01*
X80240645Y-80314913D01*
X80190403Y-80449620D01*
X80190401Y-80449627D01*
X80184000Y-80509155D01*
X80184000Y-81157000D01*
X81100314Y-81157000D01*
X81074507Y-81197156D01*
X81034000Y-81335111D01*
X81034000Y-81478889D01*
X81074507Y-81616844D01*
X81100314Y-81657000D01*
X80184000Y-81657000D01*
X80184000Y-82304844D01*
X80190401Y-82364372D01*
X80190403Y-82364379D01*
X80240645Y-82499086D01*
X80240649Y-82499093D01*
X80326809Y-82614187D01*
X80326812Y-82614190D01*
X80441906Y-82700350D01*
X80441913Y-82700354D01*
X80573470Y-82749421D01*
X80629403Y-82791292D01*
X80653821Y-82856756D01*
X80638970Y-82925029D01*
X80617819Y-82953284D01*
X80495503Y-83075600D01*
X80359965Y-83269169D01*
X80359964Y-83269171D01*
X80260098Y-83483335D01*
X80260094Y-83483344D01*
X80198938Y-83711586D01*
X80198936Y-83711596D01*
X80178341Y-83946999D01*
X80178341Y-83947000D01*
X80198936Y-84182403D01*
X80198938Y-84182413D01*
X80260094Y-84410655D01*
X80260096Y-84410659D01*
X80260097Y-84410663D01*
X80326113Y-84552234D01*
X80359965Y-84624830D01*
X80359967Y-84624834D01*
X80495501Y-84818395D01*
X80495506Y-84818402D01*
X80662597Y-84985493D01*
X80662603Y-84985498D01*
X80848158Y-85115425D01*
X80891783Y-85170002D01*
X80898977Y-85239500D01*
X80867454Y-85301855D01*
X80848158Y-85318575D01*
X80662597Y-85448505D01*
X80495505Y-85615597D01*
X80359965Y-85809169D01*
X80359964Y-85809171D01*
X80260098Y-86023335D01*
X80260094Y-86023344D01*
X80198938Y-86251586D01*
X80198936Y-86251596D01*
X80178341Y-86486999D01*
X80178341Y-86487000D01*
X80198936Y-86722403D01*
X80198938Y-86722413D01*
X80260094Y-86950655D01*
X80260096Y-86950659D01*
X80260097Y-86950663D01*
X80359965Y-87164830D01*
X80359967Y-87164834D01*
X80495501Y-87358395D01*
X80495506Y-87358402D01*
X80662597Y-87525493D01*
X80662603Y-87525498D01*
X80848158Y-87655425D01*
X80891783Y-87710002D01*
X80898977Y-87779500D01*
X80867454Y-87841855D01*
X80848158Y-87858575D01*
X80662597Y-87988505D01*
X80495505Y-88155597D01*
X80359965Y-88349169D01*
X80359964Y-88349171D01*
X80260098Y-88563335D01*
X80260094Y-88563344D01*
X80198938Y-88791586D01*
X80198936Y-88791596D01*
X80178341Y-89026999D01*
X80178341Y-89027000D01*
X80198936Y-89262403D01*
X80198938Y-89262413D01*
X80260094Y-89490655D01*
X80260096Y-89490659D01*
X80260097Y-89490663D01*
X80359965Y-89704830D01*
X80359967Y-89704834D01*
X80495501Y-89898395D01*
X80495506Y-89898402D01*
X80662597Y-90065493D01*
X80662603Y-90065498D01*
X80848158Y-90195425D01*
X80891783Y-90250002D01*
X80898977Y-90319500D01*
X80867454Y-90381855D01*
X80848158Y-90398575D01*
X80662597Y-90528505D01*
X80495505Y-90695597D01*
X80359965Y-90889169D01*
X80359964Y-90889171D01*
X80260098Y-91103335D01*
X80260094Y-91103344D01*
X80198938Y-91331586D01*
X80198936Y-91331596D01*
X80178341Y-91566999D01*
X80178341Y-91567000D01*
X71620500Y-91567000D01*
X71620500Y-71744500D01*
X71640185Y-71677461D01*
X71692989Y-71631706D01*
X71744500Y-71620500D01*
X76164201Y-71620500D01*
X111135500Y-71620500D01*
X111202539Y-71640185D01*
G37*
%TD.AperFunction*%
%TD*%
M02*
