M48
; DRILL file {KiCad 7.0.11+dfsg-1build4} date Thu 09 May 2024 18:47:18
; FORMAT={-:-/ absolute / inch / decimal}
; #@! TF.CreationDate,2024-05-09T18:47:18+10:00
; #@! TF.GenerationSoftware,Kicad,Pcbnew,7.0.11+dfsg-1build4
; #@! TF.FileFunction,Plated,1,2,PTH
FMAT,2
INCH
; #@! TA.AperFunction,Plated,PTH,ViaDrill
T1C0.0118
; #@! TA.AperFunction,Plated,PTH,ComponentDrill
T2C0.0394
%
G90
G05
T1
X3.1Y-3.915
X3.1Y-4.0
X3.1Y-4.085
X3.335Y-3.32
X3.335Y-3.405
X3.355Y-4.345
X3.355Y-4.395
X3.355Y-4.515
X3.43Y-4.515
X3.5Y-4.28
X3.5Y-4.375
X3.505Y-3.32
X3.505Y-3.405
X3.75Y-3.54
X3.75Y-3.615
X3.75Y-3.695
X3.75Y-3.77
X3.9Y-3.255
X3.9Y-3.33
X3.9Y-3.465
X3.9Y-3.54
X3.9Y-3.62
X3.9Y-3.695
X3.9Y-3.99
X3.9004Y-3.85
X4.085Y-3.255
X4.085Y-3.33
X4.085Y-3.465
X4.085Y-3.54
X4.085Y-3.66
X4.085Y-3.85
T2
X3.21Y-3.205
X3.21Y-3.305
X3.21Y-3.405
X3.21Y-3.505
X3.21Y-3.605
X3.6Y-3.2
X3.6Y-3.3
X3.6Y-3.4
X3.6Y-3.5
X3.6Y-3.6
X3.6Y-3.7
X3.6Y-3.8
X3.6Y-3.9
X3.6Y-4.0
X3.6Y-4.1
X3.6Y-4.2
X3.6Y-4.3
X3.6Y-4.4
X3.6Y-4.5
X3.6Y-4.6
X4.2Y-3.2
X4.2Y-3.3
X4.2Y-3.4
X4.2Y-3.5
X4.2Y-3.6
X4.2Y-3.7
X4.2Y-3.8
X4.2Y-3.9
X4.2Y-4.0
X4.2Y-4.1
X4.2Y-4.2
X4.2Y-4.3
X4.2Y-4.4
X4.2Y-4.5
X4.2Y-4.6
M30
