%TF.GenerationSoftware,KiCad,Pcbnew,7.0.11+dfsg-1build4*%
%TF.CreationDate,2024-05-09T18:47:21+10:00*%
%TF.ProjectId,NoBootLoadFlasher,4e6f426f-6f74-44c6-9f61-64466c617368,rev?*%
%TF.SameCoordinates,Original*%
%TF.FileFunction,Legend,Top*%
%TF.FilePolarity,Positive*%
%FSLAX46Y46*%
G04 Gerber Fmt 4.6, Leading zero omitted, Abs format (unit mm)*
G04 Created by KiCad (PCBNEW 7.0.11+dfsg-1build4) date 2024-05-09 18:47:21*
%MOMM*%
%LPD*%
G01*
G04 APERTURE LIST*
%ADD10C,0.200000*%
%ADD11C,0.300000*%
%ADD12C,0.100000*%
%ADD13C,0.150000*%
%ADD14C,0.250000*%
%ADD15C,0.120000*%
G04 APERTURE END LIST*
D10*
X78232000Y-95123000D02*
X78232000Y-105283000D01*
X78232000Y-105283000D02*
X83312000Y-105283000D01*
X83312000Y-105283000D02*
X83312000Y-95123000D01*
X83312000Y-95123000D02*
X78232000Y-95123000D01*
D11*
X73544510Y-112855114D02*
X74044510Y-112855114D01*
X74258796Y-113640828D02*
X73544510Y-113640828D01*
X73544510Y-113640828D02*
X73544510Y-112140828D01*
X73544510Y-112140828D02*
X74258796Y-112140828D01*
X75758796Y-113640828D02*
X75258796Y-112926542D01*
X74901653Y-113640828D02*
X74901653Y-112140828D01*
X74901653Y-112140828D02*
X75473082Y-112140828D01*
X75473082Y-112140828D02*
X75615939Y-112212257D01*
X75615939Y-112212257D02*
X75687368Y-112283685D01*
X75687368Y-112283685D02*
X75758796Y-112426542D01*
X75758796Y-112426542D02*
X75758796Y-112640828D01*
X75758796Y-112640828D02*
X75687368Y-112783685D01*
X75687368Y-112783685D02*
X75615939Y-112855114D01*
X75615939Y-112855114D02*
X75473082Y-112926542D01*
X75473082Y-112926542D02*
X74901653Y-112926542D01*
X77258796Y-113640828D02*
X76758796Y-112926542D01*
X76401653Y-113640828D02*
X76401653Y-112140828D01*
X76401653Y-112140828D02*
X76973082Y-112140828D01*
X76973082Y-112140828D02*
X77115939Y-112212257D01*
X77115939Y-112212257D02*
X77187368Y-112283685D01*
X77187368Y-112283685D02*
X77258796Y-112426542D01*
X77258796Y-112426542D02*
X77258796Y-112640828D01*
X77258796Y-112640828D02*
X77187368Y-112783685D01*
X77187368Y-112783685D02*
X77115939Y-112855114D01*
X77115939Y-112855114D02*
X76973082Y-112926542D01*
X76973082Y-112926542D02*
X76401653Y-112926542D01*
X78187368Y-112140828D02*
X78473082Y-112140828D01*
X78473082Y-112140828D02*
X78615939Y-112212257D01*
X78615939Y-112212257D02*
X78758796Y-112355114D01*
X78758796Y-112355114D02*
X78830225Y-112640828D01*
X78830225Y-112640828D02*
X78830225Y-113140828D01*
X78830225Y-113140828D02*
X78758796Y-113426542D01*
X78758796Y-113426542D02*
X78615939Y-113569400D01*
X78615939Y-113569400D02*
X78473082Y-113640828D01*
X78473082Y-113640828D02*
X78187368Y-113640828D01*
X78187368Y-113640828D02*
X78044511Y-113569400D01*
X78044511Y-113569400D02*
X77901653Y-113426542D01*
X77901653Y-113426542D02*
X77830225Y-113140828D01*
X77830225Y-113140828D02*
X77830225Y-112640828D01*
X77830225Y-112640828D02*
X77901653Y-112355114D01*
X77901653Y-112355114D02*
X78044511Y-112212257D01*
X78044511Y-112212257D02*
X78187368Y-112140828D01*
X80330225Y-113640828D02*
X79830225Y-112926542D01*
X79473082Y-113640828D02*
X79473082Y-112140828D01*
X79473082Y-112140828D02*
X80044511Y-112140828D01*
X80044511Y-112140828D02*
X80187368Y-112212257D01*
X80187368Y-112212257D02*
X80258797Y-112283685D01*
X80258797Y-112283685D02*
X80330225Y-112426542D01*
X80330225Y-112426542D02*
X80330225Y-112640828D01*
X80330225Y-112640828D02*
X80258797Y-112783685D01*
X80258797Y-112783685D02*
X80187368Y-112855114D01*
X80187368Y-112855114D02*
X80044511Y-112926542D01*
X80044511Y-112926542D02*
X79473082Y-112926542D01*
D12*
X72170027Y-72278419D02*
X72503360Y-73278419D01*
X72503360Y-73278419D02*
X72836693Y-72278419D01*
X73598598Y-73278419D02*
X73598598Y-72754609D01*
X73598598Y-72754609D02*
X73550979Y-72659371D01*
X73550979Y-72659371D02*
X73455741Y-72611752D01*
X73455741Y-72611752D02*
X73265265Y-72611752D01*
X73265265Y-72611752D02*
X73170027Y-72659371D01*
X73598598Y-73230800D02*
X73503360Y-73278419D01*
X73503360Y-73278419D02*
X73265265Y-73278419D01*
X73265265Y-73278419D02*
X73170027Y-73230800D01*
X73170027Y-73230800D02*
X73122408Y-73135561D01*
X73122408Y-73135561D02*
X73122408Y-73040323D01*
X73122408Y-73040323D02*
X73170027Y-72945085D01*
X73170027Y-72945085D02*
X73265265Y-72897466D01*
X73265265Y-72897466D02*
X73503360Y-72897466D01*
X73503360Y-72897466D02*
X73598598Y-72849847D01*
X74074789Y-72611752D02*
X74074789Y-73468895D01*
X74074789Y-73468895D02*
X74027170Y-73564133D01*
X74027170Y-73564133D02*
X73931932Y-73611752D01*
X73931932Y-73611752D02*
X73884313Y-73611752D01*
X74074789Y-72278419D02*
X74027170Y-72326038D01*
X74027170Y-72326038D02*
X74074789Y-72373657D01*
X74074789Y-72373657D02*
X74122408Y-72326038D01*
X74122408Y-72326038D02*
X74074789Y-72278419D01*
X74074789Y-72278419D02*
X74074789Y-72373657D01*
X74503360Y-73230800D02*
X74598598Y-73278419D01*
X74598598Y-73278419D02*
X74789074Y-73278419D01*
X74789074Y-73278419D02*
X74884312Y-73230800D01*
X74884312Y-73230800D02*
X74931931Y-73135561D01*
X74931931Y-73135561D02*
X74931931Y-73087942D01*
X74931931Y-73087942D02*
X74884312Y-72992704D01*
X74884312Y-72992704D02*
X74789074Y-72945085D01*
X74789074Y-72945085D02*
X74646217Y-72945085D01*
X74646217Y-72945085D02*
X74550979Y-72897466D01*
X74550979Y-72897466D02*
X74503360Y-72802228D01*
X74503360Y-72802228D02*
X74503360Y-72754609D01*
X74503360Y-72754609D02*
X74550979Y-72659371D01*
X74550979Y-72659371D02*
X74646217Y-72611752D01*
X74646217Y-72611752D02*
X74789074Y-72611752D01*
X74789074Y-72611752D02*
X74884312Y-72659371D01*
X75360503Y-73278419D02*
X75360503Y-72278419D01*
X75455741Y-72897466D02*
X75741455Y-73278419D01*
X75741455Y-72611752D02*
X75360503Y-72992704D01*
X76170027Y-73278419D02*
X76170027Y-72611752D01*
X76170027Y-72278419D02*
X76122408Y-72326038D01*
X76122408Y-72326038D02*
X76170027Y-72373657D01*
X76170027Y-72373657D02*
X76217646Y-72326038D01*
X76217646Y-72326038D02*
X76170027Y-72278419D01*
X76170027Y-72278419D02*
X76170027Y-72373657D01*
X76646217Y-73278419D02*
X76646217Y-72278419D01*
X76646217Y-72278419D02*
X76884312Y-72278419D01*
X76884312Y-72278419D02*
X77027169Y-72326038D01*
X77027169Y-72326038D02*
X77122407Y-72421276D01*
X77122407Y-72421276D02*
X77170026Y-72516514D01*
X77170026Y-72516514D02*
X77217645Y-72706990D01*
X77217645Y-72706990D02*
X77217645Y-72849847D01*
X77217645Y-72849847D02*
X77170026Y-73040323D01*
X77170026Y-73040323D02*
X77122407Y-73135561D01*
X77122407Y-73135561D02*
X77027169Y-73230800D01*
X77027169Y-73230800D02*
X76884312Y-73278419D01*
X76884312Y-73278419D02*
X76646217Y-73278419D01*
X77598598Y-73230800D02*
X77693836Y-73278419D01*
X77693836Y-73278419D02*
X77884312Y-73278419D01*
X77884312Y-73278419D02*
X77979550Y-73230800D01*
X77979550Y-73230800D02*
X78027169Y-73135561D01*
X78027169Y-73135561D02*
X78027169Y-73087942D01*
X78027169Y-73087942D02*
X77979550Y-72992704D01*
X77979550Y-72992704D02*
X77884312Y-72945085D01*
X77884312Y-72945085D02*
X77741455Y-72945085D01*
X77741455Y-72945085D02*
X77646217Y-72897466D01*
X77646217Y-72897466D02*
X77598598Y-72802228D01*
X77598598Y-72802228D02*
X77598598Y-72754609D01*
X77598598Y-72754609D02*
X77646217Y-72659371D01*
X77646217Y-72659371D02*
X77741455Y-72611752D01*
X77741455Y-72611752D02*
X77884312Y-72611752D01*
X77884312Y-72611752D02*
X77979550Y-72659371D01*
X79789074Y-73183180D02*
X79741455Y-73230800D01*
X79741455Y-73230800D02*
X79598598Y-73278419D01*
X79598598Y-73278419D02*
X79503360Y-73278419D01*
X79503360Y-73278419D02*
X79360503Y-73230800D01*
X79360503Y-73230800D02*
X79265265Y-73135561D01*
X79265265Y-73135561D02*
X79217646Y-73040323D01*
X79217646Y-73040323D02*
X79170027Y-72849847D01*
X79170027Y-72849847D02*
X79170027Y-72706990D01*
X79170027Y-72706990D02*
X79217646Y-72516514D01*
X79217646Y-72516514D02*
X79265265Y-72421276D01*
X79265265Y-72421276D02*
X79360503Y-72326038D01*
X79360503Y-72326038D02*
X79503360Y-72278419D01*
X79503360Y-72278419D02*
X79598598Y-72278419D01*
X79598598Y-72278419D02*
X79741455Y-72326038D01*
X79741455Y-72326038D02*
X79789074Y-72373657D01*
X80360503Y-73278419D02*
X80265265Y-73230800D01*
X80265265Y-73230800D02*
X80217646Y-73183180D01*
X80217646Y-73183180D02*
X80170027Y-73087942D01*
X80170027Y-73087942D02*
X80170027Y-72802228D01*
X80170027Y-72802228D02*
X80217646Y-72706990D01*
X80217646Y-72706990D02*
X80265265Y-72659371D01*
X80265265Y-72659371D02*
X80360503Y-72611752D01*
X80360503Y-72611752D02*
X80503360Y-72611752D01*
X80503360Y-72611752D02*
X80598598Y-72659371D01*
X80598598Y-72659371D02*
X80646217Y-72706990D01*
X80646217Y-72706990D02*
X80693836Y-72802228D01*
X80693836Y-72802228D02*
X80693836Y-73087942D01*
X80693836Y-73087942D02*
X80646217Y-73183180D01*
X80646217Y-73183180D02*
X80598598Y-73230800D01*
X80598598Y-73230800D02*
X80503360Y-73278419D01*
X80503360Y-73278419D02*
X80360503Y-73278419D01*
X81122408Y-72611752D02*
X81122408Y-73278419D01*
X81122408Y-72706990D02*
X81170027Y-72659371D01*
X81170027Y-72659371D02*
X81265265Y-72611752D01*
X81265265Y-72611752D02*
X81408122Y-72611752D01*
X81408122Y-72611752D02*
X81503360Y-72659371D01*
X81503360Y-72659371D02*
X81550979Y-72754609D01*
X81550979Y-72754609D02*
X81550979Y-73278419D01*
X81979551Y-73230800D02*
X82074789Y-73278419D01*
X82074789Y-73278419D02*
X82265265Y-73278419D01*
X82265265Y-73278419D02*
X82360503Y-73230800D01*
X82360503Y-73230800D02*
X82408122Y-73135561D01*
X82408122Y-73135561D02*
X82408122Y-73087942D01*
X82408122Y-73087942D02*
X82360503Y-72992704D01*
X82360503Y-72992704D02*
X82265265Y-72945085D01*
X82265265Y-72945085D02*
X82122408Y-72945085D01*
X82122408Y-72945085D02*
X82027170Y-72897466D01*
X82027170Y-72897466D02*
X81979551Y-72802228D01*
X81979551Y-72802228D02*
X81979551Y-72754609D01*
X81979551Y-72754609D02*
X82027170Y-72659371D01*
X82027170Y-72659371D02*
X82122408Y-72611752D01*
X82122408Y-72611752D02*
X82265265Y-72611752D01*
X82265265Y-72611752D02*
X82360503Y-72659371D01*
X82979551Y-73278419D02*
X82884313Y-73230800D01*
X82884313Y-73230800D02*
X82836694Y-73183180D01*
X82836694Y-73183180D02*
X82789075Y-73087942D01*
X82789075Y-73087942D02*
X82789075Y-72802228D01*
X82789075Y-72802228D02*
X82836694Y-72706990D01*
X82836694Y-72706990D02*
X82884313Y-72659371D01*
X82884313Y-72659371D02*
X82979551Y-72611752D01*
X82979551Y-72611752D02*
X83122408Y-72611752D01*
X83122408Y-72611752D02*
X83217646Y-72659371D01*
X83217646Y-72659371D02*
X83265265Y-72706990D01*
X83265265Y-72706990D02*
X83312884Y-72802228D01*
X83312884Y-72802228D02*
X83312884Y-73087942D01*
X83312884Y-73087942D02*
X83265265Y-73183180D01*
X83265265Y-73183180D02*
X83217646Y-73230800D01*
X83217646Y-73230800D02*
X83122408Y-73278419D01*
X83122408Y-73278419D02*
X82979551Y-73278419D01*
X83884313Y-73278419D02*
X83789075Y-73230800D01*
X83789075Y-73230800D02*
X83741456Y-73135561D01*
X83741456Y-73135561D02*
X83741456Y-72278419D01*
X84646218Y-73230800D02*
X84550980Y-73278419D01*
X84550980Y-73278419D02*
X84360504Y-73278419D01*
X84360504Y-73278419D02*
X84265266Y-73230800D01*
X84265266Y-73230800D02*
X84217647Y-73135561D01*
X84217647Y-73135561D02*
X84217647Y-72754609D01*
X84217647Y-72754609D02*
X84265266Y-72659371D01*
X84265266Y-72659371D02*
X84360504Y-72611752D01*
X84360504Y-72611752D02*
X84550980Y-72611752D01*
X84550980Y-72611752D02*
X84646218Y-72659371D01*
X84646218Y-72659371D02*
X84693837Y-72754609D01*
X84693837Y-72754609D02*
X84693837Y-72849847D01*
X84693837Y-72849847D02*
X84217647Y-72945085D01*
X85074790Y-73230800D02*
X85170028Y-73278419D01*
X85170028Y-73278419D02*
X85360504Y-73278419D01*
X85360504Y-73278419D02*
X85455742Y-73230800D01*
X85455742Y-73230800D02*
X85503361Y-73135561D01*
X85503361Y-73135561D02*
X85503361Y-73087942D01*
X85503361Y-73087942D02*
X85455742Y-72992704D01*
X85455742Y-72992704D02*
X85360504Y-72945085D01*
X85360504Y-72945085D02*
X85217647Y-72945085D01*
X85217647Y-72945085D02*
X85122409Y-72897466D01*
X85122409Y-72897466D02*
X85074790Y-72802228D01*
X85074790Y-72802228D02*
X85074790Y-72754609D01*
X85074790Y-72754609D02*
X85122409Y-72659371D01*
X85122409Y-72659371D02*
X85217647Y-72611752D01*
X85217647Y-72611752D02*
X85360504Y-72611752D01*
X85360504Y-72611752D02*
X85455742Y-72659371D01*
X86646219Y-72373657D02*
X86693838Y-72326038D01*
X86693838Y-72326038D02*
X86789076Y-72278419D01*
X86789076Y-72278419D02*
X87027171Y-72278419D01*
X87027171Y-72278419D02*
X87122409Y-72326038D01*
X87122409Y-72326038D02*
X87170028Y-72373657D01*
X87170028Y-72373657D02*
X87217647Y-72468895D01*
X87217647Y-72468895D02*
X87217647Y-72564133D01*
X87217647Y-72564133D02*
X87170028Y-72706990D01*
X87170028Y-72706990D02*
X86598600Y-73278419D01*
X86598600Y-73278419D02*
X87217647Y-73278419D01*
X87836695Y-72278419D02*
X87931933Y-72278419D01*
X87931933Y-72278419D02*
X88027171Y-72326038D01*
X88027171Y-72326038D02*
X88074790Y-72373657D01*
X88074790Y-72373657D02*
X88122409Y-72468895D01*
X88122409Y-72468895D02*
X88170028Y-72659371D01*
X88170028Y-72659371D02*
X88170028Y-72897466D01*
X88170028Y-72897466D02*
X88122409Y-73087942D01*
X88122409Y-73087942D02*
X88074790Y-73183180D01*
X88074790Y-73183180D02*
X88027171Y-73230800D01*
X88027171Y-73230800D02*
X87931933Y-73278419D01*
X87931933Y-73278419D02*
X87836695Y-73278419D01*
X87836695Y-73278419D02*
X87741457Y-73230800D01*
X87741457Y-73230800D02*
X87693838Y-73183180D01*
X87693838Y-73183180D02*
X87646219Y-73087942D01*
X87646219Y-73087942D02*
X87598600Y-72897466D01*
X87598600Y-72897466D02*
X87598600Y-72659371D01*
X87598600Y-72659371D02*
X87646219Y-72468895D01*
X87646219Y-72468895D02*
X87693838Y-72373657D01*
X87693838Y-72373657D02*
X87741457Y-72326038D01*
X87741457Y-72326038D02*
X87836695Y-72278419D01*
X88550981Y-72373657D02*
X88598600Y-72326038D01*
X88598600Y-72326038D02*
X88693838Y-72278419D01*
X88693838Y-72278419D02*
X88931933Y-72278419D01*
X88931933Y-72278419D02*
X89027171Y-72326038D01*
X89027171Y-72326038D02*
X89074790Y-72373657D01*
X89074790Y-72373657D02*
X89122409Y-72468895D01*
X89122409Y-72468895D02*
X89122409Y-72564133D01*
X89122409Y-72564133D02*
X89074790Y-72706990D01*
X89074790Y-72706990D02*
X88503362Y-73278419D01*
X88503362Y-73278419D02*
X89122409Y-73278419D01*
X89979552Y-72611752D02*
X89979552Y-73278419D01*
X89741457Y-72230800D02*
X89503362Y-72945085D01*
X89503362Y-72945085D02*
X90122409Y-72945085D01*
D13*
X76489160Y-86944200D02*
X76632017Y-86991819D01*
X76632017Y-86991819D02*
X76870112Y-86991819D01*
X76870112Y-86991819D02*
X76965350Y-86944200D01*
X76965350Y-86944200D02*
X77012969Y-86896580D01*
X77012969Y-86896580D02*
X77060588Y-86801342D01*
X77060588Y-86801342D02*
X77060588Y-86706104D01*
X77060588Y-86706104D02*
X77012969Y-86610866D01*
X77012969Y-86610866D02*
X76965350Y-86563247D01*
X76965350Y-86563247D02*
X76870112Y-86515628D01*
X76870112Y-86515628D02*
X76679636Y-86468009D01*
X76679636Y-86468009D02*
X76584398Y-86420390D01*
X76584398Y-86420390D02*
X76536779Y-86372771D01*
X76536779Y-86372771D02*
X76489160Y-86277533D01*
X76489160Y-86277533D02*
X76489160Y-86182295D01*
X76489160Y-86182295D02*
X76536779Y-86087057D01*
X76536779Y-86087057D02*
X76584398Y-86039438D01*
X76584398Y-86039438D02*
X76679636Y-85991819D01*
X76679636Y-85991819D02*
X76917731Y-85991819D01*
X76917731Y-85991819D02*
X77060588Y-86039438D01*
X77393922Y-85991819D02*
X77632017Y-86991819D01*
X77632017Y-86991819D02*
X77822493Y-86277533D01*
X77822493Y-86277533D02*
X78012969Y-86991819D01*
X78012969Y-86991819D02*
X78251065Y-85991819D01*
X78632017Y-86991819D02*
X78632017Y-85991819D01*
X78632017Y-85991819D02*
X78870112Y-85991819D01*
X78870112Y-85991819D02*
X79012969Y-86039438D01*
X79012969Y-86039438D02*
X79108207Y-86134676D01*
X79108207Y-86134676D02*
X79155826Y-86229914D01*
X79155826Y-86229914D02*
X79203445Y-86420390D01*
X79203445Y-86420390D02*
X79203445Y-86563247D01*
X79203445Y-86563247D02*
X79155826Y-86753723D01*
X79155826Y-86753723D02*
X79108207Y-86848961D01*
X79108207Y-86848961D02*
X79012969Y-86944200D01*
X79012969Y-86944200D02*
X78870112Y-86991819D01*
X78870112Y-86991819D02*
X78632017Y-86991819D01*
D12*
X72392217Y-125586609D02*
X72058884Y-125586609D01*
X72058884Y-126110419D02*
X72058884Y-125110419D01*
X72058884Y-125110419D02*
X72535074Y-125110419D01*
X73058884Y-126110419D02*
X72963646Y-126062800D01*
X72963646Y-126062800D02*
X72916027Y-125967561D01*
X72916027Y-125967561D02*
X72916027Y-125110419D01*
X73868408Y-126110419D02*
X73868408Y-125586609D01*
X73868408Y-125586609D02*
X73820789Y-125491371D01*
X73820789Y-125491371D02*
X73725551Y-125443752D01*
X73725551Y-125443752D02*
X73535075Y-125443752D01*
X73535075Y-125443752D02*
X73439837Y-125491371D01*
X73868408Y-126062800D02*
X73773170Y-126110419D01*
X73773170Y-126110419D02*
X73535075Y-126110419D01*
X73535075Y-126110419D02*
X73439837Y-126062800D01*
X73439837Y-126062800D02*
X73392218Y-125967561D01*
X73392218Y-125967561D02*
X73392218Y-125872323D01*
X73392218Y-125872323D02*
X73439837Y-125777085D01*
X73439837Y-125777085D02*
X73535075Y-125729466D01*
X73535075Y-125729466D02*
X73773170Y-125729466D01*
X73773170Y-125729466D02*
X73868408Y-125681847D01*
X74296980Y-126062800D02*
X74392218Y-126110419D01*
X74392218Y-126110419D02*
X74582694Y-126110419D01*
X74582694Y-126110419D02*
X74677932Y-126062800D01*
X74677932Y-126062800D02*
X74725551Y-125967561D01*
X74725551Y-125967561D02*
X74725551Y-125919942D01*
X74725551Y-125919942D02*
X74677932Y-125824704D01*
X74677932Y-125824704D02*
X74582694Y-125777085D01*
X74582694Y-125777085D02*
X74439837Y-125777085D01*
X74439837Y-125777085D02*
X74344599Y-125729466D01*
X74344599Y-125729466D02*
X74296980Y-125634228D01*
X74296980Y-125634228D02*
X74296980Y-125586609D01*
X74296980Y-125586609D02*
X74344599Y-125491371D01*
X74344599Y-125491371D02*
X74439837Y-125443752D01*
X74439837Y-125443752D02*
X74582694Y-125443752D01*
X74582694Y-125443752D02*
X74677932Y-125491371D01*
X75154123Y-126110419D02*
X75154123Y-125110419D01*
X75582694Y-126110419D02*
X75582694Y-125586609D01*
X75582694Y-125586609D02*
X75535075Y-125491371D01*
X75535075Y-125491371D02*
X75439837Y-125443752D01*
X75439837Y-125443752D02*
X75296980Y-125443752D01*
X75296980Y-125443752D02*
X75201742Y-125491371D01*
X75201742Y-125491371D02*
X75154123Y-125538990D01*
X76058885Y-126110419D02*
X76058885Y-125443752D01*
X76058885Y-125110419D02*
X76011266Y-125158038D01*
X76011266Y-125158038D02*
X76058885Y-125205657D01*
X76058885Y-125205657D02*
X76106504Y-125158038D01*
X76106504Y-125158038D02*
X76058885Y-125110419D01*
X76058885Y-125110419D02*
X76058885Y-125205657D01*
X76535075Y-125443752D02*
X76535075Y-126110419D01*
X76535075Y-125538990D02*
X76582694Y-125491371D01*
X76582694Y-125491371D02*
X76677932Y-125443752D01*
X76677932Y-125443752D02*
X76820789Y-125443752D01*
X76820789Y-125443752D02*
X76916027Y-125491371D01*
X76916027Y-125491371D02*
X76963646Y-125586609D01*
X76963646Y-125586609D02*
X76963646Y-126110419D01*
X77868408Y-125443752D02*
X77868408Y-126253276D01*
X77868408Y-126253276D02*
X77820789Y-126348514D01*
X77820789Y-126348514D02*
X77773170Y-126396133D01*
X77773170Y-126396133D02*
X77677932Y-126443752D01*
X77677932Y-126443752D02*
X77535075Y-126443752D01*
X77535075Y-126443752D02*
X77439837Y-126396133D01*
X77868408Y-126062800D02*
X77773170Y-126110419D01*
X77773170Y-126110419D02*
X77582694Y-126110419D01*
X77582694Y-126110419D02*
X77487456Y-126062800D01*
X77487456Y-126062800D02*
X77439837Y-126015180D01*
X77439837Y-126015180D02*
X77392218Y-125919942D01*
X77392218Y-125919942D02*
X77392218Y-125634228D01*
X77392218Y-125634228D02*
X77439837Y-125538990D01*
X77439837Y-125538990D02*
X77487456Y-125491371D01*
X77487456Y-125491371D02*
X77582694Y-125443752D01*
X77582694Y-125443752D02*
X77773170Y-125443752D01*
X77773170Y-125443752D02*
X77868408Y-125491371D01*
X78963647Y-125443752D02*
X79344599Y-125443752D01*
X79106504Y-126110419D02*
X79106504Y-125253276D01*
X79106504Y-125253276D02*
X79154123Y-125158038D01*
X79154123Y-125158038D02*
X79249361Y-125110419D01*
X79249361Y-125110419D02*
X79344599Y-125110419D01*
X79677933Y-126110419D02*
X79677933Y-125443752D01*
X79677933Y-125110419D02*
X79630314Y-125158038D01*
X79630314Y-125158038D02*
X79677933Y-125205657D01*
X79677933Y-125205657D02*
X79725552Y-125158038D01*
X79725552Y-125158038D02*
X79677933Y-125110419D01*
X79677933Y-125110419D02*
X79677933Y-125205657D01*
X80154123Y-126110419D02*
X80154123Y-125443752D01*
X80154123Y-125634228D02*
X80201742Y-125538990D01*
X80201742Y-125538990D02*
X80249361Y-125491371D01*
X80249361Y-125491371D02*
X80344599Y-125443752D01*
X80344599Y-125443752D02*
X80439837Y-125443752D01*
X80773171Y-126110419D02*
X80773171Y-125443752D01*
X80773171Y-125538990D02*
X80820790Y-125491371D01*
X80820790Y-125491371D02*
X80916028Y-125443752D01*
X80916028Y-125443752D02*
X81058885Y-125443752D01*
X81058885Y-125443752D02*
X81154123Y-125491371D01*
X81154123Y-125491371D02*
X81201742Y-125586609D01*
X81201742Y-125586609D02*
X81201742Y-126110419D01*
X81201742Y-125586609D02*
X81249361Y-125491371D01*
X81249361Y-125491371D02*
X81344599Y-125443752D01*
X81344599Y-125443752D02*
X81487456Y-125443752D01*
X81487456Y-125443752D02*
X81582695Y-125491371D01*
X81582695Y-125491371D02*
X81630314Y-125586609D01*
X81630314Y-125586609D02*
X81630314Y-126110419D01*
X82011266Y-125443752D02*
X82201742Y-126110419D01*
X82201742Y-126110419D02*
X82392218Y-125634228D01*
X82392218Y-125634228D02*
X82582694Y-126110419D01*
X82582694Y-126110419D02*
X82773170Y-125443752D01*
X83582694Y-126110419D02*
X83582694Y-125586609D01*
X83582694Y-125586609D02*
X83535075Y-125491371D01*
X83535075Y-125491371D02*
X83439837Y-125443752D01*
X83439837Y-125443752D02*
X83249361Y-125443752D01*
X83249361Y-125443752D02*
X83154123Y-125491371D01*
X83582694Y-126062800D02*
X83487456Y-126110419D01*
X83487456Y-126110419D02*
X83249361Y-126110419D01*
X83249361Y-126110419D02*
X83154123Y-126062800D01*
X83154123Y-126062800D02*
X83106504Y-125967561D01*
X83106504Y-125967561D02*
X83106504Y-125872323D01*
X83106504Y-125872323D02*
X83154123Y-125777085D01*
X83154123Y-125777085D02*
X83249361Y-125729466D01*
X83249361Y-125729466D02*
X83487456Y-125729466D01*
X83487456Y-125729466D02*
X83582694Y-125681847D01*
X84058885Y-126110419D02*
X84058885Y-125443752D01*
X84058885Y-125634228D02*
X84106504Y-125538990D01*
X84106504Y-125538990D02*
X84154123Y-125491371D01*
X84154123Y-125491371D02*
X84249361Y-125443752D01*
X84249361Y-125443752D02*
X84344599Y-125443752D01*
X85058885Y-126062800D02*
X84963647Y-126110419D01*
X84963647Y-126110419D02*
X84773171Y-126110419D01*
X84773171Y-126110419D02*
X84677933Y-126062800D01*
X84677933Y-126062800D02*
X84630314Y-125967561D01*
X84630314Y-125967561D02*
X84630314Y-125586609D01*
X84630314Y-125586609D02*
X84677933Y-125491371D01*
X84677933Y-125491371D02*
X84773171Y-125443752D01*
X84773171Y-125443752D02*
X84963647Y-125443752D01*
X84963647Y-125443752D02*
X85058885Y-125491371D01*
X85058885Y-125491371D02*
X85106504Y-125586609D01*
X85106504Y-125586609D02*
X85106504Y-125681847D01*
X85106504Y-125681847D02*
X84630314Y-125777085D01*
X86296981Y-126110419D02*
X86296981Y-125110419D01*
X86296981Y-125491371D02*
X86392219Y-125443752D01*
X86392219Y-125443752D02*
X86582695Y-125443752D01*
X86582695Y-125443752D02*
X86677933Y-125491371D01*
X86677933Y-125491371D02*
X86725552Y-125538990D01*
X86725552Y-125538990D02*
X86773171Y-125634228D01*
X86773171Y-125634228D02*
X86773171Y-125919942D01*
X86773171Y-125919942D02*
X86725552Y-126015180D01*
X86725552Y-126015180D02*
X86677933Y-126062800D01*
X86677933Y-126062800D02*
X86582695Y-126110419D01*
X86582695Y-126110419D02*
X86392219Y-126110419D01*
X86392219Y-126110419D02*
X86296981Y-126062800D01*
X87106505Y-125443752D02*
X87344600Y-126110419D01*
X87582695Y-125443752D02*
X87344600Y-126110419D01*
X87344600Y-126110419D02*
X87249362Y-126348514D01*
X87249362Y-126348514D02*
X87201743Y-126396133D01*
X87201743Y-126396133D02*
X87106505Y-126443752D01*
X88725553Y-126110419D02*
X88725553Y-125110419D01*
X88725553Y-125491371D02*
X88820791Y-125443752D01*
X88820791Y-125443752D02*
X89011267Y-125443752D01*
X89011267Y-125443752D02*
X89106505Y-125491371D01*
X89106505Y-125491371D02*
X89154124Y-125538990D01*
X89154124Y-125538990D02*
X89201743Y-125634228D01*
X89201743Y-125634228D02*
X89201743Y-125919942D01*
X89201743Y-125919942D02*
X89154124Y-126015180D01*
X89154124Y-126015180D02*
X89106505Y-126062800D01*
X89106505Y-126062800D02*
X89011267Y-126110419D01*
X89011267Y-126110419D02*
X88820791Y-126110419D01*
X88820791Y-126110419D02*
X88725553Y-126062800D01*
X89630315Y-126110419D02*
X89630315Y-125443752D01*
X89630315Y-125634228D02*
X89677934Y-125538990D01*
X89677934Y-125538990D02*
X89725553Y-125491371D01*
X89725553Y-125491371D02*
X89820791Y-125443752D01*
X89820791Y-125443752D02*
X89916029Y-125443752D01*
X90392220Y-126110419D02*
X90296982Y-126062800D01*
X90296982Y-126062800D02*
X90249363Y-126015180D01*
X90249363Y-126015180D02*
X90201744Y-125919942D01*
X90201744Y-125919942D02*
X90201744Y-125634228D01*
X90201744Y-125634228D02*
X90249363Y-125538990D01*
X90249363Y-125538990D02*
X90296982Y-125491371D01*
X90296982Y-125491371D02*
X90392220Y-125443752D01*
X90392220Y-125443752D02*
X90535077Y-125443752D01*
X90535077Y-125443752D02*
X90630315Y-125491371D01*
X90630315Y-125491371D02*
X90677934Y-125538990D01*
X90677934Y-125538990D02*
X90725553Y-125634228D01*
X90725553Y-125634228D02*
X90725553Y-125919942D01*
X90725553Y-125919942D02*
X90677934Y-126015180D01*
X90677934Y-126015180D02*
X90630315Y-126062800D01*
X90630315Y-126062800D02*
X90535077Y-126110419D01*
X90535077Y-126110419D02*
X90392220Y-126110419D01*
X91011268Y-125443752D02*
X91392220Y-125443752D01*
X91154125Y-125110419D02*
X91154125Y-125967561D01*
X91154125Y-125967561D02*
X91201744Y-126062800D01*
X91201744Y-126062800D02*
X91296982Y-126110419D01*
X91296982Y-126110419D02*
X91392220Y-126110419D01*
X91725554Y-126110419D02*
X91725554Y-125110419D01*
X92154125Y-126110419D02*
X92154125Y-125586609D01*
X92154125Y-125586609D02*
X92106506Y-125491371D01*
X92106506Y-125491371D02*
X92011268Y-125443752D01*
X92011268Y-125443752D02*
X91868411Y-125443752D01*
X91868411Y-125443752D02*
X91773173Y-125491371D01*
X91773173Y-125491371D02*
X91725554Y-125538990D01*
X93011268Y-126062800D02*
X92916030Y-126110419D01*
X92916030Y-126110419D02*
X92725554Y-126110419D01*
X92725554Y-126110419D02*
X92630316Y-126062800D01*
X92630316Y-126062800D02*
X92582697Y-125967561D01*
X92582697Y-125967561D02*
X92582697Y-125586609D01*
X92582697Y-125586609D02*
X92630316Y-125491371D01*
X92630316Y-125491371D02*
X92725554Y-125443752D01*
X92725554Y-125443752D02*
X92916030Y-125443752D01*
X92916030Y-125443752D02*
X93011268Y-125491371D01*
X93011268Y-125491371D02*
X93058887Y-125586609D01*
X93058887Y-125586609D02*
X93058887Y-125681847D01*
X93058887Y-125681847D02*
X92582697Y-125777085D01*
X93487459Y-126110419D02*
X93487459Y-125443752D01*
X93487459Y-125634228D02*
X93535078Y-125538990D01*
X93535078Y-125538990D02*
X93582697Y-125491371D01*
X93582697Y-125491371D02*
X93677935Y-125443752D01*
X93677935Y-125443752D02*
X93773173Y-125443752D01*
X93868412Y-126205657D02*
X94630316Y-126205657D01*
X94773174Y-125443752D02*
X95011269Y-126110419D01*
X95249364Y-125443752D02*
X95011269Y-126110419D01*
X95011269Y-126110419D02*
X94916031Y-126348514D01*
X94916031Y-126348514D02*
X94868412Y-126396133D01*
X94868412Y-126396133D02*
X94773174Y-126443752D01*
X96058888Y-126110419D02*
X96058888Y-125586609D01*
X96058888Y-125586609D02*
X96011269Y-125491371D01*
X96011269Y-125491371D02*
X95916031Y-125443752D01*
X95916031Y-125443752D02*
X95725555Y-125443752D01*
X95725555Y-125443752D02*
X95630317Y-125491371D01*
X96058888Y-126062800D02*
X95963650Y-126110419D01*
X95963650Y-126110419D02*
X95725555Y-126110419D01*
X95725555Y-126110419D02*
X95630317Y-126062800D01*
X95630317Y-126062800D02*
X95582698Y-125967561D01*
X95582698Y-125967561D02*
X95582698Y-125872323D01*
X95582698Y-125872323D02*
X95630317Y-125777085D01*
X95630317Y-125777085D02*
X95725555Y-125729466D01*
X95725555Y-125729466D02*
X95963650Y-125729466D01*
X95963650Y-125729466D02*
X96058888Y-125681847D01*
X96535079Y-125443752D02*
X96535079Y-126110419D01*
X96535079Y-125538990D02*
X96582698Y-125491371D01*
X96582698Y-125491371D02*
X96677936Y-125443752D01*
X96677936Y-125443752D02*
X96820793Y-125443752D01*
X96820793Y-125443752D02*
X96916031Y-125491371D01*
X96916031Y-125491371D02*
X96963650Y-125586609D01*
X96963650Y-125586609D02*
X96963650Y-126110419D01*
D11*
X74044510Y-116755114D02*
X73544510Y-116755114D01*
X73544510Y-117540828D02*
X73544510Y-116040828D01*
X73544510Y-116040828D02*
X74258796Y-116040828D01*
X75044510Y-117540828D02*
X74901653Y-117469400D01*
X74901653Y-117469400D02*
X74830224Y-117326542D01*
X74830224Y-117326542D02*
X74830224Y-116040828D01*
X76258796Y-117540828D02*
X76258796Y-116755114D01*
X76258796Y-116755114D02*
X76187367Y-116612257D01*
X76187367Y-116612257D02*
X76044510Y-116540828D01*
X76044510Y-116540828D02*
X75758796Y-116540828D01*
X75758796Y-116540828D02*
X75615938Y-116612257D01*
X76258796Y-117469400D02*
X76115938Y-117540828D01*
X76115938Y-117540828D02*
X75758796Y-117540828D01*
X75758796Y-117540828D02*
X75615938Y-117469400D01*
X75615938Y-117469400D02*
X75544510Y-117326542D01*
X75544510Y-117326542D02*
X75544510Y-117183685D01*
X75544510Y-117183685D02*
X75615938Y-117040828D01*
X75615938Y-117040828D02*
X75758796Y-116969400D01*
X75758796Y-116969400D02*
X76115938Y-116969400D01*
X76115938Y-116969400D02*
X76258796Y-116897971D01*
X76901653Y-117469400D02*
X77044510Y-117540828D01*
X77044510Y-117540828D02*
X77330224Y-117540828D01*
X77330224Y-117540828D02*
X77473081Y-117469400D01*
X77473081Y-117469400D02*
X77544510Y-117326542D01*
X77544510Y-117326542D02*
X77544510Y-117255114D01*
X77544510Y-117255114D02*
X77473081Y-117112257D01*
X77473081Y-117112257D02*
X77330224Y-117040828D01*
X77330224Y-117040828D02*
X77115939Y-117040828D01*
X77115939Y-117040828D02*
X76973081Y-116969400D01*
X76973081Y-116969400D02*
X76901653Y-116826542D01*
X76901653Y-116826542D02*
X76901653Y-116755114D01*
X76901653Y-116755114D02*
X76973081Y-116612257D01*
X76973081Y-116612257D02*
X77115939Y-116540828D01*
X77115939Y-116540828D02*
X77330224Y-116540828D01*
X77330224Y-116540828D02*
X77473081Y-116612257D01*
X78187367Y-117540828D02*
X78187367Y-116040828D01*
X78830225Y-117540828D02*
X78830225Y-116755114D01*
X78830225Y-116755114D02*
X78758796Y-116612257D01*
X78758796Y-116612257D02*
X78615939Y-116540828D01*
X78615939Y-116540828D02*
X78401653Y-116540828D01*
X78401653Y-116540828D02*
X78258796Y-116612257D01*
X78258796Y-116612257D02*
X78187367Y-116683685D01*
X79544510Y-117540828D02*
X79544510Y-116540828D01*
X79544510Y-116040828D02*
X79473082Y-116112257D01*
X79473082Y-116112257D02*
X79544510Y-116183685D01*
X79544510Y-116183685D02*
X79615939Y-116112257D01*
X79615939Y-116112257D02*
X79544510Y-116040828D01*
X79544510Y-116040828D02*
X79544510Y-116183685D01*
X80258796Y-116540828D02*
X80258796Y-117540828D01*
X80258796Y-116683685D02*
X80330225Y-116612257D01*
X80330225Y-116612257D02*
X80473082Y-116540828D01*
X80473082Y-116540828D02*
X80687368Y-116540828D01*
X80687368Y-116540828D02*
X80830225Y-116612257D01*
X80830225Y-116612257D02*
X80901654Y-116755114D01*
X80901654Y-116755114D02*
X80901654Y-117540828D01*
X82258797Y-116540828D02*
X82258797Y-117755114D01*
X82258797Y-117755114D02*
X82187368Y-117897971D01*
X82187368Y-117897971D02*
X82115939Y-117969400D01*
X82115939Y-117969400D02*
X81973082Y-118040828D01*
X81973082Y-118040828D02*
X81758797Y-118040828D01*
X81758797Y-118040828D02*
X81615939Y-117969400D01*
X82258797Y-117469400D02*
X82115939Y-117540828D01*
X82115939Y-117540828D02*
X81830225Y-117540828D01*
X81830225Y-117540828D02*
X81687368Y-117469400D01*
X81687368Y-117469400D02*
X81615939Y-117397971D01*
X81615939Y-117397971D02*
X81544511Y-117255114D01*
X81544511Y-117255114D02*
X81544511Y-116826542D01*
X81544511Y-116826542D02*
X81615939Y-116683685D01*
X81615939Y-116683685D02*
X81687368Y-116612257D01*
X81687368Y-116612257D02*
X81830225Y-116540828D01*
X81830225Y-116540828D02*
X82115939Y-116540828D01*
X82115939Y-116540828D02*
X82258797Y-116612257D01*
D13*
X76520922Y-83451819D02*
X76854255Y-84451819D01*
X76854255Y-84451819D02*
X77187588Y-83451819D01*
X78092350Y-84356580D02*
X78044731Y-84404200D01*
X78044731Y-84404200D02*
X77901874Y-84451819D01*
X77901874Y-84451819D02*
X77806636Y-84451819D01*
X77806636Y-84451819D02*
X77663779Y-84404200D01*
X77663779Y-84404200D02*
X77568541Y-84308961D01*
X77568541Y-84308961D02*
X77520922Y-84213723D01*
X77520922Y-84213723D02*
X77473303Y-84023247D01*
X77473303Y-84023247D02*
X77473303Y-83880390D01*
X77473303Y-83880390D02*
X77520922Y-83689914D01*
X77520922Y-83689914D02*
X77568541Y-83594676D01*
X77568541Y-83594676D02*
X77663779Y-83499438D01*
X77663779Y-83499438D02*
X77806636Y-83451819D01*
X77806636Y-83451819D02*
X77901874Y-83451819D01*
X77901874Y-83451819D02*
X78044731Y-83499438D01*
X78044731Y-83499438D02*
X78092350Y-83547057D01*
X79092350Y-84356580D02*
X79044731Y-84404200D01*
X79044731Y-84404200D02*
X78901874Y-84451819D01*
X78901874Y-84451819D02*
X78806636Y-84451819D01*
X78806636Y-84451819D02*
X78663779Y-84404200D01*
X78663779Y-84404200D02*
X78568541Y-84308961D01*
X78568541Y-84308961D02*
X78520922Y-84213723D01*
X78520922Y-84213723D02*
X78473303Y-84023247D01*
X78473303Y-84023247D02*
X78473303Y-83880390D01*
X78473303Y-83880390D02*
X78520922Y-83689914D01*
X78520922Y-83689914D02*
X78568541Y-83594676D01*
X78568541Y-83594676D02*
X78663779Y-83499438D01*
X78663779Y-83499438D02*
X78806636Y-83451819D01*
X78806636Y-83451819D02*
X78901874Y-83451819D01*
X78901874Y-83451819D02*
X79044731Y-83499438D01*
X79044731Y-83499438D02*
X79092350Y-83547057D01*
X76489160Y-92024200D02*
X76632017Y-92071819D01*
X76632017Y-92071819D02*
X76870112Y-92071819D01*
X76870112Y-92071819D02*
X76965350Y-92024200D01*
X76965350Y-92024200D02*
X77012969Y-91976580D01*
X77012969Y-91976580D02*
X77060588Y-91881342D01*
X77060588Y-91881342D02*
X77060588Y-91786104D01*
X77060588Y-91786104D02*
X77012969Y-91690866D01*
X77012969Y-91690866D02*
X76965350Y-91643247D01*
X76965350Y-91643247D02*
X76870112Y-91595628D01*
X76870112Y-91595628D02*
X76679636Y-91548009D01*
X76679636Y-91548009D02*
X76584398Y-91500390D01*
X76584398Y-91500390D02*
X76536779Y-91452771D01*
X76536779Y-91452771D02*
X76489160Y-91357533D01*
X76489160Y-91357533D02*
X76489160Y-91262295D01*
X76489160Y-91262295D02*
X76536779Y-91167057D01*
X76536779Y-91167057D02*
X76584398Y-91119438D01*
X76584398Y-91119438D02*
X76679636Y-91071819D01*
X76679636Y-91071819D02*
X76917731Y-91071819D01*
X76917731Y-91071819D02*
X77060588Y-91119438D01*
X77393922Y-91071819D02*
X77632017Y-92071819D01*
X77632017Y-92071819D02*
X77822493Y-91357533D01*
X77822493Y-91357533D02*
X78012969Y-92071819D01*
X78012969Y-92071819D02*
X78251065Y-91071819D01*
X79203445Y-91976580D02*
X79155826Y-92024200D01*
X79155826Y-92024200D02*
X79012969Y-92071819D01*
X79012969Y-92071819D02*
X78917731Y-92071819D01*
X78917731Y-92071819D02*
X78774874Y-92024200D01*
X78774874Y-92024200D02*
X78679636Y-91928961D01*
X78679636Y-91928961D02*
X78632017Y-91833723D01*
X78632017Y-91833723D02*
X78584398Y-91643247D01*
X78584398Y-91643247D02*
X78584398Y-91500390D01*
X78584398Y-91500390D02*
X78632017Y-91309914D01*
X78632017Y-91309914D02*
X78679636Y-91214676D01*
X78679636Y-91214676D02*
X78774874Y-91119438D01*
X78774874Y-91119438D02*
X78917731Y-91071819D01*
X78917731Y-91071819D02*
X79012969Y-91071819D01*
X79012969Y-91071819D02*
X79155826Y-91119438D01*
X79155826Y-91119438D02*
X79203445Y-91167057D01*
X77060588Y-80959438D02*
X76965350Y-80911819D01*
X76965350Y-80911819D02*
X76822493Y-80911819D01*
X76822493Y-80911819D02*
X76679636Y-80959438D01*
X76679636Y-80959438D02*
X76584398Y-81054676D01*
X76584398Y-81054676D02*
X76536779Y-81149914D01*
X76536779Y-81149914D02*
X76489160Y-81340390D01*
X76489160Y-81340390D02*
X76489160Y-81483247D01*
X76489160Y-81483247D02*
X76536779Y-81673723D01*
X76536779Y-81673723D02*
X76584398Y-81768961D01*
X76584398Y-81768961D02*
X76679636Y-81864200D01*
X76679636Y-81864200D02*
X76822493Y-81911819D01*
X76822493Y-81911819D02*
X76917731Y-81911819D01*
X76917731Y-81911819D02*
X77060588Y-81864200D01*
X77060588Y-81864200D02*
X77108207Y-81816580D01*
X77108207Y-81816580D02*
X77108207Y-81483247D01*
X77108207Y-81483247D02*
X76917731Y-81483247D01*
X77536779Y-81911819D02*
X77536779Y-80911819D01*
X77536779Y-80911819D02*
X78108207Y-81911819D01*
X78108207Y-81911819D02*
X78108207Y-80911819D01*
X78584398Y-81911819D02*
X78584398Y-80911819D01*
X78584398Y-80911819D02*
X78822493Y-80911819D01*
X78822493Y-80911819D02*
X78965350Y-80959438D01*
X78965350Y-80959438D02*
X79060588Y-81054676D01*
X79060588Y-81054676D02*
X79108207Y-81149914D01*
X79108207Y-81149914D02*
X79155826Y-81340390D01*
X79155826Y-81340390D02*
X79155826Y-81483247D01*
X79155826Y-81483247D02*
X79108207Y-81673723D01*
X79108207Y-81673723D02*
X79060588Y-81768961D01*
X79060588Y-81768961D02*
X78965350Y-81864200D01*
X78965350Y-81864200D02*
X78822493Y-81911819D01*
X78822493Y-81911819D02*
X78584398Y-81911819D01*
X89456856Y-122628819D02*
X88980666Y-122628819D01*
X88980666Y-122628819D02*
X88980666Y-121628819D01*
X90313999Y-121676438D02*
X90218761Y-121628819D01*
X90218761Y-121628819D02*
X90075904Y-121628819D01*
X90075904Y-121628819D02*
X89933047Y-121676438D01*
X89933047Y-121676438D02*
X89837809Y-121771676D01*
X89837809Y-121771676D02*
X89790190Y-121866914D01*
X89790190Y-121866914D02*
X89742571Y-122057390D01*
X89742571Y-122057390D02*
X89742571Y-122200247D01*
X89742571Y-122200247D02*
X89790190Y-122390723D01*
X89790190Y-122390723D02*
X89837809Y-122485961D01*
X89837809Y-122485961D02*
X89933047Y-122581200D01*
X89933047Y-122581200D02*
X90075904Y-122628819D01*
X90075904Y-122628819D02*
X90171142Y-122628819D01*
X90171142Y-122628819D02*
X90313999Y-122581200D01*
X90313999Y-122581200D02*
X90361618Y-122533580D01*
X90361618Y-122533580D02*
X90361618Y-122200247D01*
X90361618Y-122200247D02*
X90171142Y-122200247D01*
X90647333Y-121628819D02*
X91218761Y-121628819D01*
X90933047Y-122628819D02*
X90933047Y-121628819D01*
X91694952Y-122057390D02*
X91599714Y-122009771D01*
X91599714Y-122009771D02*
X91552095Y-121962152D01*
X91552095Y-121962152D02*
X91504476Y-121866914D01*
X91504476Y-121866914D02*
X91504476Y-121819295D01*
X91504476Y-121819295D02*
X91552095Y-121724057D01*
X91552095Y-121724057D02*
X91599714Y-121676438D01*
X91599714Y-121676438D02*
X91694952Y-121628819D01*
X91694952Y-121628819D02*
X91885428Y-121628819D01*
X91885428Y-121628819D02*
X91980666Y-121676438D01*
X91980666Y-121676438D02*
X92028285Y-121724057D01*
X92028285Y-121724057D02*
X92075904Y-121819295D01*
X92075904Y-121819295D02*
X92075904Y-121866914D01*
X92075904Y-121866914D02*
X92028285Y-121962152D01*
X92028285Y-121962152D02*
X91980666Y-122009771D01*
X91980666Y-122009771D02*
X91885428Y-122057390D01*
X91885428Y-122057390D02*
X91694952Y-122057390D01*
X91694952Y-122057390D02*
X91599714Y-122105009D01*
X91599714Y-122105009D02*
X91552095Y-122152628D01*
X91552095Y-122152628D02*
X91504476Y-122247866D01*
X91504476Y-122247866D02*
X91504476Y-122438342D01*
X91504476Y-122438342D02*
X91552095Y-122533580D01*
X91552095Y-122533580D02*
X91599714Y-122581200D01*
X91599714Y-122581200D02*
X91694952Y-122628819D01*
X91694952Y-122628819D02*
X91885428Y-122628819D01*
X91885428Y-122628819D02*
X91980666Y-122581200D01*
X91980666Y-122581200D02*
X92028285Y-122533580D01*
X92028285Y-122533580D02*
X92075904Y-122438342D01*
X92075904Y-122438342D02*
X92075904Y-122247866D01*
X92075904Y-122247866D02*
X92028285Y-122152628D01*
X92028285Y-122152628D02*
X91980666Y-122105009D01*
X91980666Y-122105009D02*
X91885428Y-122057390D01*
X92837809Y-122105009D02*
X92504476Y-122105009D01*
X92504476Y-122628819D02*
X92504476Y-121628819D01*
X92504476Y-121628819D02*
X92980666Y-121628819D01*
X93266381Y-121628819D02*
X93885428Y-121628819D01*
X93885428Y-121628819D02*
X93552095Y-122009771D01*
X93552095Y-122009771D02*
X93694952Y-122009771D01*
X93694952Y-122009771D02*
X93790190Y-122057390D01*
X93790190Y-122057390D02*
X93837809Y-122105009D01*
X93837809Y-122105009D02*
X93885428Y-122200247D01*
X93885428Y-122200247D02*
X93885428Y-122438342D01*
X93885428Y-122438342D02*
X93837809Y-122533580D01*
X93837809Y-122533580D02*
X93790190Y-122581200D01*
X93790190Y-122581200D02*
X93694952Y-122628819D01*
X93694952Y-122628819D02*
X93409238Y-122628819D01*
X93409238Y-122628819D02*
X93314000Y-122581200D01*
X93314000Y-122581200D02*
X93266381Y-122533580D01*
X94266381Y-121724057D02*
X94314000Y-121676438D01*
X94314000Y-121676438D02*
X94409238Y-121628819D01*
X94409238Y-121628819D02*
X94647333Y-121628819D01*
X94647333Y-121628819D02*
X94742571Y-121676438D01*
X94742571Y-121676438D02*
X94790190Y-121724057D01*
X94790190Y-121724057D02*
X94837809Y-121819295D01*
X94837809Y-121819295D02*
X94837809Y-121914533D01*
X94837809Y-121914533D02*
X94790190Y-122057390D01*
X94790190Y-122057390D02*
X94218762Y-122628819D01*
X94218762Y-122628819D02*
X94837809Y-122628819D01*
X95409238Y-122057390D02*
X95314000Y-122009771D01*
X95314000Y-122009771D02*
X95266381Y-121962152D01*
X95266381Y-121962152D02*
X95218762Y-121866914D01*
X95218762Y-121866914D02*
X95218762Y-121819295D01*
X95218762Y-121819295D02*
X95266381Y-121724057D01*
X95266381Y-121724057D02*
X95314000Y-121676438D01*
X95314000Y-121676438D02*
X95409238Y-121628819D01*
X95409238Y-121628819D02*
X95599714Y-121628819D01*
X95599714Y-121628819D02*
X95694952Y-121676438D01*
X95694952Y-121676438D02*
X95742571Y-121724057D01*
X95742571Y-121724057D02*
X95790190Y-121819295D01*
X95790190Y-121819295D02*
X95790190Y-121866914D01*
X95790190Y-121866914D02*
X95742571Y-121962152D01*
X95742571Y-121962152D02*
X95694952Y-122009771D01*
X95694952Y-122009771D02*
X95599714Y-122057390D01*
X95599714Y-122057390D02*
X95409238Y-122057390D01*
X95409238Y-122057390D02*
X95314000Y-122105009D01*
X95314000Y-122105009D02*
X95266381Y-122152628D01*
X95266381Y-122152628D02*
X95218762Y-122247866D01*
X95218762Y-122247866D02*
X95218762Y-122438342D01*
X95218762Y-122438342D02*
X95266381Y-122533580D01*
X95266381Y-122533580D02*
X95314000Y-122581200D01*
X95314000Y-122581200D02*
X95409238Y-122628819D01*
X95409238Y-122628819D02*
X95599714Y-122628819D01*
X95599714Y-122628819D02*
X95694952Y-122581200D01*
X95694952Y-122581200D02*
X95742571Y-122533580D01*
X95742571Y-122533580D02*
X95790190Y-122438342D01*
X95790190Y-122438342D02*
X95790190Y-122247866D01*
X95790190Y-122247866D02*
X95742571Y-122152628D01*
X95742571Y-122152628D02*
X95694952Y-122105009D01*
X95694952Y-122105009D02*
X95599714Y-122057390D01*
X96218762Y-122628819D02*
X96218762Y-121628819D01*
X96218762Y-121628819D02*
X96599714Y-121628819D01*
X96599714Y-121628819D02*
X96694952Y-121676438D01*
X96694952Y-121676438D02*
X96742571Y-121724057D01*
X96742571Y-121724057D02*
X96790190Y-121819295D01*
X96790190Y-121819295D02*
X96790190Y-121962152D01*
X96790190Y-121962152D02*
X96742571Y-122057390D01*
X96742571Y-122057390D02*
X96694952Y-122105009D01*
X96694952Y-122105009D02*
X96599714Y-122152628D01*
X96599714Y-122152628D02*
X96218762Y-122152628D01*
X98456857Y-122628819D02*
X97980667Y-122628819D01*
X97980667Y-122628819D02*
X97980667Y-121628819D01*
X99456857Y-122724057D02*
X99361619Y-122676438D01*
X99361619Y-122676438D02*
X99266381Y-122581200D01*
X99266381Y-122581200D02*
X99123524Y-122438342D01*
X99123524Y-122438342D02*
X99028286Y-122390723D01*
X99028286Y-122390723D02*
X98933048Y-122390723D01*
X98980667Y-122628819D02*
X98885429Y-122581200D01*
X98885429Y-122581200D02*
X98790191Y-122485961D01*
X98790191Y-122485961D02*
X98742572Y-122295485D01*
X98742572Y-122295485D02*
X98742572Y-121962152D01*
X98742572Y-121962152D02*
X98790191Y-121771676D01*
X98790191Y-121771676D02*
X98885429Y-121676438D01*
X98885429Y-121676438D02*
X98980667Y-121628819D01*
X98980667Y-121628819D02*
X99171143Y-121628819D01*
X99171143Y-121628819D02*
X99266381Y-121676438D01*
X99266381Y-121676438D02*
X99361619Y-121771676D01*
X99361619Y-121771676D02*
X99409238Y-121962152D01*
X99409238Y-121962152D02*
X99409238Y-122295485D01*
X99409238Y-122295485D02*
X99361619Y-122485961D01*
X99361619Y-122485961D02*
X99266381Y-122581200D01*
X99266381Y-122581200D02*
X99171143Y-122628819D01*
X99171143Y-122628819D02*
X98980667Y-122628819D01*
X100171143Y-122105009D02*
X99837810Y-122105009D01*
X99837810Y-122628819D02*
X99837810Y-121628819D01*
X99837810Y-121628819D02*
X100314000Y-121628819D01*
X100694953Y-122628819D02*
X100694953Y-121628819D01*
X100694953Y-121628819D02*
X101075905Y-121628819D01*
X101075905Y-121628819D02*
X101171143Y-121676438D01*
X101171143Y-121676438D02*
X101218762Y-121724057D01*
X101218762Y-121724057D02*
X101266381Y-121819295D01*
X101266381Y-121819295D02*
X101266381Y-121962152D01*
X101266381Y-121962152D02*
X101218762Y-122057390D01*
X101218762Y-122057390D02*
X101171143Y-122105009D01*
X101171143Y-122105009D02*
X101075905Y-122152628D01*
X101075905Y-122152628D02*
X100694953Y-122152628D01*
X101599715Y-121628819D02*
X102218762Y-121628819D01*
X102218762Y-121628819D02*
X101885429Y-122009771D01*
X101885429Y-122009771D02*
X102028286Y-122009771D01*
X102028286Y-122009771D02*
X102123524Y-122057390D01*
X102123524Y-122057390D02*
X102171143Y-122105009D01*
X102171143Y-122105009D02*
X102218762Y-122200247D01*
X102218762Y-122200247D02*
X102218762Y-122438342D01*
X102218762Y-122438342D02*
X102171143Y-122533580D01*
X102171143Y-122533580D02*
X102123524Y-122581200D01*
X102123524Y-122581200D02*
X102028286Y-122628819D01*
X102028286Y-122628819D02*
X101742572Y-122628819D01*
X101742572Y-122628819D02*
X101647334Y-122581200D01*
X101647334Y-122581200D02*
X101599715Y-122533580D01*
X102599715Y-121724057D02*
X102647334Y-121676438D01*
X102647334Y-121676438D02*
X102742572Y-121628819D01*
X102742572Y-121628819D02*
X102980667Y-121628819D01*
X102980667Y-121628819D02*
X103075905Y-121676438D01*
X103075905Y-121676438D02*
X103123524Y-121724057D01*
X103123524Y-121724057D02*
X103171143Y-121819295D01*
X103171143Y-121819295D02*
X103171143Y-121914533D01*
X103171143Y-121914533D02*
X103123524Y-122057390D01*
X103123524Y-122057390D02*
X102552096Y-122628819D01*
X102552096Y-122628819D02*
X103171143Y-122628819D01*
X104361620Y-122628819D02*
X104361620Y-121628819D01*
X104361620Y-121628819D02*
X104694953Y-122343104D01*
X104694953Y-122343104D02*
X105028286Y-121628819D01*
X105028286Y-121628819D02*
X105028286Y-122628819D01*
X105504477Y-122628819D02*
X105504477Y-121962152D01*
X105504477Y-121628819D02*
X105456858Y-121676438D01*
X105456858Y-121676438D02*
X105504477Y-121724057D01*
X105504477Y-121724057D02*
X105552096Y-121676438D01*
X105552096Y-121676438D02*
X105504477Y-121628819D01*
X105504477Y-121628819D02*
X105504477Y-121724057D01*
X105980667Y-121962152D02*
X105980667Y-122628819D01*
X105980667Y-122057390D02*
X106028286Y-122009771D01*
X106028286Y-122009771D02*
X106123524Y-121962152D01*
X106123524Y-121962152D02*
X106266381Y-121962152D01*
X106266381Y-121962152D02*
X106361619Y-122009771D01*
X106361619Y-122009771D02*
X106409238Y-122105009D01*
X106409238Y-122105009D02*
X106409238Y-122628819D01*
X106885429Y-122628819D02*
X106885429Y-121962152D01*
X106885429Y-121628819D02*
X106837810Y-121676438D01*
X106837810Y-121676438D02*
X106885429Y-121724057D01*
X106885429Y-121724057D02*
X106933048Y-121676438D01*
X106933048Y-121676438D02*
X106885429Y-121628819D01*
X106885429Y-121628819D02*
X106885429Y-121724057D01*
X107361619Y-122105009D02*
X107694952Y-122105009D01*
X107837809Y-122628819D02*
X107361619Y-122628819D01*
X107361619Y-122628819D02*
X107361619Y-121628819D01*
X107361619Y-121628819D02*
X107837809Y-121628819D01*
X108123524Y-121628819D02*
X108456857Y-122628819D01*
X108456857Y-122628819D02*
X108790190Y-121628819D01*
X109456857Y-122105009D02*
X109599714Y-122152628D01*
X109599714Y-122152628D02*
X109647333Y-122200247D01*
X109647333Y-122200247D02*
X109694952Y-122295485D01*
X109694952Y-122295485D02*
X109694952Y-122438342D01*
X109694952Y-122438342D02*
X109647333Y-122533580D01*
X109647333Y-122533580D02*
X109599714Y-122581200D01*
X109599714Y-122581200D02*
X109504476Y-122628819D01*
X109504476Y-122628819D02*
X109123524Y-122628819D01*
X109123524Y-122628819D02*
X109123524Y-121628819D01*
X109123524Y-121628819D02*
X109456857Y-121628819D01*
X109456857Y-121628819D02*
X109552095Y-121676438D01*
X109552095Y-121676438D02*
X109599714Y-121724057D01*
X109599714Y-121724057D02*
X109647333Y-121819295D01*
X109647333Y-121819295D02*
X109647333Y-121914533D01*
X109647333Y-121914533D02*
X109599714Y-122009771D01*
X109599714Y-122009771D02*
X109552095Y-122057390D01*
X109552095Y-122057390D02*
X109456857Y-122105009D01*
X109456857Y-122105009D02*
X109123524Y-122105009D01*
X77108207Y-89531819D02*
X76774874Y-89055628D01*
X76536779Y-89531819D02*
X76536779Y-88531819D01*
X76536779Y-88531819D02*
X76917731Y-88531819D01*
X76917731Y-88531819D02*
X77012969Y-88579438D01*
X77012969Y-88579438D02*
X77060588Y-88627057D01*
X77060588Y-88627057D02*
X77108207Y-88722295D01*
X77108207Y-88722295D02*
X77108207Y-88865152D01*
X77108207Y-88865152D02*
X77060588Y-88960390D01*
X77060588Y-88960390D02*
X77012969Y-89008009D01*
X77012969Y-89008009D02*
X76917731Y-89055628D01*
X76917731Y-89055628D02*
X76536779Y-89055628D01*
X77489160Y-89484200D02*
X77632017Y-89531819D01*
X77632017Y-89531819D02*
X77870112Y-89531819D01*
X77870112Y-89531819D02*
X77965350Y-89484200D01*
X77965350Y-89484200D02*
X78012969Y-89436580D01*
X78012969Y-89436580D02*
X78060588Y-89341342D01*
X78060588Y-89341342D02*
X78060588Y-89246104D01*
X78060588Y-89246104D02*
X78012969Y-89150866D01*
X78012969Y-89150866D02*
X77965350Y-89103247D01*
X77965350Y-89103247D02*
X77870112Y-89055628D01*
X77870112Y-89055628D02*
X77679636Y-89008009D01*
X77679636Y-89008009D02*
X77584398Y-88960390D01*
X77584398Y-88960390D02*
X77536779Y-88912771D01*
X77536779Y-88912771D02*
X77489160Y-88817533D01*
X77489160Y-88817533D02*
X77489160Y-88722295D01*
X77489160Y-88722295D02*
X77536779Y-88627057D01*
X77536779Y-88627057D02*
X77584398Y-88579438D01*
X77584398Y-88579438D02*
X77679636Y-88531819D01*
X77679636Y-88531819D02*
X77917731Y-88531819D01*
X77917731Y-88531819D02*
X78060588Y-88579438D01*
X78346303Y-88531819D02*
X78917731Y-88531819D01*
X78632017Y-89531819D02*
X78632017Y-88531819D01*
D11*
X73544510Y-109740828D02*
X73544510Y-108240828D01*
X73544510Y-108955114D02*
X74401653Y-108955114D01*
X74401653Y-109740828D02*
X74401653Y-108240828D01*
X75687368Y-109669400D02*
X75544511Y-109740828D01*
X75544511Y-109740828D02*
X75258797Y-109740828D01*
X75258797Y-109740828D02*
X75115939Y-109669400D01*
X75115939Y-109669400D02*
X75044511Y-109526542D01*
X75044511Y-109526542D02*
X75044511Y-108955114D01*
X75044511Y-108955114D02*
X75115939Y-108812257D01*
X75115939Y-108812257D02*
X75258797Y-108740828D01*
X75258797Y-108740828D02*
X75544511Y-108740828D01*
X75544511Y-108740828D02*
X75687368Y-108812257D01*
X75687368Y-108812257D02*
X75758797Y-108955114D01*
X75758797Y-108955114D02*
X75758797Y-109097971D01*
X75758797Y-109097971D02*
X75044511Y-109240828D01*
X77044511Y-109740828D02*
X77044511Y-108955114D01*
X77044511Y-108955114D02*
X76973082Y-108812257D01*
X76973082Y-108812257D02*
X76830225Y-108740828D01*
X76830225Y-108740828D02*
X76544511Y-108740828D01*
X76544511Y-108740828D02*
X76401653Y-108812257D01*
X77044511Y-109669400D02*
X76901653Y-109740828D01*
X76901653Y-109740828D02*
X76544511Y-109740828D01*
X76544511Y-109740828D02*
X76401653Y-109669400D01*
X76401653Y-109669400D02*
X76330225Y-109526542D01*
X76330225Y-109526542D02*
X76330225Y-109383685D01*
X76330225Y-109383685D02*
X76401653Y-109240828D01*
X76401653Y-109240828D02*
X76544511Y-109169400D01*
X76544511Y-109169400D02*
X76901653Y-109169400D01*
X76901653Y-109169400D02*
X77044511Y-109097971D01*
X77758796Y-109740828D02*
X77758796Y-108740828D01*
X77758796Y-109026542D02*
X77830225Y-108883685D01*
X77830225Y-108883685D02*
X77901654Y-108812257D01*
X77901654Y-108812257D02*
X78044511Y-108740828D01*
X78044511Y-108740828D02*
X78187368Y-108740828D01*
X78473082Y-108740828D02*
X79044510Y-108740828D01*
X78687367Y-108240828D02*
X78687367Y-109526542D01*
X78687367Y-109526542D02*
X78758796Y-109669400D01*
X78758796Y-109669400D02*
X78901653Y-109740828D01*
X78901653Y-109740828D02*
X79044510Y-109740828D01*
X79544510Y-109740828D02*
X79544510Y-108240828D01*
X79544510Y-108812257D02*
X79687368Y-108740828D01*
X79687368Y-108740828D02*
X79973082Y-108740828D01*
X79973082Y-108740828D02*
X80115939Y-108812257D01*
X80115939Y-108812257D02*
X80187368Y-108883685D01*
X80187368Y-108883685D02*
X80258796Y-109026542D01*
X80258796Y-109026542D02*
X80258796Y-109455114D01*
X80258796Y-109455114D02*
X80187368Y-109597971D01*
X80187368Y-109597971D02*
X80115939Y-109669400D01*
X80115939Y-109669400D02*
X79973082Y-109740828D01*
X79973082Y-109740828D02*
X79687368Y-109740828D01*
X79687368Y-109740828D02*
X79544510Y-109669400D01*
X81473082Y-109669400D02*
X81330225Y-109740828D01*
X81330225Y-109740828D02*
X81044511Y-109740828D01*
X81044511Y-109740828D02*
X80901653Y-109669400D01*
X80901653Y-109669400D02*
X80830225Y-109526542D01*
X80830225Y-109526542D02*
X80830225Y-108955114D01*
X80830225Y-108955114D02*
X80901653Y-108812257D01*
X80901653Y-108812257D02*
X81044511Y-108740828D01*
X81044511Y-108740828D02*
X81330225Y-108740828D01*
X81330225Y-108740828D02*
X81473082Y-108812257D01*
X81473082Y-108812257D02*
X81544511Y-108955114D01*
X81544511Y-108955114D02*
X81544511Y-109097971D01*
X81544511Y-109097971D02*
X80830225Y-109240828D01*
X82830225Y-109740828D02*
X82830225Y-108955114D01*
X82830225Y-108955114D02*
X82758796Y-108812257D01*
X82758796Y-108812257D02*
X82615939Y-108740828D01*
X82615939Y-108740828D02*
X82330225Y-108740828D01*
X82330225Y-108740828D02*
X82187367Y-108812257D01*
X82830225Y-109669400D02*
X82687367Y-109740828D01*
X82687367Y-109740828D02*
X82330225Y-109740828D01*
X82330225Y-109740828D02*
X82187367Y-109669400D01*
X82187367Y-109669400D02*
X82115939Y-109526542D01*
X82115939Y-109526542D02*
X82115939Y-109383685D01*
X82115939Y-109383685D02*
X82187367Y-109240828D01*
X82187367Y-109240828D02*
X82330225Y-109169400D01*
X82330225Y-109169400D02*
X82687367Y-109169400D01*
X82687367Y-109169400D02*
X82830225Y-109097971D01*
X83330225Y-108740828D02*
X83901653Y-108740828D01*
X83544510Y-108240828D02*
X83544510Y-109526542D01*
X83544510Y-109526542D02*
X83615939Y-109669400D01*
X83615939Y-109669400D02*
X83758796Y-109740828D01*
X83758796Y-109740828D02*
X83901653Y-109740828D01*
D14*
X79967996Y-97136428D02*
X79634663Y-96422142D01*
X79396568Y-97136428D02*
X79396568Y-95636428D01*
X79396568Y-95636428D02*
X79777520Y-95636428D01*
X79777520Y-95636428D02*
X79872758Y-95707857D01*
X79872758Y-95707857D02*
X79920377Y-95779285D01*
X79920377Y-95779285D02*
X79967996Y-95922142D01*
X79967996Y-95922142D02*
X79967996Y-96136428D01*
X79967996Y-96136428D02*
X79920377Y-96279285D01*
X79920377Y-96279285D02*
X79872758Y-96350714D01*
X79872758Y-96350714D02*
X79777520Y-96422142D01*
X79777520Y-96422142D02*
X79396568Y-96422142D01*
X80920377Y-97136428D02*
X80348949Y-97136428D01*
X80634663Y-97136428D02*
X80634663Y-95636428D01*
X80634663Y-95636428D02*
X80539425Y-95850714D01*
X80539425Y-95850714D02*
X80444187Y-95993571D01*
X80444187Y-95993571D02*
X80348949Y-96065000D01*
X81348949Y-96993571D02*
X81396568Y-97065000D01*
X81396568Y-97065000D02*
X81348949Y-97136428D01*
X81348949Y-97136428D02*
X81301330Y-97065000D01*
X81301330Y-97065000D02*
X81348949Y-96993571D01*
X81348949Y-96993571D02*
X81348949Y-97136428D01*
X81348949Y-96207857D02*
X81396568Y-96279285D01*
X81396568Y-96279285D02*
X81348949Y-96350714D01*
X81348949Y-96350714D02*
X81301330Y-96279285D01*
X81301330Y-96279285D02*
X81348949Y-96207857D01*
X81348949Y-96207857D02*
X81348949Y-96350714D01*
X81729901Y-95636428D02*
X82348948Y-95636428D01*
X82348948Y-95636428D02*
X82015615Y-96207857D01*
X82015615Y-96207857D02*
X82158472Y-96207857D01*
X82158472Y-96207857D02*
X82253710Y-96279285D01*
X82253710Y-96279285D02*
X82301329Y-96350714D01*
X82301329Y-96350714D02*
X82348948Y-96493571D01*
X82348948Y-96493571D02*
X82348948Y-96850714D01*
X82348948Y-96850714D02*
X82301329Y-96993571D01*
X82301329Y-96993571D02*
X82253710Y-97065000D01*
X82253710Y-97065000D02*
X82158472Y-97136428D01*
X82158472Y-97136428D02*
X81872758Y-97136428D01*
X81872758Y-97136428D02*
X81777520Y-97065000D01*
X81777520Y-97065000D02*
X81729901Y-96993571D01*
D13*
X100321904Y-81825180D02*
X100321904Y-81015657D01*
X100321904Y-81015657D02*
X100274285Y-80920419D01*
X100274285Y-80920419D02*
X100226666Y-80872800D01*
X100226666Y-80872800D02*
X100131428Y-80825180D01*
X100131428Y-80825180D02*
X99940952Y-80825180D01*
X99940952Y-80825180D02*
X99845714Y-80872800D01*
X99845714Y-80872800D02*
X99798095Y-80920419D01*
X99798095Y-80920419D02*
X99750476Y-81015657D01*
X99750476Y-81015657D02*
X99750476Y-81825180D01*
X99321904Y-80872800D02*
X99179047Y-80825180D01*
X99179047Y-80825180D02*
X98940952Y-80825180D01*
X98940952Y-80825180D02*
X98845714Y-80872800D01*
X98845714Y-80872800D02*
X98798095Y-80920419D01*
X98798095Y-80920419D02*
X98750476Y-81015657D01*
X98750476Y-81015657D02*
X98750476Y-81110895D01*
X98750476Y-81110895D02*
X98798095Y-81206133D01*
X98798095Y-81206133D02*
X98845714Y-81253752D01*
X98845714Y-81253752D02*
X98940952Y-81301371D01*
X98940952Y-81301371D02*
X99131428Y-81348990D01*
X99131428Y-81348990D02*
X99226666Y-81396609D01*
X99226666Y-81396609D02*
X99274285Y-81444228D01*
X99274285Y-81444228D02*
X99321904Y-81539466D01*
X99321904Y-81539466D02*
X99321904Y-81634704D01*
X99321904Y-81634704D02*
X99274285Y-81729942D01*
X99274285Y-81729942D02*
X99226666Y-81777561D01*
X99226666Y-81777561D02*
X99131428Y-81825180D01*
X99131428Y-81825180D02*
X98893333Y-81825180D01*
X98893333Y-81825180D02*
X98750476Y-81777561D01*
X97988571Y-81348990D02*
X97845714Y-81301371D01*
X97845714Y-81301371D02*
X97798095Y-81253752D01*
X97798095Y-81253752D02*
X97750476Y-81158514D01*
X97750476Y-81158514D02*
X97750476Y-81015657D01*
X97750476Y-81015657D02*
X97798095Y-80920419D01*
X97798095Y-80920419D02*
X97845714Y-80872800D01*
X97845714Y-80872800D02*
X97940952Y-80825180D01*
X97940952Y-80825180D02*
X98321904Y-80825180D01*
X98321904Y-80825180D02*
X98321904Y-81825180D01*
X98321904Y-81825180D02*
X97988571Y-81825180D01*
X97988571Y-81825180D02*
X97893333Y-81777561D01*
X97893333Y-81777561D02*
X97845714Y-81729942D01*
X97845714Y-81729942D02*
X97798095Y-81634704D01*
X97798095Y-81634704D02*
X97798095Y-81539466D01*
X97798095Y-81539466D02*
X97845714Y-81444228D01*
X97845714Y-81444228D02*
X97893333Y-81396609D01*
X97893333Y-81396609D02*
X97988571Y-81348990D01*
X97988571Y-81348990D02*
X98321904Y-81348990D01*
D15*
%TO.C,REF\u002A\u002A*%
X80204000Y-80077000D02*
X81534000Y-80077000D01*
X80204000Y-81407000D02*
X80204000Y-80077000D01*
X80204000Y-82677000D02*
X80204000Y-92897000D01*
X80204000Y-82677000D02*
X82864000Y-82677000D01*
X80204000Y-92897000D02*
X82864000Y-92897000D01*
X82864000Y-82677000D02*
X82864000Y-92897000D01*
X86309564Y-113675000D02*
X85855436Y-113675000D01*
X86309564Y-112205000D02*
X85855436Y-112205000D01*
X81026564Y-100125200D02*
X80572436Y-100125200D01*
X81026564Y-98655200D02*
X80572436Y-98655200D01*
X81026564Y-104494000D02*
X80572436Y-104494000D01*
X81026564Y-103024000D02*
X80572436Y-103024000D01*
%TO.C,LGT8F328P LQFP32 MiniEVB*%
X90040000Y-77340000D02*
X90040000Y-120780000D01*
X90040000Y-77340000D02*
X95120000Y-77340000D01*
X90040000Y-120780000D02*
X108080000Y-120780000D01*
X92710000Y-80010000D02*
X90040000Y-80010000D01*
X92710000Y-118110000D02*
X90040000Y-118110000D01*
X92710000Y-118110000D02*
X92710000Y-80010000D01*
X95120000Y-74800000D02*
X103000000Y-74800000D01*
X95120000Y-85220000D02*
X95120000Y-74800000D01*
X103000000Y-74800000D02*
X103000000Y-85220000D01*
X103000000Y-85220000D02*
X95120000Y-85220000D01*
X105410000Y-80010000D02*
X108080000Y-80010000D01*
X105410000Y-115570000D02*
X105410000Y-80010000D01*
X105410000Y-115570000D02*
X105410000Y-118110000D01*
X105410000Y-115570000D02*
X108080000Y-115570000D01*
X105410000Y-118110000D02*
X108080000Y-118110000D01*
X108080000Y-77340000D02*
X103000000Y-77340000D01*
X108080000Y-115570000D02*
X108080000Y-77340000D01*
X108080000Y-120780000D02*
X108080000Y-118110000D01*
%TO.C,REF\u002A\u002A*%
X86309564Y-117575000D02*
X85855436Y-117575000D01*
X86309564Y-116105000D02*
X85855436Y-116105000D01*
X81026564Y-102309600D02*
X80572436Y-102309600D01*
X81026564Y-100839600D02*
X80572436Y-100839600D01*
X86309564Y-109775000D02*
X85855436Y-109775000D01*
X86309564Y-108305000D02*
X85855436Y-108305000D01*
%TD*%
M02*
