%TF.GenerationSoftware,KiCad,Pcbnew,7.0.11+dfsg-1build4*%
%TF.CreationDate,2024-05-09T18:47:19+10:00*%
%TF.ProjectId,NoBootLoadFlasher,4e6f426f-6f74-44c6-9f61-64466c617368,rev?*%
%TF.SameCoordinates,Original*%
%TF.FileFunction,Drillmap*%
%TF.FilePolarity,Positive*%
%FSLAX45Y45*%
G04 Gerber Fmt 4.5, Leading zero omitted, Abs format (unit mm)*
G04 Created by KiCad (PCBNEW 7.0.11+dfsg-1build4) date 2024-05-09 18:47:19*
%MOMM*%
%LPD*%
G01*
G04 APERTURE LIST*
%ADD10C,0.050000*%
%ADD11C,0.200000*%
%ADD12C,0.100000*%
G04 APERTURE END LIST*
D10*
X7620000Y-7112000D02*
X11176000Y-7112000D01*
X7112000Y-12700000D02*
X7112000Y-7112000D01*
X7112000Y-7112000D02*
X7620000Y-7112000D01*
X11176000Y-7112000D02*
X11176000Y-12700000D01*
X11176000Y-12700000D02*
X7112000Y-12700000D01*
D11*
D12*
X7859000Y-9929100D02*
X7889000Y-9959100D01*
X7889000Y-9929100D02*
X7859000Y-9959100D01*
X7859000Y-10145000D02*
X7889000Y-10175000D01*
X7889000Y-10145000D02*
X7859000Y-10175000D01*
X7859000Y-10360900D02*
X7889000Y-10390900D01*
X7889000Y-10360900D02*
X7859000Y-10390900D01*
X8455900Y-8417800D02*
X8485900Y-8447800D01*
X8485900Y-8417800D02*
X8455900Y-8447800D01*
X8455900Y-8633700D02*
X8485900Y-8663700D01*
X8485900Y-8633700D02*
X8455900Y-8663700D01*
X8506700Y-11021300D02*
X8536700Y-11051300D01*
X8536700Y-11021300D02*
X8506700Y-11051300D01*
X8506700Y-11148300D02*
X8536700Y-11178300D01*
X8536700Y-11148300D02*
X8506700Y-11178300D01*
X8506700Y-11453100D02*
X8536700Y-11483100D01*
X8536700Y-11453100D02*
X8506700Y-11483100D01*
X8697200Y-11453100D02*
X8727200Y-11483100D01*
X8727200Y-11453100D02*
X8697200Y-11483100D01*
X8875000Y-10856200D02*
X8905000Y-10886200D01*
X8905000Y-10856200D02*
X8875000Y-10886200D01*
X8875000Y-11097500D02*
X8905000Y-11127500D01*
X8905000Y-11097500D02*
X8875000Y-11127500D01*
X8887700Y-8417800D02*
X8917700Y-8447800D01*
X8917700Y-8417800D02*
X8887700Y-8447800D01*
X8887700Y-8633700D02*
X8917700Y-8663700D01*
X8917700Y-8633700D02*
X8887700Y-8663700D01*
X9510000Y-8976600D02*
X9540000Y-9006600D01*
X9540000Y-8976600D02*
X9510000Y-9006600D01*
X9510000Y-9167100D02*
X9540000Y-9197100D01*
X9540000Y-9167100D02*
X9510000Y-9197100D01*
X9510000Y-9370300D02*
X9540000Y-9400300D01*
X9540000Y-9370300D02*
X9510000Y-9400300D01*
X9510000Y-9560800D02*
X9540000Y-9590800D01*
X9540000Y-9560800D02*
X9510000Y-9590800D01*
X9891000Y-8252700D02*
X9921000Y-8282700D01*
X9921000Y-8252700D02*
X9891000Y-8282700D01*
X9891000Y-8443200D02*
X9921000Y-8473200D01*
X9921000Y-8443200D02*
X9891000Y-8473200D01*
X9891000Y-8786100D02*
X9921000Y-8816100D01*
X9921000Y-8786100D02*
X9891000Y-8816100D01*
X9891000Y-8976600D02*
X9921000Y-9006600D01*
X9921000Y-8976600D02*
X9891000Y-9006600D01*
X9891000Y-9179800D02*
X9921000Y-9209800D01*
X9921000Y-9179800D02*
X9891000Y-9209800D01*
X9891000Y-9370300D02*
X9921000Y-9400300D01*
X9921000Y-9370300D02*
X9891000Y-9400300D01*
X9891000Y-10119600D02*
X9921000Y-10149600D01*
X9921000Y-10119600D02*
X9891000Y-10149600D01*
X9892000Y-9764000D02*
X9922000Y-9794000D01*
X9922000Y-9764000D02*
X9892000Y-9794000D01*
X10360900Y-8252700D02*
X10390900Y-8282700D01*
X10390900Y-8252700D02*
X10360900Y-8282700D01*
X10360900Y-8443200D02*
X10390900Y-8473200D01*
X10390900Y-8443200D02*
X10360900Y-8473200D01*
X10360900Y-8786100D02*
X10390900Y-8816100D01*
X10390900Y-8786100D02*
X10360900Y-8816100D01*
X10360900Y-8976600D02*
X10390900Y-9006600D01*
X10390900Y-8976600D02*
X10360900Y-9006600D01*
X10360900Y-9281400D02*
X10390900Y-9311400D01*
X10390900Y-9281400D02*
X10360900Y-9311400D01*
X10360900Y-9764000D02*
X10390900Y-9794000D01*
X10390900Y-9764000D02*
X10360900Y-9794000D01*
X8203400Y-8140700D02*
G75*
G03*
X8103400Y-8140700I-50000J0D01*
G01*
X8103400Y-8140700D02*
G75*
G03*
X8203400Y-8140700I50000J0D01*
G01*
X8203400Y-8394700D02*
G75*
G03*
X8103400Y-8394700I-50000J0D01*
G01*
X8103400Y-8394700D02*
G75*
G03*
X8203400Y-8394700I50000J0D01*
G01*
X8203400Y-8648700D02*
G75*
G03*
X8103400Y-8648700I-50000J0D01*
G01*
X8103400Y-8648700D02*
G75*
G03*
X8203400Y-8648700I50000J0D01*
G01*
X8203400Y-8902700D02*
G75*
G03*
X8103400Y-8902700I-50000J0D01*
G01*
X8103400Y-8902700D02*
G75*
G03*
X8203400Y-8902700I50000J0D01*
G01*
X8203400Y-9156700D02*
G75*
G03*
X8103400Y-9156700I-50000J0D01*
G01*
X8103400Y-9156700D02*
G75*
G03*
X8203400Y-9156700I50000J0D01*
G01*
X9194000Y-8128000D02*
G75*
G03*
X9094000Y-8128000I-50000J0D01*
G01*
X9094000Y-8128000D02*
G75*
G03*
X9194000Y-8128000I50000J0D01*
G01*
X9194000Y-8382000D02*
G75*
G03*
X9094000Y-8382000I-50000J0D01*
G01*
X9094000Y-8382000D02*
G75*
G03*
X9194000Y-8382000I50000J0D01*
G01*
X9194000Y-8636000D02*
G75*
G03*
X9094000Y-8636000I-50000J0D01*
G01*
X9094000Y-8636000D02*
G75*
G03*
X9194000Y-8636000I50000J0D01*
G01*
X9194000Y-8890000D02*
G75*
G03*
X9094000Y-8890000I-50000J0D01*
G01*
X9094000Y-8890000D02*
G75*
G03*
X9194000Y-8890000I50000J0D01*
G01*
X9194000Y-9144000D02*
G75*
G03*
X9094000Y-9144000I-50000J0D01*
G01*
X9094000Y-9144000D02*
G75*
G03*
X9194000Y-9144000I50000J0D01*
G01*
X9194000Y-9398000D02*
G75*
G03*
X9094000Y-9398000I-50000J0D01*
G01*
X9094000Y-9398000D02*
G75*
G03*
X9194000Y-9398000I50000J0D01*
G01*
X9194000Y-9652000D02*
G75*
G03*
X9094000Y-9652000I-50000J0D01*
G01*
X9094000Y-9652000D02*
G75*
G03*
X9194000Y-9652000I50000J0D01*
G01*
X9194000Y-9906000D02*
G75*
G03*
X9094000Y-9906000I-50000J0D01*
G01*
X9094000Y-9906000D02*
G75*
G03*
X9194000Y-9906000I50000J0D01*
G01*
X9194000Y-10160000D02*
G75*
G03*
X9094000Y-10160000I-50000J0D01*
G01*
X9094000Y-10160000D02*
G75*
G03*
X9194000Y-10160000I50000J0D01*
G01*
X9194000Y-10414000D02*
G75*
G03*
X9094000Y-10414000I-50000J0D01*
G01*
X9094000Y-10414000D02*
G75*
G03*
X9194000Y-10414000I50000J0D01*
G01*
X9194000Y-10668000D02*
G75*
G03*
X9094000Y-10668000I-50000J0D01*
G01*
X9094000Y-10668000D02*
G75*
G03*
X9194000Y-10668000I50000J0D01*
G01*
X9194000Y-10922000D02*
G75*
G03*
X9094000Y-10922000I-50000J0D01*
G01*
X9094000Y-10922000D02*
G75*
G03*
X9194000Y-10922000I50000J0D01*
G01*
X9194000Y-11176000D02*
G75*
G03*
X9094000Y-11176000I-50000J0D01*
G01*
X9094000Y-11176000D02*
G75*
G03*
X9194000Y-11176000I50000J0D01*
G01*
X9194000Y-11430000D02*
G75*
G03*
X9094000Y-11430000I-50000J0D01*
G01*
X9094000Y-11430000D02*
G75*
G03*
X9194000Y-11430000I50000J0D01*
G01*
X9194000Y-11684000D02*
G75*
G03*
X9094000Y-11684000I-50000J0D01*
G01*
X9094000Y-11684000D02*
G75*
G03*
X9194000Y-11684000I50000J0D01*
G01*
X10718000Y-8128000D02*
G75*
G03*
X10618000Y-8128000I-50000J0D01*
G01*
X10618000Y-8128000D02*
G75*
G03*
X10718000Y-8128000I50000J0D01*
G01*
X10718000Y-8382000D02*
G75*
G03*
X10618000Y-8382000I-50000J0D01*
G01*
X10618000Y-8382000D02*
G75*
G03*
X10718000Y-8382000I50000J0D01*
G01*
X10718000Y-8636000D02*
G75*
G03*
X10618000Y-8636000I-50000J0D01*
G01*
X10618000Y-8636000D02*
G75*
G03*
X10718000Y-8636000I50000J0D01*
G01*
X10718000Y-8890000D02*
G75*
G03*
X10618000Y-8890000I-50000J0D01*
G01*
X10618000Y-8890000D02*
G75*
G03*
X10718000Y-8890000I50000J0D01*
G01*
X10718000Y-9144000D02*
G75*
G03*
X10618000Y-9144000I-50000J0D01*
G01*
X10618000Y-9144000D02*
G75*
G03*
X10718000Y-9144000I50000J0D01*
G01*
X10718000Y-9398000D02*
G75*
G03*
X10618000Y-9398000I-50000J0D01*
G01*
X10618000Y-9398000D02*
G75*
G03*
X10718000Y-9398000I50000J0D01*
G01*
X10718000Y-9652000D02*
G75*
G03*
X10618000Y-9652000I-50000J0D01*
G01*
X10618000Y-9652000D02*
G75*
G03*
X10718000Y-9652000I50000J0D01*
G01*
X10718000Y-9906000D02*
G75*
G03*
X10618000Y-9906000I-50000J0D01*
G01*
X10618000Y-9906000D02*
G75*
G03*
X10718000Y-9906000I50000J0D01*
G01*
X10718000Y-10160000D02*
G75*
G03*
X10618000Y-10160000I-50000J0D01*
G01*
X10618000Y-10160000D02*
G75*
G03*
X10718000Y-10160000I50000J0D01*
G01*
X10718000Y-10414000D02*
G75*
G03*
X10618000Y-10414000I-50000J0D01*
G01*
X10618000Y-10414000D02*
G75*
G03*
X10718000Y-10414000I50000J0D01*
G01*
X10718000Y-10668000D02*
G75*
G03*
X10618000Y-10668000I-50000J0D01*
G01*
X10618000Y-10668000D02*
G75*
G03*
X10718000Y-10668000I50000J0D01*
G01*
X10718000Y-10922000D02*
G75*
G03*
X10618000Y-10922000I-50000J0D01*
G01*
X10618000Y-10922000D02*
G75*
G03*
X10718000Y-10922000I50000J0D01*
G01*
X10718000Y-11176000D02*
G75*
G03*
X10618000Y-11176000I-50000J0D01*
G01*
X10618000Y-11176000D02*
G75*
G03*
X10718000Y-11176000I50000J0D01*
G01*
X10718000Y-11430000D02*
G75*
G03*
X10618000Y-11430000I-50000J0D01*
G01*
X10618000Y-11430000D02*
G75*
G03*
X10718000Y-11430000I50000J0D01*
G01*
X10718000Y-11684000D02*
G75*
G03*
X10618000Y-11684000I-50000J0D01*
G01*
X10618000Y-11684000D02*
G75*
G03*
X10718000Y-11684000I50000J0D01*
G01*
D11*
X7370277Y-13013984D02*
X7370277Y-12813984D01*
X7370277Y-12813984D02*
X7417896Y-12813984D01*
X7417896Y-12813984D02*
X7446467Y-12823508D01*
X7446467Y-12823508D02*
X7465515Y-12842555D01*
X7465515Y-12842555D02*
X7475039Y-12861603D01*
X7475039Y-12861603D02*
X7484562Y-12899698D01*
X7484562Y-12899698D02*
X7484562Y-12928269D01*
X7484562Y-12928269D02*
X7475039Y-12966365D01*
X7475039Y-12966365D02*
X7465515Y-12985412D01*
X7465515Y-12985412D02*
X7446467Y-13004460D01*
X7446467Y-13004460D02*
X7417896Y-13013984D01*
X7417896Y-13013984D02*
X7370277Y-13013984D01*
X7570277Y-13013984D02*
X7570277Y-12880650D01*
X7570277Y-12918746D02*
X7579801Y-12899698D01*
X7579801Y-12899698D02*
X7589324Y-12890174D01*
X7589324Y-12890174D02*
X7608372Y-12880650D01*
X7608372Y-12880650D02*
X7627420Y-12880650D01*
X7694086Y-13013984D02*
X7694086Y-12880650D01*
X7694086Y-12813984D02*
X7684562Y-12823508D01*
X7684562Y-12823508D02*
X7694086Y-12833031D01*
X7694086Y-12833031D02*
X7703610Y-12823508D01*
X7703610Y-12823508D02*
X7694086Y-12813984D01*
X7694086Y-12813984D02*
X7694086Y-12833031D01*
X7817896Y-13013984D02*
X7798848Y-13004460D01*
X7798848Y-13004460D02*
X7789324Y-12985412D01*
X7789324Y-12985412D02*
X7789324Y-12813984D01*
X7922658Y-13013984D02*
X7903610Y-13004460D01*
X7903610Y-13004460D02*
X7894086Y-12985412D01*
X7894086Y-12985412D02*
X7894086Y-12813984D01*
X8151229Y-13013984D02*
X8151229Y-12813984D01*
X8151229Y-12813984D02*
X8217896Y-12956841D01*
X8217896Y-12956841D02*
X8284562Y-12813984D01*
X8284562Y-12813984D02*
X8284562Y-13013984D01*
X8465515Y-13013984D02*
X8465515Y-12909222D01*
X8465515Y-12909222D02*
X8455991Y-12890174D01*
X8455991Y-12890174D02*
X8436944Y-12880650D01*
X8436944Y-12880650D02*
X8398848Y-12880650D01*
X8398848Y-12880650D02*
X8379801Y-12890174D01*
X8465515Y-13004460D02*
X8446467Y-13013984D01*
X8446467Y-13013984D02*
X8398848Y-13013984D01*
X8398848Y-13013984D02*
X8379801Y-13004460D01*
X8379801Y-13004460D02*
X8370277Y-12985412D01*
X8370277Y-12985412D02*
X8370277Y-12966365D01*
X8370277Y-12966365D02*
X8379801Y-12947317D01*
X8379801Y-12947317D02*
X8398848Y-12937793D01*
X8398848Y-12937793D02*
X8446467Y-12937793D01*
X8446467Y-12937793D02*
X8465515Y-12928269D01*
X8560753Y-12880650D02*
X8560753Y-13080650D01*
X8560753Y-12890174D02*
X8579801Y-12880650D01*
X8579801Y-12880650D02*
X8617896Y-12880650D01*
X8617896Y-12880650D02*
X8636944Y-12890174D01*
X8636944Y-12890174D02*
X8646467Y-12899698D01*
X8646467Y-12899698D02*
X8655991Y-12918746D01*
X8655991Y-12918746D02*
X8655991Y-12975888D01*
X8655991Y-12975888D02*
X8646467Y-12994936D01*
X8646467Y-12994936D02*
X8636944Y-13004460D01*
X8636944Y-13004460D02*
X8617896Y-13013984D01*
X8617896Y-13013984D02*
X8579801Y-13013984D01*
X8579801Y-13013984D02*
X8560753Y-13004460D01*
X8741705Y-12994936D02*
X8751229Y-13004460D01*
X8751229Y-13004460D02*
X8741705Y-13013984D01*
X8741705Y-13013984D02*
X8732182Y-13004460D01*
X8732182Y-13004460D02*
X8741705Y-12994936D01*
X8741705Y-12994936D02*
X8741705Y-13013984D01*
X8741705Y-12890174D02*
X8751229Y-12899698D01*
X8751229Y-12899698D02*
X8741705Y-12909222D01*
X8741705Y-12909222D02*
X8732182Y-12899698D01*
X8732182Y-12899698D02*
X8741705Y-12890174D01*
X8741705Y-12890174D02*
X8741705Y-12909222D01*
D12*
X7079500Y-13327500D02*
X7109500Y-13357500D01*
X7109500Y-13327500D02*
X7079500Y-13357500D01*
D11*
X7408372Y-13233984D02*
X7427420Y-13233984D01*
X7427420Y-13233984D02*
X7446467Y-13243508D01*
X7446467Y-13243508D02*
X7455991Y-13253031D01*
X7455991Y-13253031D02*
X7465515Y-13272079D01*
X7465515Y-13272079D02*
X7475039Y-13310174D01*
X7475039Y-13310174D02*
X7475039Y-13357793D01*
X7475039Y-13357793D02*
X7465515Y-13395888D01*
X7465515Y-13395888D02*
X7455991Y-13414936D01*
X7455991Y-13414936D02*
X7446467Y-13424460D01*
X7446467Y-13424460D02*
X7427420Y-13433984D01*
X7427420Y-13433984D02*
X7408372Y-13433984D01*
X7408372Y-13433984D02*
X7389324Y-13424460D01*
X7389324Y-13424460D02*
X7379801Y-13414936D01*
X7379801Y-13414936D02*
X7370277Y-13395888D01*
X7370277Y-13395888D02*
X7360753Y-13357793D01*
X7360753Y-13357793D02*
X7360753Y-13310174D01*
X7360753Y-13310174D02*
X7370277Y-13272079D01*
X7370277Y-13272079D02*
X7379801Y-13253031D01*
X7379801Y-13253031D02*
X7389324Y-13243508D01*
X7389324Y-13243508D02*
X7408372Y-13233984D01*
X7560753Y-13414936D02*
X7570277Y-13424460D01*
X7570277Y-13424460D02*
X7560753Y-13433984D01*
X7560753Y-13433984D02*
X7551229Y-13424460D01*
X7551229Y-13424460D02*
X7560753Y-13414936D01*
X7560753Y-13414936D02*
X7560753Y-13433984D01*
X7636943Y-13233984D02*
X7760753Y-13233984D01*
X7760753Y-13233984D02*
X7694086Y-13310174D01*
X7694086Y-13310174D02*
X7722658Y-13310174D01*
X7722658Y-13310174D02*
X7741705Y-13319698D01*
X7741705Y-13319698D02*
X7751229Y-13329222D01*
X7751229Y-13329222D02*
X7760753Y-13348269D01*
X7760753Y-13348269D02*
X7760753Y-13395888D01*
X7760753Y-13395888D02*
X7751229Y-13414936D01*
X7751229Y-13414936D02*
X7741705Y-13424460D01*
X7741705Y-13424460D02*
X7722658Y-13433984D01*
X7722658Y-13433984D02*
X7665515Y-13433984D01*
X7665515Y-13433984D02*
X7646467Y-13424460D01*
X7646467Y-13424460D02*
X7636943Y-13414936D01*
X7884562Y-13233984D02*
X7903610Y-13233984D01*
X7903610Y-13233984D02*
X7922658Y-13243508D01*
X7922658Y-13243508D02*
X7932182Y-13253031D01*
X7932182Y-13253031D02*
X7941705Y-13272079D01*
X7941705Y-13272079D02*
X7951229Y-13310174D01*
X7951229Y-13310174D02*
X7951229Y-13357793D01*
X7951229Y-13357793D02*
X7941705Y-13395888D01*
X7941705Y-13395888D02*
X7932182Y-13414936D01*
X7932182Y-13414936D02*
X7922658Y-13424460D01*
X7922658Y-13424460D02*
X7903610Y-13433984D01*
X7903610Y-13433984D02*
X7884562Y-13433984D01*
X7884562Y-13433984D02*
X7865515Y-13424460D01*
X7865515Y-13424460D02*
X7855991Y-13414936D01*
X7855991Y-13414936D02*
X7846467Y-13395888D01*
X7846467Y-13395888D02*
X7836943Y-13357793D01*
X7836943Y-13357793D02*
X7836943Y-13310174D01*
X7836943Y-13310174D02*
X7846467Y-13272079D01*
X7846467Y-13272079D02*
X7855991Y-13253031D01*
X7855991Y-13253031D02*
X7865515Y-13243508D01*
X7865515Y-13243508D02*
X7884562Y-13233984D01*
X8075039Y-13233984D02*
X8094086Y-13233984D01*
X8094086Y-13233984D02*
X8113134Y-13243508D01*
X8113134Y-13243508D02*
X8122658Y-13253031D01*
X8122658Y-13253031D02*
X8132182Y-13272079D01*
X8132182Y-13272079D02*
X8141705Y-13310174D01*
X8141705Y-13310174D02*
X8141705Y-13357793D01*
X8141705Y-13357793D02*
X8132182Y-13395888D01*
X8132182Y-13395888D02*
X8122658Y-13414936D01*
X8122658Y-13414936D02*
X8113134Y-13424460D01*
X8113134Y-13424460D02*
X8094086Y-13433984D01*
X8094086Y-13433984D02*
X8075039Y-13433984D01*
X8075039Y-13433984D02*
X8055991Y-13424460D01*
X8055991Y-13424460D02*
X8046467Y-13414936D01*
X8046467Y-13414936D02*
X8036943Y-13395888D01*
X8036943Y-13395888D02*
X8027420Y-13357793D01*
X8027420Y-13357793D02*
X8027420Y-13310174D01*
X8027420Y-13310174D02*
X8036943Y-13272079D01*
X8036943Y-13272079D02*
X8046467Y-13253031D01*
X8046467Y-13253031D02*
X8055991Y-13243508D01*
X8055991Y-13243508D02*
X8075039Y-13233984D01*
X8227420Y-13433984D02*
X8227420Y-13300650D01*
X8227420Y-13319698D02*
X8236943Y-13310174D01*
X8236943Y-13310174D02*
X8255991Y-13300650D01*
X8255991Y-13300650D02*
X8284563Y-13300650D01*
X8284563Y-13300650D02*
X8303610Y-13310174D01*
X8303610Y-13310174D02*
X8313134Y-13329222D01*
X8313134Y-13329222D02*
X8313134Y-13433984D01*
X8313134Y-13329222D02*
X8322658Y-13310174D01*
X8322658Y-13310174D02*
X8341705Y-13300650D01*
X8341705Y-13300650D02*
X8370277Y-13300650D01*
X8370277Y-13300650D02*
X8389325Y-13310174D01*
X8389325Y-13310174D02*
X8398848Y-13329222D01*
X8398848Y-13329222D02*
X8398848Y-13433984D01*
X8494086Y-13433984D02*
X8494086Y-13300650D01*
X8494086Y-13319698D02*
X8503610Y-13310174D01*
X8503610Y-13310174D02*
X8522658Y-13300650D01*
X8522658Y-13300650D02*
X8551229Y-13300650D01*
X8551229Y-13300650D02*
X8570277Y-13310174D01*
X8570277Y-13310174D02*
X8579801Y-13329222D01*
X8579801Y-13329222D02*
X8579801Y-13433984D01*
X8579801Y-13329222D02*
X8589325Y-13310174D01*
X8589325Y-13310174D02*
X8608372Y-13300650D01*
X8608372Y-13300650D02*
X8636944Y-13300650D01*
X8636944Y-13300650D02*
X8655991Y-13310174D01*
X8655991Y-13310174D02*
X8665515Y-13329222D01*
X8665515Y-13329222D02*
X8665515Y-13433984D01*
X9055991Y-13224460D02*
X8884563Y-13481603D01*
X9313134Y-13233984D02*
X9332182Y-13233984D01*
X9332182Y-13233984D02*
X9351229Y-13243508D01*
X9351229Y-13243508D02*
X9360753Y-13253031D01*
X9360753Y-13253031D02*
X9370277Y-13272079D01*
X9370277Y-13272079D02*
X9379801Y-13310174D01*
X9379801Y-13310174D02*
X9379801Y-13357793D01*
X9379801Y-13357793D02*
X9370277Y-13395888D01*
X9370277Y-13395888D02*
X9360753Y-13414936D01*
X9360753Y-13414936D02*
X9351229Y-13424460D01*
X9351229Y-13424460D02*
X9332182Y-13433984D01*
X9332182Y-13433984D02*
X9313134Y-13433984D01*
X9313134Y-13433984D02*
X9294087Y-13424460D01*
X9294087Y-13424460D02*
X9284563Y-13414936D01*
X9284563Y-13414936D02*
X9275039Y-13395888D01*
X9275039Y-13395888D02*
X9265515Y-13357793D01*
X9265515Y-13357793D02*
X9265515Y-13310174D01*
X9265515Y-13310174D02*
X9275039Y-13272079D01*
X9275039Y-13272079D02*
X9284563Y-13253031D01*
X9284563Y-13253031D02*
X9294087Y-13243508D01*
X9294087Y-13243508D02*
X9313134Y-13233984D01*
X9465515Y-13414936D02*
X9475039Y-13424460D01*
X9475039Y-13424460D02*
X9465515Y-13433984D01*
X9465515Y-13433984D02*
X9455991Y-13424460D01*
X9455991Y-13424460D02*
X9465515Y-13414936D01*
X9465515Y-13414936D02*
X9465515Y-13433984D01*
X9598848Y-13233984D02*
X9617896Y-13233984D01*
X9617896Y-13233984D02*
X9636944Y-13243508D01*
X9636944Y-13243508D02*
X9646468Y-13253031D01*
X9646468Y-13253031D02*
X9655991Y-13272079D01*
X9655991Y-13272079D02*
X9665515Y-13310174D01*
X9665515Y-13310174D02*
X9665515Y-13357793D01*
X9665515Y-13357793D02*
X9655991Y-13395888D01*
X9655991Y-13395888D02*
X9646468Y-13414936D01*
X9646468Y-13414936D02*
X9636944Y-13424460D01*
X9636944Y-13424460D02*
X9617896Y-13433984D01*
X9617896Y-13433984D02*
X9598848Y-13433984D01*
X9598848Y-13433984D02*
X9579801Y-13424460D01*
X9579801Y-13424460D02*
X9570277Y-13414936D01*
X9570277Y-13414936D02*
X9560753Y-13395888D01*
X9560753Y-13395888D02*
X9551229Y-13357793D01*
X9551229Y-13357793D02*
X9551229Y-13310174D01*
X9551229Y-13310174D02*
X9560753Y-13272079D01*
X9560753Y-13272079D02*
X9570277Y-13253031D01*
X9570277Y-13253031D02*
X9579801Y-13243508D01*
X9579801Y-13243508D02*
X9598848Y-13233984D01*
X9855991Y-13433984D02*
X9741706Y-13433984D01*
X9798848Y-13433984D02*
X9798848Y-13233984D01*
X9798848Y-13233984D02*
X9779801Y-13262555D01*
X9779801Y-13262555D02*
X9760753Y-13281603D01*
X9760753Y-13281603D02*
X9741706Y-13291127D01*
X10046468Y-13433984D02*
X9932182Y-13433984D01*
X9989325Y-13433984D02*
X9989325Y-13233984D01*
X9989325Y-13233984D02*
X9970277Y-13262555D01*
X9970277Y-13262555D02*
X9951229Y-13281603D01*
X9951229Y-13281603D02*
X9932182Y-13291127D01*
X10160753Y-13319698D02*
X10141706Y-13310174D01*
X10141706Y-13310174D02*
X10132182Y-13300650D01*
X10132182Y-13300650D02*
X10122658Y-13281603D01*
X10122658Y-13281603D02*
X10122658Y-13272079D01*
X10122658Y-13272079D02*
X10132182Y-13253031D01*
X10132182Y-13253031D02*
X10141706Y-13243508D01*
X10141706Y-13243508D02*
X10160753Y-13233984D01*
X10160753Y-13233984D02*
X10198849Y-13233984D01*
X10198849Y-13233984D02*
X10217896Y-13243508D01*
X10217896Y-13243508D02*
X10227420Y-13253031D01*
X10227420Y-13253031D02*
X10236944Y-13272079D01*
X10236944Y-13272079D02*
X10236944Y-13281603D01*
X10236944Y-13281603D02*
X10227420Y-13300650D01*
X10227420Y-13300650D02*
X10217896Y-13310174D01*
X10217896Y-13310174D02*
X10198849Y-13319698D01*
X10198849Y-13319698D02*
X10160753Y-13319698D01*
X10160753Y-13319698D02*
X10141706Y-13329222D01*
X10141706Y-13329222D02*
X10132182Y-13338746D01*
X10132182Y-13338746D02*
X10122658Y-13357793D01*
X10122658Y-13357793D02*
X10122658Y-13395888D01*
X10122658Y-13395888D02*
X10132182Y-13414936D01*
X10132182Y-13414936D02*
X10141706Y-13424460D01*
X10141706Y-13424460D02*
X10160753Y-13433984D01*
X10160753Y-13433984D02*
X10198849Y-13433984D01*
X10198849Y-13433984D02*
X10217896Y-13424460D01*
X10217896Y-13424460D02*
X10227420Y-13414936D01*
X10227420Y-13414936D02*
X10236944Y-13395888D01*
X10236944Y-13395888D02*
X10236944Y-13357793D01*
X10236944Y-13357793D02*
X10227420Y-13338746D01*
X10227420Y-13338746D02*
X10217896Y-13329222D01*
X10217896Y-13329222D02*
X10198849Y-13319698D01*
X10313134Y-13233984D02*
X10313134Y-13272079D01*
X10389325Y-13233984D02*
X10389325Y-13272079D01*
X10684563Y-13510174D02*
X10675039Y-13500650D01*
X10675039Y-13500650D02*
X10655991Y-13472079D01*
X10655991Y-13472079D02*
X10646468Y-13453031D01*
X10646468Y-13453031D02*
X10636944Y-13424460D01*
X10636944Y-13424460D02*
X10627420Y-13376841D01*
X10627420Y-13376841D02*
X10627420Y-13338746D01*
X10627420Y-13338746D02*
X10636944Y-13291127D01*
X10636944Y-13291127D02*
X10646468Y-13262555D01*
X10646468Y-13262555D02*
X10655991Y-13243508D01*
X10655991Y-13243508D02*
X10675039Y-13214936D01*
X10675039Y-13214936D02*
X10684563Y-13205412D01*
X10741706Y-13233984D02*
X10865515Y-13233984D01*
X10865515Y-13233984D02*
X10798849Y-13310174D01*
X10798849Y-13310174D02*
X10827420Y-13310174D01*
X10827420Y-13310174D02*
X10846468Y-13319698D01*
X10846468Y-13319698D02*
X10855991Y-13329222D01*
X10855991Y-13329222D02*
X10865515Y-13348269D01*
X10865515Y-13348269D02*
X10865515Y-13395888D01*
X10865515Y-13395888D02*
X10855991Y-13414936D01*
X10855991Y-13414936D02*
X10846468Y-13424460D01*
X10846468Y-13424460D02*
X10827420Y-13433984D01*
X10827420Y-13433984D02*
X10770277Y-13433984D01*
X10770277Y-13433984D02*
X10751230Y-13424460D01*
X10751230Y-13424460D02*
X10741706Y-13414936D01*
X11055991Y-13433984D02*
X10941706Y-13433984D01*
X10998849Y-13433984D02*
X10998849Y-13233984D01*
X10998849Y-13233984D02*
X10979801Y-13262555D01*
X10979801Y-13262555D02*
X10960753Y-13281603D01*
X10960753Y-13281603D02*
X10941706Y-13291127D01*
X11294087Y-13433984D02*
X11294087Y-13233984D01*
X11379801Y-13433984D02*
X11379801Y-13329222D01*
X11379801Y-13329222D02*
X11370277Y-13310174D01*
X11370277Y-13310174D02*
X11351230Y-13300650D01*
X11351230Y-13300650D02*
X11322658Y-13300650D01*
X11322658Y-13300650D02*
X11303610Y-13310174D01*
X11303610Y-13310174D02*
X11294087Y-13319698D01*
X11503610Y-13433984D02*
X11484563Y-13424460D01*
X11484563Y-13424460D02*
X11475039Y-13414936D01*
X11475039Y-13414936D02*
X11465515Y-13395888D01*
X11465515Y-13395888D02*
X11465515Y-13338746D01*
X11465515Y-13338746D02*
X11475039Y-13319698D01*
X11475039Y-13319698D02*
X11484563Y-13310174D01*
X11484563Y-13310174D02*
X11503610Y-13300650D01*
X11503610Y-13300650D02*
X11532182Y-13300650D01*
X11532182Y-13300650D02*
X11551230Y-13310174D01*
X11551230Y-13310174D02*
X11560753Y-13319698D01*
X11560753Y-13319698D02*
X11570277Y-13338746D01*
X11570277Y-13338746D02*
X11570277Y-13395888D01*
X11570277Y-13395888D02*
X11560753Y-13414936D01*
X11560753Y-13414936D02*
X11551230Y-13424460D01*
X11551230Y-13424460D02*
X11532182Y-13433984D01*
X11532182Y-13433984D02*
X11503610Y-13433984D01*
X11684563Y-13433984D02*
X11665515Y-13424460D01*
X11665515Y-13424460D02*
X11655991Y-13405412D01*
X11655991Y-13405412D02*
X11655991Y-13233984D01*
X11836944Y-13424460D02*
X11817896Y-13433984D01*
X11817896Y-13433984D02*
X11779801Y-13433984D01*
X11779801Y-13433984D02*
X11760753Y-13424460D01*
X11760753Y-13424460D02*
X11751230Y-13405412D01*
X11751230Y-13405412D02*
X11751230Y-13329222D01*
X11751230Y-13329222D02*
X11760753Y-13310174D01*
X11760753Y-13310174D02*
X11779801Y-13300650D01*
X11779801Y-13300650D02*
X11817896Y-13300650D01*
X11817896Y-13300650D02*
X11836944Y-13310174D01*
X11836944Y-13310174D02*
X11846468Y-13329222D01*
X11846468Y-13329222D02*
X11846468Y-13348269D01*
X11846468Y-13348269D02*
X11751230Y-13367317D01*
X11922658Y-13424460D02*
X11941706Y-13433984D01*
X11941706Y-13433984D02*
X11979801Y-13433984D01*
X11979801Y-13433984D02*
X11998849Y-13424460D01*
X11998849Y-13424460D02*
X12008372Y-13405412D01*
X12008372Y-13405412D02*
X12008372Y-13395888D01*
X12008372Y-13395888D02*
X11998849Y-13376841D01*
X11998849Y-13376841D02*
X11979801Y-13367317D01*
X11979801Y-13367317D02*
X11951230Y-13367317D01*
X11951230Y-13367317D02*
X11932182Y-13357793D01*
X11932182Y-13357793D02*
X11922658Y-13338746D01*
X11922658Y-13338746D02*
X11922658Y-13329222D01*
X11922658Y-13329222D02*
X11932182Y-13310174D01*
X11932182Y-13310174D02*
X11951230Y-13300650D01*
X11951230Y-13300650D02*
X11979801Y-13300650D01*
X11979801Y-13300650D02*
X11998849Y-13310174D01*
X12075039Y-13510174D02*
X12084563Y-13500650D01*
X12084563Y-13500650D02*
X12103611Y-13472079D01*
X12103611Y-13472079D02*
X12113134Y-13453031D01*
X12113134Y-13453031D02*
X12122658Y-13424460D01*
X12122658Y-13424460D02*
X12132182Y-13376841D01*
X12132182Y-13376841D02*
X12132182Y-13338746D01*
X12132182Y-13338746D02*
X12122658Y-13291127D01*
X12122658Y-13291127D02*
X12113134Y-13262555D01*
X12113134Y-13262555D02*
X12103611Y-13243508D01*
X12103611Y-13243508D02*
X12084563Y-13214936D01*
X12084563Y-13214936D02*
X12075039Y-13205412D01*
D12*
X7109500Y-13606500D02*
G75*
G03*
X7009500Y-13606500I-50000J0D01*
G01*
X7009500Y-13606500D02*
G75*
G03*
X7109500Y-13606500I50000J0D01*
G01*
D11*
X7475039Y-13697984D02*
X7360753Y-13697984D01*
X7417896Y-13697984D02*
X7417896Y-13497984D01*
X7417896Y-13497984D02*
X7398848Y-13526555D01*
X7398848Y-13526555D02*
X7379801Y-13545603D01*
X7379801Y-13545603D02*
X7360753Y-13555127D01*
X7560753Y-13678936D02*
X7570277Y-13688460D01*
X7570277Y-13688460D02*
X7560753Y-13697984D01*
X7560753Y-13697984D02*
X7551229Y-13688460D01*
X7551229Y-13688460D02*
X7560753Y-13678936D01*
X7560753Y-13678936D02*
X7560753Y-13697984D01*
X7694086Y-13497984D02*
X7713134Y-13497984D01*
X7713134Y-13497984D02*
X7732182Y-13507508D01*
X7732182Y-13507508D02*
X7741705Y-13517031D01*
X7741705Y-13517031D02*
X7751229Y-13536079D01*
X7751229Y-13536079D02*
X7760753Y-13574174D01*
X7760753Y-13574174D02*
X7760753Y-13621793D01*
X7760753Y-13621793D02*
X7751229Y-13659888D01*
X7751229Y-13659888D02*
X7741705Y-13678936D01*
X7741705Y-13678936D02*
X7732182Y-13688460D01*
X7732182Y-13688460D02*
X7713134Y-13697984D01*
X7713134Y-13697984D02*
X7694086Y-13697984D01*
X7694086Y-13697984D02*
X7675039Y-13688460D01*
X7675039Y-13688460D02*
X7665515Y-13678936D01*
X7665515Y-13678936D02*
X7655991Y-13659888D01*
X7655991Y-13659888D02*
X7646467Y-13621793D01*
X7646467Y-13621793D02*
X7646467Y-13574174D01*
X7646467Y-13574174D02*
X7655991Y-13536079D01*
X7655991Y-13536079D02*
X7665515Y-13517031D01*
X7665515Y-13517031D02*
X7675039Y-13507508D01*
X7675039Y-13507508D02*
X7694086Y-13497984D01*
X7884562Y-13497984D02*
X7903610Y-13497984D01*
X7903610Y-13497984D02*
X7922658Y-13507508D01*
X7922658Y-13507508D02*
X7932182Y-13517031D01*
X7932182Y-13517031D02*
X7941705Y-13536079D01*
X7941705Y-13536079D02*
X7951229Y-13574174D01*
X7951229Y-13574174D02*
X7951229Y-13621793D01*
X7951229Y-13621793D02*
X7941705Y-13659888D01*
X7941705Y-13659888D02*
X7932182Y-13678936D01*
X7932182Y-13678936D02*
X7922658Y-13688460D01*
X7922658Y-13688460D02*
X7903610Y-13697984D01*
X7903610Y-13697984D02*
X7884562Y-13697984D01*
X7884562Y-13697984D02*
X7865515Y-13688460D01*
X7865515Y-13688460D02*
X7855991Y-13678936D01*
X7855991Y-13678936D02*
X7846467Y-13659888D01*
X7846467Y-13659888D02*
X7836943Y-13621793D01*
X7836943Y-13621793D02*
X7836943Y-13574174D01*
X7836943Y-13574174D02*
X7846467Y-13536079D01*
X7846467Y-13536079D02*
X7855991Y-13517031D01*
X7855991Y-13517031D02*
X7865515Y-13507508D01*
X7865515Y-13507508D02*
X7884562Y-13497984D01*
X8075039Y-13497984D02*
X8094086Y-13497984D01*
X8094086Y-13497984D02*
X8113134Y-13507508D01*
X8113134Y-13507508D02*
X8122658Y-13517031D01*
X8122658Y-13517031D02*
X8132182Y-13536079D01*
X8132182Y-13536079D02*
X8141705Y-13574174D01*
X8141705Y-13574174D02*
X8141705Y-13621793D01*
X8141705Y-13621793D02*
X8132182Y-13659888D01*
X8132182Y-13659888D02*
X8122658Y-13678936D01*
X8122658Y-13678936D02*
X8113134Y-13688460D01*
X8113134Y-13688460D02*
X8094086Y-13697984D01*
X8094086Y-13697984D02*
X8075039Y-13697984D01*
X8075039Y-13697984D02*
X8055991Y-13688460D01*
X8055991Y-13688460D02*
X8046467Y-13678936D01*
X8046467Y-13678936D02*
X8036943Y-13659888D01*
X8036943Y-13659888D02*
X8027420Y-13621793D01*
X8027420Y-13621793D02*
X8027420Y-13574174D01*
X8027420Y-13574174D02*
X8036943Y-13536079D01*
X8036943Y-13536079D02*
X8046467Y-13517031D01*
X8046467Y-13517031D02*
X8055991Y-13507508D01*
X8055991Y-13507508D02*
X8075039Y-13497984D01*
X8227420Y-13697984D02*
X8227420Y-13564650D01*
X8227420Y-13583698D02*
X8236943Y-13574174D01*
X8236943Y-13574174D02*
X8255991Y-13564650D01*
X8255991Y-13564650D02*
X8284563Y-13564650D01*
X8284563Y-13564650D02*
X8303610Y-13574174D01*
X8303610Y-13574174D02*
X8313134Y-13593222D01*
X8313134Y-13593222D02*
X8313134Y-13697984D01*
X8313134Y-13593222D02*
X8322658Y-13574174D01*
X8322658Y-13574174D02*
X8341705Y-13564650D01*
X8341705Y-13564650D02*
X8370277Y-13564650D01*
X8370277Y-13564650D02*
X8389325Y-13574174D01*
X8389325Y-13574174D02*
X8398848Y-13593222D01*
X8398848Y-13593222D02*
X8398848Y-13697984D01*
X8494086Y-13697984D02*
X8494086Y-13564650D01*
X8494086Y-13583698D02*
X8503610Y-13574174D01*
X8503610Y-13574174D02*
X8522658Y-13564650D01*
X8522658Y-13564650D02*
X8551229Y-13564650D01*
X8551229Y-13564650D02*
X8570277Y-13574174D01*
X8570277Y-13574174D02*
X8579801Y-13593222D01*
X8579801Y-13593222D02*
X8579801Y-13697984D01*
X8579801Y-13593222D02*
X8589325Y-13574174D01*
X8589325Y-13574174D02*
X8608372Y-13564650D01*
X8608372Y-13564650D02*
X8636944Y-13564650D01*
X8636944Y-13564650D02*
X8655991Y-13574174D01*
X8655991Y-13574174D02*
X8665515Y-13593222D01*
X8665515Y-13593222D02*
X8665515Y-13697984D01*
X9055991Y-13488460D02*
X8884563Y-13745603D01*
X9313134Y-13497984D02*
X9332182Y-13497984D01*
X9332182Y-13497984D02*
X9351229Y-13507508D01*
X9351229Y-13507508D02*
X9360753Y-13517031D01*
X9360753Y-13517031D02*
X9370277Y-13536079D01*
X9370277Y-13536079D02*
X9379801Y-13574174D01*
X9379801Y-13574174D02*
X9379801Y-13621793D01*
X9379801Y-13621793D02*
X9370277Y-13659888D01*
X9370277Y-13659888D02*
X9360753Y-13678936D01*
X9360753Y-13678936D02*
X9351229Y-13688460D01*
X9351229Y-13688460D02*
X9332182Y-13697984D01*
X9332182Y-13697984D02*
X9313134Y-13697984D01*
X9313134Y-13697984D02*
X9294087Y-13688460D01*
X9294087Y-13688460D02*
X9284563Y-13678936D01*
X9284563Y-13678936D02*
X9275039Y-13659888D01*
X9275039Y-13659888D02*
X9265515Y-13621793D01*
X9265515Y-13621793D02*
X9265515Y-13574174D01*
X9265515Y-13574174D02*
X9275039Y-13536079D01*
X9275039Y-13536079D02*
X9284563Y-13517031D01*
X9284563Y-13517031D02*
X9294087Y-13507508D01*
X9294087Y-13507508D02*
X9313134Y-13497984D01*
X9465515Y-13678936D02*
X9475039Y-13688460D01*
X9475039Y-13688460D02*
X9465515Y-13697984D01*
X9465515Y-13697984D02*
X9455991Y-13688460D01*
X9455991Y-13688460D02*
X9465515Y-13678936D01*
X9465515Y-13678936D02*
X9465515Y-13697984D01*
X9598848Y-13497984D02*
X9617896Y-13497984D01*
X9617896Y-13497984D02*
X9636944Y-13507508D01*
X9636944Y-13507508D02*
X9646468Y-13517031D01*
X9646468Y-13517031D02*
X9655991Y-13536079D01*
X9655991Y-13536079D02*
X9665515Y-13574174D01*
X9665515Y-13574174D02*
X9665515Y-13621793D01*
X9665515Y-13621793D02*
X9655991Y-13659888D01*
X9655991Y-13659888D02*
X9646468Y-13678936D01*
X9646468Y-13678936D02*
X9636944Y-13688460D01*
X9636944Y-13688460D02*
X9617896Y-13697984D01*
X9617896Y-13697984D02*
X9598848Y-13697984D01*
X9598848Y-13697984D02*
X9579801Y-13688460D01*
X9579801Y-13688460D02*
X9570277Y-13678936D01*
X9570277Y-13678936D02*
X9560753Y-13659888D01*
X9560753Y-13659888D02*
X9551229Y-13621793D01*
X9551229Y-13621793D02*
X9551229Y-13574174D01*
X9551229Y-13574174D02*
X9560753Y-13536079D01*
X9560753Y-13536079D02*
X9570277Y-13517031D01*
X9570277Y-13517031D02*
X9579801Y-13507508D01*
X9579801Y-13507508D02*
X9598848Y-13497984D01*
X9732182Y-13497984D02*
X9855991Y-13497984D01*
X9855991Y-13497984D02*
X9789325Y-13574174D01*
X9789325Y-13574174D02*
X9817896Y-13574174D01*
X9817896Y-13574174D02*
X9836944Y-13583698D01*
X9836944Y-13583698D02*
X9846468Y-13593222D01*
X9846468Y-13593222D02*
X9855991Y-13612269D01*
X9855991Y-13612269D02*
X9855991Y-13659888D01*
X9855991Y-13659888D02*
X9846468Y-13678936D01*
X9846468Y-13678936D02*
X9836944Y-13688460D01*
X9836944Y-13688460D02*
X9817896Y-13697984D01*
X9817896Y-13697984D02*
X9760753Y-13697984D01*
X9760753Y-13697984D02*
X9741706Y-13688460D01*
X9741706Y-13688460D02*
X9732182Y-13678936D01*
X9951229Y-13697984D02*
X9989325Y-13697984D01*
X9989325Y-13697984D02*
X10008372Y-13688460D01*
X10008372Y-13688460D02*
X10017896Y-13678936D01*
X10017896Y-13678936D02*
X10036944Y-13650365D01*
X10036944Y-13650365D02*
X10046468Y-13612269D01*
X10046468Y-13612269D02*
X10046468Y-13536079D01*
X10046468Y-13536079D02*
X10036944Y-13517031D01*
X10036944Y-13517031D02*
X10027420Y-13507508D01*
X10027420Y-13507508D02*
X10008372Y-13497984D01*
X10008372Y-13497984D02*
X9970277Y-13497984D01*
X9970277Y-13497984D02*
X9951229Y-13507508D01*
X9951229Y-13507508D02*
X9941706Y-13517031D01*
X9941706Y-13517031D02*
X9932182Y-13536079D01*
X9932182Y-13536079D02*
X9932182Y-13583698D01*
X9932182Y-13583698D02*
X9941706Y-13602746D01*
X9941706Y-13602746D02*
X9951229Y-13612269D01*
X9951229Y-13612269D02*
X9970277Y-13621793D01*
X9970277Y-13621793D02*
X10008372Y-13621793D01*
X10008372Y-13621793D02*
X10027420Y-13612269D01*
X10027420Y-13612269D02*
X10036944Y-13602746D01*
X10036944Y-13602746D02*
X10046468Y-13583698D01*
X10217896Y-13564650D02*
X10217896Y-13697984D01*
X10170277Y-13488460D02*
X10122658Y-13631317D01*
X10122658Y-13631317D02*
X10246468Y-13631317D01*
X10313134Y-13497984D02*
X10313134Y-13536079D01*
X10389325Y-13497984D02*
X10389325Y-13536079D01*
X10684563Y-13774174D02*
X10675039Y-13764650D01*
X10675039Y-13764650D02*
X10655991Y-13736079D01*
X10655991Y-13736079D02*
X10646468Y-13717031D01*
X10646468Y-13717031D02*
X10636944Y-13688460D01*
X10636944Y-13688460D02*
X10627420Y-13640841D01*
X10627420Y-13640841D02*
X10627420Y-13602746D01*
X10627420Y-13602746D02*
X10636944Y-13555127D01*
X10636944Y-13555127D02*
X10646468Y-13526555D01*
X10646468Y-13526555D02*
X10655991Y-13507508D01*
X10655991Y-13507508D02*
X10675039Y-13478936D01*
X10675039Y-13478936D02*
X10684563Y-13469412D01*
X10741706Y-13497984D02*
X10865515Y-13497984D01*
X10865515Y-13497984D02*
X10798849Y-13574174D01*
X10798849Y-13574174D02*
X10827420Y-13574174D01*
X10827420Y-13574174D02*
X10846468Y-13583698D01*
X10846468Y-13583698D02*
X10855991Y-13593222D01*
X10855991Y-13593222D02*
X10865515Y-13612269D01*
X10865515Y-13612269D02*
X10865515Y-13659888D01*
X10865515Y-13659888D02*
X10855991Y-13678936D01*
X10855991Y-13678936D02*
X10846468Y-13688460D01*
X10846468Y-13688460D02*
X10827420Y-13697984D01*
X10827420Y-13697984D02*
X10770277Y-13697984D01*
X10770277Y-13697984D02*
X10751230Y-13688460D01*
X10751230Y-13688460D02*
X10741706Y-13678936D01*
X11046468Y-13497984D02*
X10951230Y-13497984D01*
X10951230Y-13497984D02*
X10941706Y-13593222D01*
X10941706Y-13593222D02*
X10951230Y-13583698D01*
X10951230Y-13583698D02*
X10970277Y-13574174D01*
X10970277Y-13574174D02*
X11017896Y-13574174D01*
X11017896Y-13574174D02*
X11036944Y-13583698D01*
X11036944Y-13583698D02*
X11046468Y-13593222D01*
X11046468Y-13593222D02*
X11055991Y-13612269D01*
X11055991Y-13612269D02*
X11055991Y-13659888D01*
X11055991Y-13659888D02*
X11046468Y-13678936D01*
X11046468Y-13678936D02*
X11036944Y-13688460D01*
X11036944Y-13688460D02*
X11017896Y-13697984D01*
X11017896Y-13697984D02*
X10970277Y-13697984D01*
X10970277Y-13697984D02*
X10951230Y-13688460D01*
X10951230Y-13688460D02*
X10941706Y-13678936D01*
X11294087Y-13697984D02*
X11294087Y-13497984D01*
X11379801Y-13697984D02*
X11379801Y-13593222D01*
X11379801Y-13593222D02*
X11370277Y-13574174D01*
X11370277Y-13574174D02*
X11351230Y-13564650D01*
X11351230Y-13564650D02*
X11322658Y-13564650D01*
X11322658Y-13564650D02*
X11303610Y-13574174D01*
X11303610Y-13574174D02*
X11294087Y-13583698D01*
X11503610Y-13697984D02*
X11484563Y-13688460D01*
X11484563Y-13688460D02*
X11475039Y-13678936D01*
X11475039Y-13678936D02*
X11465515Y-13659888D01*
X11465515Y-13659888D02*
X11465515Y-13602746D01*
X11465515Y-13602746D02*
X11475039Y-13583698D01*
X11475039Y-13583698D02*
X11484563Y-13574174D01*
X11484563Y-13574174D02*
X11503610Y-13564650D01*
X11503610Y-13564650D02*
X11532182Y-13564650D01*
X11532182Y-13564650D02*
X11551230Y-13574174D01*
X11551230Y-13574174D02*
X11560753Y-13583698D01*
X11560753Y-13583698D02*
X11570277Y-13602746D01*
X11570277Y-13602746D02*
X11570277Y-13659888D01*
X11570277Y-13659888D02*
X11560753Y-13678936D01*
X11560753Y-13678936D02*
X11551230Y-13688460D01*
X11551230Y-13688460D02*
X11532182Y-13697984D01*
X11532182Y-13697984D02*
X11503610Y-13697984D01*
X11684563Y-13697984D02*
X11665515Y-13688460D01*
X11665515Y-13688460D02*
X11655991Y-13669412D01*
X11655991Y-13669412D02*
X11655991Y-13497984D01*
X11836944Y-13688460D02*
X11817896Y-13697984D01*
X11817896Y-13697984D02*
X11779801Y-13697984D01*
X11779801Y-13697984D02*
X11760753Y-13688460D01*
X11760753Y-13688460D02*
X11751230Y-13669412D01*
X11751230Y-13669412D02*
X11751230Y-13593222D01*
X11751230Y-13593222D02*
X11760753Y-13574174D01*
X11760753Y-13574174D02*
X11779801Y-13564650D01*
X11779801Y-13564650D02*
X11817896Y-13564650D01*
X11817896Y-13564650D02*
X11836944Y-13574174D01*
X11836944Y-13574174D02*
X11846468Y-13593222D01*
X11846468Y-13593222D02*
X11846468Y-13612269D01*
X11846468Y-13612269D02*
X11751230Y-13631317D01*
X11922658Y-13688460D02*
X11941706Y-13697984D01*
X11941706Y-13697984D02*
X11979801Y-13697984D01*
X11979801Y-13697984D02*
X11998849Y-13688460D01*
X11998849Y-13688460D02*
X12008372Y-13669412D01*
X12008372Y-13669412D02*
X12008372Y-13659888D01*
X12008372Y-13659888D02*
X11998849Y-13640841D01*
X11998849Y-13640841D02*
X11979801Y-13631317D01*
X11979801Y-13631317D02*
X11951230Y-13631317D01*
X11951230Y-13631317D02*
X11932182Y-13621793D01*
X11932182Y-13621793D02*
X11922658Y-13602746D01*
X11922658Y-13602746D02*
X11922658Y-13593222D01*
X11922658Y-13593222D02*
X11932182Y-13574174D01*
X11932182Y-13574174D02*
X11951230Y-13564650D01*
X11951230Y-13564650D02*
X11979801Y-13564650D01*
X11979801Y-13564650D02*
X11998849Y-13574174D01*
X12075039Y-13774174D02*
X12084563Y-13764650D01*
X12084563Y-13764650D02*
X12103611Y-13736079D01*
X12103611Y-13736079D02*
X12113134Y-13717031D01*
X12113134Y-13717031D02*
X12122658Y-13688460D01*
X12122658Y-13688460D02*
X12132182Y-13640841D01*
X12132182Y-13640841D02*
X12132182Y-13602746D01*
X12132182Y-13602746D02*
X12122658Y-13555127D01*
X12122658Y-13555127D02*
X12113134Y-13526555D01*
X12113134Y-13526555D02*
X12103611Y-13507508D01*
X12103611Y-13507508D02*
X12084563Y-13478936D01*
X12084563Y-13478936D02*
X12075039Y-13469412D01*
M02*
