%TF.GenerationSoftware,KiCad,Pcbnew,7.0.11+dfsg-1build4*%
%TF.CreationDate,2024-05-09T18:47:19+10:00*%
%TF.ProjectId,NoBootLoadFlasher,4e6f426f-6f74-44c6-9f61-64466c617368,rev?*%
%TF.SameCoordinates,Original*%
%TF.FileFunction,Drillmap*%
%TF.FilePolarity,Positive*%
%FSLAX45Y45*%
G04 Gerber Fmt 4.5, Leading zero omitted, Abs format (unit mm)*
G04 Created by KiCad (PCBNEW 7.0.11+dfsg-1build4) date 2024-05-09 18:47:19*
%MOMM*%
%LPD*%
G01*
G04 APERTURE LIST*
%ADD10C,0.050000*%
%ADD11C,0.200000*%
G04 APERTURE END LIST*
D10*
X7620000Y-7112000D02*
X11176000Y-7112000D01*
X7112000Y-12700000D02*
X7112000Y-7112000D01*
X7112000Y-7112000D02*
X7620000Y-7112000D01*
X11176000Y-7112000D02*
X11176000Y-12700000D01*
X11176000Y-12700000D02*
X7112000Y-12700000D01*
D11*
X7370277Y-13013984D02*
X7370277Y-12813984D01*
X7370277Y-12813984D02*
X7417896Y-12813984D01*
X7417896Y-12813984D02*
X7446467Y-12823508D01*
X7446467Y-12823508D02*
X7465515Y-12842555D01*
X7465515Y-12842555D02*
X7475039Y-12861603D01*
X7475039Y-12861603D02*
X7484562Y-12899698D01*
X7484562Y-12899698D02*
X7484562Y-12928269D01*
X7484562Y-12928269D02*
X7475039Y-12966365D01*
X7475039Y-12966365D02*
X7465515Y-12985412D01*
X7465515Y-12985412D02*
X7446467Y-13004460D01*
X7446467Y-13004460D02*
X7417896Y-13013984D01*
X7417896Y-13013984D02*
X7370277Y-13013984D01*
X7570277Y-13013984D02*
X7570277Y-12880650D01*
X7570277Y-12918746D02*
X7579801Y-12899698D01*
X7579801Y-12899698D02*
X7589324Y-12890174D01*
X7589324Y-12890174D02*
X7608372Y-12880650D01*
X7608372Y-12880650D02*
X7627420Y-12880650D01*
X7694086Y-13013984D02*
X7694086Y-12880650D01*
X7694086Y-12813984D02*
X7684562Y-12823508D01*
X7684562Y-12823508D02*
X7694086Y-12833031D01*
X7694086Y-12833031D02*
X7703610Y-12823508D01*
X7703610Y-12823508D02*
X7694086Y-12813984D01*
X7694086Y-12813984D02*
X7694086Y-12833031D01*
X7817896Y-13013984D02*
X7798848Y-13004460D01*
X7798848Y-13004460D02*
X7789324Y-12985412D01*
X7789324Y-12985412D02*
X7789324Y-12813984D01*
X7922658Y-13013984D02*
X7903610Y-13004460D01*
X7903610Y-13004460D02*
X7894086Y-12985412D01*
X7894086Y-12985412D02*
X7894086Y-12813984D01*
X8151229Y-13013984D02*
X8151229Y-12813984D01*
X8151229Y-12813984D02*
X8217896Y-12956841D01*
X8217896Y-12956841D02*
X8284562Y-12813984D01*
X8284562Y-12813984D02*
X8284562Y-13013984D01*
X8465515Y-13013984D02*
X8465515Y-12909222D01*
X8465515Y-12909222D02*
X8455991Y-12890174D01*
X8455991Y-12890174D02*
X8436944Y-12880650D01*
X8436944Y-12880650D02*
X8398848Y-12880650D01*
X8398848Y-12880650D02*
X8379801Y-12890174D01*
X8465515Y-13004460D02*
X8446467Y-13013984D01*
X8446467Y-13013984D02*
X8398848Y-13013984D01*
X8398848Y-13013984D02*
X8379801Y-13004460D01*
X8379801Y-13004460D02*
X8370277Y-12985412D01*
X8370277Y-12985412D02*
X8370277Y-12966365D01*
X8370277Y-12966365D02*
X8379801Y-12947317D01*
X8379801Y-12947317D02*
X8398848Y-12937793D01*
X8398848Y-12937793D02*
X8446467Y-12937793D01*
X8446467Y-12937793D02*
X8465515Y-12928269D01*
X8560753Y-12880650D02*
X8560753Y-13080650D01*
X8560753Y-12890174D02*
X8579801Y-12880650D01*
X8579801Y-12880650D02*
X8617896Y-12880650D01*
X8617896Y-12880650D02*
X8636944Y-12890174D01*
X8636944Y-12890174D02*
X8646467Y-12899698D01*
X8646467Y-12899698D02*
X8655991Y-12918746D01*
X8655991Y-12918746D02*
X8655991Y-12975888D01*
X8655991Y-12975888D02*
X8646467Y-12994936D01*
X8646467Y-12994936D02*
X8636944Y-13004460D01*
X8636944Y-13004460D02*
X8617896Y-13013984D01*
X8617896Y-13013984D02*
X8579801Y-13013984D01*
X8579801Y-13013984D02*
X8560753Y-13004460D01*
X8741705Y-12994936D02*
X8751229Y-13004460D01*
X8751229Y-13004460D02*
X8741705Y-13013984D01*
X8741705Y-13013984D02*
X8732182Y-13004460D01*
X8732182Y-13004460D02*
X8741705Y-12994936D01*
X8741705Y-12994936D02*
X8741705Y-13013984D01*
X8741705Y-12890174D02*
X8751229Y-12899698D01*
X8751229Y-12899698D02*
X8741705Y-12909222D01*
X8741705Y-12909222D02*
X8732182Y-12899698D01*
X8732182Y-12899698D02*
X8741705Y-12890174D01*
X8741705Y-12890174D02*
X8741705Y-12909222D01*
M02*
