%TF.GenerationSoftware,KiCad,Pcbnew,7.0.11+dfsg-1build4*%
%TF.CreationDate,2024-05-16T01:15:25+10:00*%
%TF.ProjectId,NoBootLoadFlasher,4e6f426f-6f74-44c6-9f61-64466c617368,rev?*%
%TF.SameCoordinates,Original*%
%TF.FileFunction,Drillmap*%
%TF.FilePolarity,Positive*%
%FSLAX45Y45*%
G04 Gerber Fmt 4.5, Leading zero omitted, Abs format (unit mm)*
G04 Created by KiCad (PCBNEW 7.0.11+dfsg-1build4) date 2024-05-16 01:15:25*
%MOMM*%
%LPD*%
G01*
G04 APERTURE LIST*
%ADD10C,0.050000*%
%ADD11C,0.200000*%
G04 APERTURE END LIST*
D10*
X6832600Y-7200900D02*
X11417300Y-7188200D01*
X6832600Y-17233900D02*
X11417300Y-17221200D01*
X6832600Y-7200900D02*
X6832600Y-17233900D01*
X11417300Y-7188200D02*
X11417300Y-17221200D01*
D11*
X7090877Y-17547884D02*
X7090877Y-17347884D01*
X7090877Y-17347884D02*
X7138496Y-17347884D01*
X7138496Y-17347884D02*
X7167067Y-17357408D01*
X7167067Y-17357408D02*
X7186115Y-17376455D01*
X7186115Y-17376455D02*
X7195639Y-17395503D01*
X7195639Y-17395503D02*
X7205162Y-17433598D01*
X7205162Y-17433598D02*
X7205162Y-17462170D01*
X7205162Y-17462170D02*
X7195639Y-17500265D01*
X7195639Y-17500265D02*
X7186115Y-17519312D01*
X7186115Y-17519312D02*
X7167067Y-17538360D01*
X7167067Y-17538360D02*
X7138496Y-17547884D01*
X7138496Y-17547884D02*
X7090877Y-17547884D01*
X7290877Y-17547884D02*
X7290877Y-17414550D01*
X7290877Y-17452646D02*
X7300401Y-17433598D01*
X7300401Y-17433598D02*
X7309924Y-17424074D01*
X7309924Y-17424074D02*
X7328972Y-17414550D01*
X7328972Y-17414550D02*
X7348020Y-17414550D01*
X7414686Y-17547884D02*
X7414686Y-17414550D01*
X7414686Y-17347884D02*
X7405162Y-17357408D01*
X7405162Y-17357408D02*
X7414686Y-17366931D01*
X7414686Y-17366931D02*
X7424210Y-17357408D01*
X7424210Y-17357408D02*
X7414686Y-17347884D01*
X7414686Y-17347884D02*
X7414686Y-17366931D01*
X7538496Y-17547884D02*
X7519448Y-17538360D01*
X7519448Y-17538360D02*
X7509924Y-17519312D01*
X7509924Y-17519312D02*
X7509924Y-17347884D01*
X7643258Y-17547884D02*
X7624210Y-17538360D01*
X7624210Y-17538360D02*
X7614686Y-17519312D01*
X7614686Y-17519312D02*
X7614686Y-17347884D01*
X7871829Y-17547884D02*
X7871829Y-17347884D01*
X7871829Y-17347884D02*
X7938496Y-17490741D01*
X7938496Y-17490741D02*
X8005162Y-17347884D01*
X8005162Y-17347884D02*
X8005162Y-17547884D01*
X8186115Y-17547884D02*
X8186115Y-17443122D01*
X8186115Y-17443122D02*
X8176591Y-17424074D01*
X8176591Y-17424074D02*
X8157543Y-17414550D01*
X8157543Y-17414550D02*
X8119448Y-17414550D01*
X8119448Y-17414550D02*
X8100401Y-17424074D01*
X8186115Y-17538360D02*
X8167067Y-17547884D01*
X8167067Y-17547884D02*
X8119448Y-17547884D01*
X8119448Y-17547884D02*
X8100401Y-17538360D01*
X8100401Y-17538360D02*
X8090877Y-17519312D01*
X8090877Y-17519312D02*
X8090877Y-17500265D01*
X8090877Y-17500265D02*
X8100401Y-17481217D01*
X8100401Y-17481217D02*
X8119448Y-17471693D01*
X8119448Y-17471693D02*
X8167067Y-17471693D01*
X8167067Y-17471693D02*
X8186115Y-17462170D01*
X8281353Y-17414550D02*
X8281353Y-17614550D01*
X8281353Y-17424074D02*
X8300401Y-17414550D01*
X8300401Y-17414550D02*
X8338496Y-17414550D01*
X8338496Y-17414550D02*
X8357543Y-17424074D01*
X8357543Y-17424074D02*
X8367067Y-17433598D01*
X8367067Y-17433598D02*
X8376591Y-17452646D01*
X8376591Y-17452646D02*
X8376591Y-17509789D01*
X8376591Y-17509789D02*
X8367067Y-17528836D01*
X8367067Y-17528836D02*
X8357543Y-17538360D01*
X8357543Y-17538360D02*
X8338496Y-17547884D01*
X8338496Y-17547884D02*
X8300401Y-17547884D01*
X8300401Y-17547884D02*
X8281353Y-17538360D01*
X8462305Y-17528836D02*
X8471829Y-17538360D01*
X8471829Y-17538360D02*
X8462305Y-17547884D01*
X8462305Y-17547884D02*
X8452782Y-17538360D01*
X8452782Y-17538360D02*
X8462305Y-17528836D01*
X8462305Y-17528836D02*
X8462305Y-17547884D01*
X8462305Y-17424074D02*
X8471829Y-17433598D01*
X8471829Y-17433598D02*
X8462305Y-17443122D01*
X8462305Y-17443122D02*
X8452782Y-17433598D01*
X8452782Y-17433598D02*
X8462305Y-17424074D01*
X8462305Y-17424074D02*
X8462305Y-17443122D01*
M02*
