%TF.GenerationSoftware,KiCad,Pcbnew,7.0.11+dfsg-1build4*%
%TF.CreationDate,2024-05-16T00:50:13+10:00*%
%TF.ProjectId,NoBootLoadFlasher,4e6f426f-6f74-44c6-9f61-64466c617368,rev?*%
%TF.SameCoordinates,Original*%
%TF.FileFunction,Legend,Top*%
%TF.FilePolarity,Positive*%
%FSLAX46Y46*%
G04 Gerber Fmt 4.6, Leading zero omitted, Abs format (unit mm)*
G04 Created by KiCad (PCBNEW 7.0.11+dfsg-1build4) date 2024-05-16 00:50:13*
%MOMM*%
%LPD*%
G01*
G04 APERTURE LIST*
%ADD10C,0.200000*%
%ADD11C,0.300000*%
%ADD12C,0.100000*%
%ADD13C,0.150000*%
%ADD14C,0.250000*%
%ADD15C,0.120000*%
G04 APERTURE END LIST*
D10*
X69776000Y-161798000D02*
X112776000Y-161798000D01*
D11*
X75462196Y-171403228D02*
X74747910Y-171403228D01*
X74747910Y-171403228D02*
X74747910Y-169903228D01*
X75747911Y-169903228D02*
X76605054Y-169903228D01*
X76176482Y-171403228D02*
X76176482Y-169903228D01*
X77890768Y-169974657D02*
X77747911Y-169903228D01*
X77747911Y-169903228D02*
X77533625Y-169903228D01*
X77533625Y-169903228D02*
X77319339Y-169974657D01*
X77319339Y-169974657D02*
X77176482Y-170117514D01*
X77176482Y-170117514D02*
X77105053Y-170260371D01*
X77105053Y-170260371D02*
X77033625Y-170546085D01*
X77033625Y-170546085D02*
X77033625Y-170760371D01*
X77033625Y-170760371D02*
X77105053Y-171046085D01*
X77105053Y-171046085D02*
X77176482Y-171188942D01*
X77176482Y-171188942D02*
X77319339Y-171331800D01*
X77319339Y-171331800D02*
X77533625Y-171403228D01*
X77533625Y-171403228D02*
X77676482Y-171403228D01*
X77676482Y-171403228D02*
X77890768Y-171331800D01*
X77890768Y-171331800D02*
X77962196Y-171260371D01*
X77962196Y-171260371D02*
X77962196Y-170760371D01*
X77962196Y-170760371D02*
X77676482Y-170760371D01*
X78819339Y-170546085D02*
X78676482Y-170474657D01*
X78676482Y-170474657D02*
X78605053Y-170403228D01*
X78605053Y-170403228D02*
X78533625Y-170260371D01*
X78533625Y-170260371D02*
X78533625Y-170188942D01*
X78533625Y-170188942D02*
X78605053Y-170046085D01*
X78605053Y-170046085D02*
X78676482Y-169974657D01*
X78676482Y-169974657D02*
X78819339Y-169903228D01*
X78819339Y-169903228D02*
X79105053Y-169903228D01*
X79105053Y-169903228D02*
X79247911Y-169974657D01*
X79247911Y-169974657D02*
X79319339Y-170046085D01*
X79319339Y-170046085D02*
X79390768Y-170188942D01*
X79390768Y-170188942D02*
X79390768Y-170260371D01*
X79390768Y-170260371D02*
X79319339Y-170403228D01*
X79319339Y-170403228D02*
X79247911Y-170474657D01*
X79247911Y-170474657D02*
X79105053Y-170546085D01*
X79105053Y-170546085D02*
X78819339Y-170546085D01*
X78819339Y-170546085D02*
X78676482Y-170617514D01*
X78676482Y-170617514D02*
X78605053Y-170688942D01*
X78605053Y-170688942D02*
X78533625Y-170831800D01*
X78533625Y-170831800D02*
X78533625Y-171117514D01*
X78533625Y-171117514D02*
X78605053Y-171260371D01*
X78605053Y-171260371D02*
X78676482Y-171331800D01*
X78676482Y-171331800D02*
X78819339Y-171403228D01*
X78819339Y-171403228D02*
X79105053Y-171403228D01*
X79105053Y-171403228D02*
X79247911Y-171331800D01*
X79247911Y-171331800D02*
X79319339Y-171260371D01*
X79319339Y-171260371D02*
X79390768Y-171117514D01*
X79390768Y-171117514D02*
X79390768Y-170831800D01*
X79390768Y-170831800D02*
X79319339Y-170688942D01*
X79319339Y-170688942D02*
X79247911Y-170617514D01*
X79247911Y-170617514D02*
X79105053Y-170546085D01*
X80533624Y-170617514D02*
X80033624Y-170617514D01*
X80033624Y-171403228D02*
X80033624Y-169903228D01*
X80033624Y-169903228D02*
X80747910Y-169903228D01*
X81176481Y-169903228D02*
X82105053Y-169903228D01*
X82105053Y-169903228D02*
X81605053Y-170474657D01*
X81605053Y-170474657D02*
X81819338Y-170474657D01*
X81819338Y-170474657D02*
X81962196Y-170546085D01*
X81962196Y-170546085D02*
X82033624Y-170617514D01*
X82033624Y-170617514D02*
X82105053Y-170760371D01*
X82105053Y-170760371D02*
X82105053Y-171117514D01*
X82105053Y-171117514D02*
X82033624Y-171260371D01*
X82033624Y-171260371D02*
X81962196Y-171331800D01*
X81962196Y-171331800D02*
X81819338Y-171403228D01*
X81819338Y-171403228D02*
X81390767Y-171403228D01*
X81390767Y-171403228D02*
X81247910Y-171331800D01*
X81247910Y-171331800D02*
X81176481Y-171260371D01*
X82676481Y-170046085D02*
X82747909Y-169974657D01*
X82747909Y-169974657D02*
X82890767Y-169903228D01*
X82890767Y-169903228D02*
X83247909Y-169903228D01*
X83247909Y-169903228D02*
X83390767Y-169974657D01*
X83390767Y-169974657D02*
X83462195Y-170046085D01*
X83462195Y-170046085D02*
X83533624Y-170188942D01*
X83533624Y-170188942D02*
X83533624Y-170331800D01*
X83533624Y-170331800D02*
X83462195Y-170546085D01*
X83462195Y-170546085D02*
X82605052Y-171403228D01*
X82605052Y-171403228D02*
X83533624Y-171403228D01*
X84390766Y-170546085D02*
X84247909Y-170474657D01*
X84247909Y-170474657D02*
X84176480Y-170403228D01*
X84176480Y-170403228D02*
X84105052Y-170260371D01*
X84105052Y-170260371D02*
X84105052Y-170188942D01*
X84105052Y-170188942D02*
X84176480Y-170046085D01*
X84176480Y-170046085D02*
X84247909Y-169974657D01*
X84247909Y-169974657D02*
X84390766Y-169903228D01*
X84390766Y-169903228D02*
X84676480Y-169903228D01*
X84676480Y-169903228D02*
X84819338Y-169974657D01*
X84819338Y-169974657D02*
X84890766Y-170046085D01*
X84890766Y-170046085D02*
X84962195Y-170188942D01*
X84962195Y-170188942D02*
X84962195Y-170260371D01*
X84962195Y-170260371D02*
X84890766Y-170403228D01*
X84890766Y-170403228D02*
X84819338Y-170474657D01*
X84819338Y-170474657D02*
X84676480Y-170546085D01*
X84676480Y-170546085D02*
X84390766Y-170546085D01*
X84390766Y-170546085D02*
X84247909Y-170617514D01*
X84247909Y-170617514D02*
X84176480Y-170688942D01*
X84176480Y-170688942D02*
X84105052Y-170831800D01*
X84105052Y-170831800D02*
X84105052Y-171117514D01*
X84105052Y-171117514D02*
X84176480Y-171260371D01*
X84176480Y-171260371D02*
X84247909Y-171331800D01*
X84247909Y-171331800D02*
X84390766Y-171403228D01*
X84390766Y-171403228D02*
X84676480Y-171403228D01*
X84676480Y-171403228D02*
X84819338Y-171331800D01*
X84819338Y-171331800D02*
X84890766Y-171260371D01*
X84890766Y-171260371D02*
X84962195Y-171117514D01*
X84962195Y-171117514D02*
X84962195Y-170831800D01*
X84962195Y-170831800D02*
X84890766Y-170688942D01*
X84890766Y-170688942D02*
X84819338Y-170617514D01*
X84819338Y-170617514D02*
X84676480Y-170546085D01*
X85605051Y-171403228D02*
X85605051Y-169903228D01*
X85605051Y-169903228D02*
X86176480Y-169903228D01*
X86176480Y-169903228D02*
X86319337Y-169974657D01*
X86319337Y-169974657D02*
X86390766Y-170046085D01*
X86390766Y-170046085D02*
X86462194Y-170188942D01*
X86462194Y-170188942D02*
X86462194Y-170403228D01*
X86462194Y-170403228D02*
X86390766Y-170546085D01*
X86390766Y-170546085D02*
X86319337Y-170617514D01*
X86319337Y-170617514D02*
X86176480Y-170688942D01*
X86176480Y-170688942D02*
X85605051Y-170688942D01*
X88747908Y-170617514D02*
X88962194Y-170688942D01*
X88962194Y-170688942D02*
X89033623Y-170760371D01*
X89033623Y-170760371D02*
X89105051Y-170903228D01*
X89105051Y-170903228D02*
X89105051Y-171117514D01*
X89105051Y-171117514D02*
X89033623Y-171260371D01*
X89033623Y-171260371D02*
X88962194Y-171331800D01*
X88962194Y-171331800D02*
X88819337Y-171403228D01*
X88819337Y-171403228D02*
X88247908Y-171403228D01*
X88247908Y-171403228D02*
X88247908Y-169903228D01*
X88247908Y-169903228D02*
X88747908Y-169903228D01*
X88747908Y-169903228D02*
X88890766Y-169974657D01*
X88890766Y-169974657D02*
X88962194Y-170046085D01*
X88962194Y-170046085D02*
X89033623Y-170188942D01*
X89033623Y-170188942D02*
X89033623Y-170331800D01*
X89033623Y-170331800D02*
X88962194Y-170474657D01*
X88962194Y-170474657D02*
X88890766Y-170546085D01*
X88890766Y-170546085D02*
X88747908Y-170617514D01*
X88747908Y-170617514D02*
X88247908Y-170617514D01*
X89676480Y-170974657D02*
X90390766Y-170974657D01*
X89533623Y-171403228D02*
X90033623Y-169903228D01*
X90033623Y-169903228D02*
X90533623Y-171403228D01*
X91890765Y-171403228D02*
X91390765Y-170688942D01*
X91033622Y-171403228D02*
X91033622Y-169903228D01*
X91033622Y-169903228D02*
X91605051Y-169903228D01*
X91605051Y-169903228D02*
X91747908Y-169974657D01*
X91747908Y-169974657D02*
X91819337Y-170046085D01*
X91819337Y-170046085D02*
X91890765Y-170188942D01*
X91890765Y-170188942D02*
X91890765Y-170403228D01*
X91890765Y-170403228D02*
X91819337Y-170546085D01*
X91819337Y-170546085D02*
X91747908Y-170617514D01*
X91747908Y-170617514D02*
X91605051Y-170688942D01*
X91605051Y-170688942D02*
X91033622Y-170688942D01*
X92533622Y-170617514D02*
X93033622Y-170617514D01*
X93247908Y-171403228D02*
X92533622Y-171403228D01*
X92533622Y-171403228D02*
X92533622Y-169903228D01*
X92533622Y-169903228D02*
X93247908Y-169903228D01*
X95033622Y-171403228D02*
X95033622Y-169903228D01*
X96605051Y-171260371D02*
X96533623Y-171331800D01*
X96533623Y-171331800D02*
X96319337Y-171403228D01*
X96319337Y-171403228D02*
X96176480Y-171403228D01*
X96176480Y-171403228D02*
X95962194Y-171331800D01*
X95962194Y-171331800D02*
X95819337Y-171188942D01*
X95819337Y-171188942D02*
X95747908Y-171046085D01*
X95747908Y-171046085D02*
X95676480Y-170760371D01*
X95676480Y-170760371D02*
X95676480Y-170546085D01*
X95676480Y-170546085D02*
X95747908Y-170260371D01*
X95747908Y-170260371D02*
X95819337Y-170117514D01*
X95819337Y-170117514D02*
X95962194Y-169974657D01*
X95962194Y-169974657D02*
X96176480Y-169903228D01*
X96176480Y-169903228D02*
X96319337Y-169903228D01*
X96319337Y-169903228D02*
X96533623Y-169974657D01*
X96533623Y-169974657D02*
X96605051Y-170046085D01*
X98890765Y-170617514D02*
X98390765Y-170617514D01*
X98390765Y-171403228D02*
X98390765Y-169903228D01*
X98390765Y-169903228D02*
X99105051Y-169903228D01*
X100390765Y-171403228D02*
X99676479Y-171403228D01*
X99676479Y-171403228D02*
X99676479Y-169903228D01*
X100819337Y-170974657D02*
X101533623Y-170974657D01*
X100676480Y-171403228D02*
X101176480Y-169903228D01*
X101176480Y-169903228D02*
X101676480Y-171403228D01*
X102105051Y-171331800D02*
X102319337Y-171403228D01*
X102319337Y-171403228D02*
X102676479Y-171403228D01*
X102676479Y-171403228D02*
X102819337Y-171331800D01*
X102819337Y-171331800D02*
X102890765Y-171260371D01*
X102890765Y-171260371D02*
X102962194Y-171117514D01*
X102962194Y-171117514D02*
X102962194Y-170974657D01*
X102962194Y-170974657D02*
X102890765Y-170831800D01*
X102890765Y-170831800D02*
X102819337Y-170760371D01*
X102819337Y-170760371D02*
X102676479Y-170688942D01*
X102676479Y-170688942D02*
X102390765Y-170617514D01*
X102390765Y-170617514D02*
X102247908Y-170546085D01*
X102247908Y-170546085D02*
X102176479Y-170474657D01*
X102176479Y-170474657D02*
X102105051Y-170331800D01*
X102105051Y-170331800D02*
X102105051Y-170188942D01*
X102105051Y-170188942D02*
X102176479Y-170046085D01*
X102176479Y-170046085D02*
X102247908Y-169974657D01*
X102247908Y-169974657D02*
X102390765Y-169903228D01*
X102390765Y-169903228D02*
X102747908Y-169903228D01*
X102747908Y-169903228D02*
X102962194Y-169974657D01*
X103605050Y-171403228D02*
X103605050Y-169903228D01*
X103605050Y-170617514D02*
X104462193Y-170617514D01*
X104462193Y-171403228D02*
X104462193Y-169903228D01*
X105176479Y-171403228D02*
X105176479Y-169903228D01*
X105890765Y-171403228D02*
X105890765Y-169903228D01*
X105890765Y-169903228D02*
X106747908Y-171403228D01*
X106747908Y-171403228D02*
X106747908Y-169903228D01*
X108247909Y-169974657D02*
X108105052Y-169903228D01*
X108105052Y-169903228D02*
X107890766Y-169903228D01*
X107890766Y-169903228D02*
X107676480Y-169974657D01*
X107676480Y-169974657D02*
X107533623Y-170117514D01*
X107533623Y-170117514D02*
X107462194Y-170260371D01*
X107462194Y-170260371D02*
X107390766Y-170546085D01*
X107390766Y-170546085D02*
X107390766Y-170760371D01*
X107390766Y-170760371D02*
X107462194Y-171046085D01*
X107462194Y-171046085D02*
X107533623Y-171188942D01*
X107533623Y-171188942D02*
X107676480Y-171331800D01*
X107676480Y-171331800D02*
X107890766Y-171403228D01*
X107890766Y-171403228D02*
X108033623Y-171403228D01*
X108033623Y-171403228D02*
X108247909Y-171331800D01*
X108247909Y-171331800D02*
X108319337Y-171260371D01*
X108319337Y-171260371D02*
X108319337Y-170760371D01*
X108319337Y-170760371D02*
X108033623Y-170760371D01*
G36*
X82928516Y-166391494D02*
G01*
X82950150Y-166392270D01*
X82971450Y-166393563D01*
X82992415Y-166395373D01*
X83013047Y-166397700D01*
X83033345Y-166400544D01*
X83053309Y-166403905D01*
X83072939Y-166407783D01*
X83092235Y-166412179D01*
X83111198Y-166417091D01*
X83148120Y-166428468D01*
X83183707Y-166441913D01*
X83217958Y-166457426D01*
X83250874Y-166475007D01*
X83282454Y-166494658D01*
X83312698Y-166516376D01*
X83341606Y-166540163D01*
X83369179Y-166566018D01*
X83395416Y-166593942D01*
X83420317Y-166623934D01*
X83432267Y-166639706D01*
X83443883Y-166655995D01*
X83454973Y-166672759D01*
X83465710Y-166690016D01*
X83476096Y-166707766D01*
X83486129Y-166726009D01*
X83495811Y-166744745D01*
X83505140Y-166763975D01*
X83514118Y-166783698D01*
X83522743Y-166803915D01*
X83531016Y-166824624D01*
X83538937Y-166845827D01*
X83546507Y-166867523D01*
X83553724Y-166889713D01*
X83560589Y-166912395D01*
X83567102Y-166935571D01*
X83573263Y-166959240D01*
X83579072Y-166983403D01*
X83584528Y-167008058D01*
X83589633Y-167033207D01*
X83594386Y-167058849D01*
X83598786Y-167084985D01*
X83602835Y-167111614D01*
X83606532Y-167138735D01*
X83609876Y-167166351D01*
X83612869Y-167194459D01*
X83615509Y-167223061D01*
X83617797Y-167252156D01*
X83619734Y-167281744D01*
X83621318Y-167311825D01*
X83622550Y-167342400D01*
X83623430Y-167373468D01*
X83623958Y-167405029D01*
X83624134Y-167437084D01*
X83624050Y-167459166D01*
X83623798Y-167481021D01*
X83623379Y-167502649D01*
X83622791Y-167524050D01*
X83622035Y-167545223D01*
X83621112Y-167566170D01*
X83620020Y-167586890D01*
X83618761Y-167607382D01*
X83617334Y-167627648D01*
X83615738Y-167647686D01*
X83613975Y-167667497D01*
X83612044Y-167687082D01*
X83607678Y-167725569D01*
X83602641Y-167763148D01*
X83596932Y-167799819D01*
X83590551Y-167835581D01*
X83583498Y-167870435D01*
X83575774Y-167904381D01*
X83567378Y-167937419D01*
X83558311Y-167969548D01*
X83548572Y-168000770D01*
X83538161Y-168031082D01*
X83527109Y-168060414D01*
X83515446Y-168088693D01*
X83503173Y-168115919D01*
X83490289Y-168142091D01*
X83476795Y-168167210D01*
X83462690Y-168191275D01*
X83447974Y-168214287D01*
X83432648Y-168236246D01*
X83416711Y-168257152D01*
X83400164Y-168277004D01*
X83383006Y-168295803D01*
X83365237Y-168313549D01*
X83346858Y-168330242D01*
X83327868Y-168345881D01*
X83308267Y-168360467D01*
X83288056Y-168373999D01*
X83750164Y-168923057D01*
X83282683Y-168923057D01*
X82961259Y-168479024D01*
X82929996Y-168485863D01*
X82914853Y-168485863D01*
X82891618Y-168485595D01*
X82868806Y-168484794D01*
X82846417Y-168483458D01*
X82824453Y-168481588D01*
X82802912Y-168479184D01*
X82781794Y-168476246D01*
X82761100Y-168472773D01*
X82740830Y-168468766D01*
X82720983Y-168464224D01*
X82701560Y-168459149D01*
X82682561Y-168453539D01*
X82663985Y-168447394D01*
X82636916Y-168437176D01*
X82610799Y-168425756D01*
X82593918Y-168417475D01*
X82569392Y-168404124D01*
X82545638Y-168389717D01*
X82522657Y-168374254D01*
X82500449Y-168357734D01*
X82479014Y-168340159D01*
X82458352Y-168321527D01*
X82438462Y-168301839D01*
X82419345Y-168281095D01*
X82401001Y-168259295D01*
X82383430Y-168236439D01*
X82372145Y-168220615D01*
X82360936Y-168203823D01*
X82350082Y-168186541D01*
X82339583Y-168168770D01*
X82329441Y-168150510D01*
X82319655Y-168131760D01*
X82310224Y-168112520D01*
X82301150Y-168092791D01*
X82292431Y-168072573D01*
X82284068Y-168051865D01*
X82276061Y-168030668D01*
X82268410Y-168008982D01*
X82261114Y-167986806D01*
X82254175Y-167964140D01*
X82247591Y-167940985D01*
X82241363Y-167917341D01*
X82235492Y-167893207D01*
X82229976Y-167868584D01*
X82224816Y-167843471D01*
X82220011Y-167817869D01*
X82215563Y-167791778D01*
X82211470Y-167765197D01*
X82207734Y-167738126D01*
X82204353Y-167710567D01*
X82201328Y-167682517D01*
X82198659Y-167653979D01*
X82196346Y-167624950D01*
X82194389Y-167595433D01*
X82192787Y-167565426D01*
X82191542Y-167534929D01*
X82190652Y-167503943D01*
X82190118Y-167472468D01*
X82189940Y-167440503D01*
X82189954Y-167438061D01*
X82610038Y-167438061D01*
X82610107Y-167460271D01*
X82610315Y-167482082D01*
X82610661Y-167503494D01*
X82611145Y-167524507D01*
X82611767Y-167545122D01*
X82612528Y-167565338D01*
X82613427Y-167585155D01*
X82615641Y-167623593D01*
X82618408Y-167660435D01*
X82621728Y-167695683D01*
X82625601Y-167729335D01*
X82630028Y-167761392D01*
X82635009Y-167791853D01*
X82640542Y-167820720D01*
X82646629Y-167847991D01*
X82653269Y-167873667D01*
X82660463Y-167897748D01*
X82668210Y-167920233D01*
X82676511Y-167941124D01*
X82680868Y-167950971D01*
X82690108Y-167970314D01*
X82699996Y-167988409D01*
X82710533Y-168005256D01*
X82727554Y-168028186D01*
X82746035Y-168048309D01*
X82765977Y-168065624D01*
X82787377Y-168080131D01*
X82810238Y-168091831D01*
X82834558Y-168100722D01*
X82860338Y-168106806D01*
X82887578Y-168110082D01*
X82906549Y-168110706D01*
X82935024Y-168109302D01*
X82962013Y-168105090D01*
X82987517Y-168098070D01*
X83011535Y-168088243D01*
X83034068Y-168075608D01*
X83055115Y-168060164D01*
X83074677Y-168041914D01*
X83092753Y-168020855D01*
X83109344Y-167996988D01*
X83119580Y-167979517D01*
X83129155Y-167960798D01*
X83133695Y-167950971D01*
X83142272Y-167930878D01*
X83150296Y-167909190D01*
X83157766Y-167885907D01*
X83164683Y-167861028D01*
X83171047Y-167834555D01*
X83176857Y-167806486D01*
X83182114Y-167776822D01*
X83186818Y-167745563D01*
X83190968Y-167712708D01*
X83194565Y-167678258D01*
X83197608Y-167642213D01*
X83200098Y-167604573D01*
X83202035Y-167565338D01*
X83202796Y-167545122D01*
X83203418Y-167524507D01*
X83203903Y-167503494D01*
X83204248Y-167482082D01*
X83204456Y-167460271D01*
X83204525Y-167438061D01*
X83204456Y-167415911D01*
X83204248Y-167394158D01*
X83203903Y-167372802D01*
X83203418Y-167351843D01*
X83202796Y-167331281D01*
X83202035Y-167311116D01*
X83201136Y-167291347D01*
X83198922Y-167253001D01*
X83196155Y-167216242D01*
X83192835Y-167181071D01*
X83188962Y-167147488D01*
X83184535Y-167115492D01*
X83179555Y-167085084D01*
X83174021Y-167056263D01*
X83167934Y-167029030D01*
X83161294Y-167003385D01*
X83154100Y-166979327D01*
X83146353Y-166956857D01*
X83138052Y-166935974D01*
X83133695Y-166926128D01*
X83124450Y-166906785D01*
X83114545Y-166888690D01*
X83103979Y-166871843D01*
X83086893Y-166848912D01*
X83068322Y-166828789D01*
X83048265Y-166811474D01*
X83026722Y-166796967D01*
X83003694Y-166785268D01*
X82979181Y-166776376D01*
X82953182Y-166770293D01*
X82925697Y-166767017D01*
X82906549Y-166766393D01*
X82878585Y-166767797D01*
X82852029Y-166772009D01*
X82826882Y-166779028D01*
X82803143Y-166788856D01*
X82780811Y-166801491D01*
X82759889Y-166816934D01*
X82740374Y-166835185D01*
X82722268Y-166856244D01*
X82705569Y-166880110D01*
X82695220Y-166897581D01*
X82685496Y-166916300D01*
X82680868Y-166926128D01*
X82672291Y-166946217D01*
X82664268Y-166967893D01*
X82656797Y-166991157D01*
X82649880Y-167016009D01*
X82643516Y-167042448D01*
X82637706Y-167070475D01*
X82632449Y-167100090D01*
X82627746Y-167131292D01*
X82623595Y-167164081D01*
X82619999Y-167198459D01*
X82616955Y-167234423D01*
X82614465Y-167271976D01*
X82612528Y-167311116D01*
X82611767Y-167331281D01*
X82611145Y-167351843D01*
X82610661Y-167372802D01*
X82610315Y-167394158D01*
X82610107Y-167415911D01*
X82610038Y-167438061D01*
X82189954Y-167438061D01*
X82190118Y-167408474D01*
X82190652Y-167376928D01*
X82191542Y-167345864D01*
X82192787Y-167315283D01*
X82194389Y-167285185D01*
X82196346Y-167255569D01*
X82198659Y-167226437D01*
X82201328Y-167197787D01*
X82204353Y-167169620D01*
X82207734Y-167141935D01*
X82211470Y-167114734D01*
X82215563Y-167088015D01*
X82220011Y-167061779D01*
X82224816Y-167036026D01*
X82229976Y-167010755D01*
X82235492Y-166985967D01*
X82241363Y-166961662D01*
X82247591Y-166937840D01*
X82254175Y-166914500D01*
X82261114Y-166891644D01*
X82268410Y-166869270D01*
X82276061Y-166847379D01*
X82284068Y-166825970D01*
X82292431Y-166805044D01*
X82301150Y-166784601D01*
X82310224Y-166764641D01*
X82319655Y-166745164D01*
X82329441Y-166726169D01*
X82339583Y-166707657D01*
X82350082Y-166689628D01*
X82360936Y-166672082D01*
X82372145Y-166655018D01*
X82384270Y-166637917D01*
X82396707Y-166621420D01*
X82409457Y-166605525D01*
X82422521Y-166590233D01*
X82435897Y-166575544D01*
X82449586Y-166561458D01*
X82470706Y-166541460D01*
X82492530Y-166522818D01*
X82515059Y-166505533D01*
X82538292Y-166489605D01*
X82562228Y-166475033D01*
X82586869Y-166461818D01*
X82603688Y-166453762D01*
X82629508Y-166442588D01*
X82655860Y-166432513D01*
X82682745Y-166423537D01*
X82710162Y-166415660D01*
X82738112Y-166408882D01*
X82766594Y-166403204D01*
X82785878Y-166400029D01*
X82805398Y-166397342D01*
X82825155Y-166395144D01*
X82845148Y-166393434D01*
X82865379Y-166392213D01*
X82885845Y-166391480D01*
X82906549Y-166391236D01*
X82928516Y-166391494D01*
G37*
G36*
X83997337Y-166422499D02*
G01*
X85268866Y-166422499D01*
X85268866Y-166766393D01*
X84400827Y-166766393D01*
X84400827Y-167235339D01*
X85191196Y-167235339D01*
X85191196Y-167579233D01*
X84400827Y-167579233D01*
X84400827Y-168454600D01*
X83997337Y-168454600D01*
X83997337Y-166422499D01*
G37*
G36*
X86239686Y-166422644D02*
G01*
X86265319Y-166423079D01*
X86290496Y-166423804D01*
X86315217Y-166424819D01*
X86339482Y-166426124D01*
X86363291Y-166427720D01*
X86386644Y-166429605D01*
X86409541Y-166431780D01*
X86431982Y-166434246D01*
X86453966Y-166437001D01*
X86475495Y-166440046D01*
X86496568Y-166443382D01*
X86517184Y-166447007D01*
X86537345Y-166450923D01*
X86557049Y-166455128D01*
X86576298Y-166459624D01*
X86613426Y-166469485D01*
X86648731Y-166480507D01*
X86682211Y-166492688D01*
X86713867Y-166506030D01*
X86743699Y-166520532D01*
X86771707Y-166536194D01*
X86797891Y-166553016D01*
X86822250Y-166570999D01*
X86844551Y-166590172D01*
X86865412Y-166610810D01*
X86884835Y-166632914D01*
X86902820Y-166656484D01*
X86919365Y-166681519D01*
X86934472Y-166708019D01*
X86948140Y-166735985D01*
X86960369Y-166765416D01*
X86971160Y-166796313D01*
X86980512Y-166828675D01*
X86988425Y-166862503D01*
X86994899Y-166897796D01*
X86999935Y-166934554D01*
X87003532Y-166972778D01*
X87004791Y-166992440D01*
X87005690Y-167012468D01*
X87006229Y-167032862D01*
X87006409Y-167053623D01*
X87006229Y-167074294D01*
X87005690Y-167094606D01*
X87004791Y-167114556D01*
X87003532Y-167134146D01*
X86999935Y-167172244D01*
X86994899Y-167208900D01*
X86988425Y-167244113D01*
X86980512Y-167277883D01*
X86971160Y-167310211D01*
X86960369Y-167341096D01*
X86948140Y-167370539D01*
X86934472Y-167398539D01*
X86919365Y-167425097D01*
X86902820Y-167450212D01*
X86884835Y-167473884D01*
X86865412Y-167496114D01*
X86844551Y-167516902D01*
X86822250Y-167536246D01*
X86797891Y-167554229D01*
X86771707Y-167571051D01*
X86743699Y-167586713D01*
X86713867Y-167601215D01*
X86682211Y-167614557D01*
X86648731Y-167626738D01*
X86613426Y-167637760D01*
X86576298Y-167647621D01*
X86557049Y-167652117D01*
X86537345Y-167656322D01*
X86517184Y-167660238D01*
X86496568Y-167663863D01*
X86475495Y-167667199D01*
X86453966Y-167670244D01*
X86431982Y-167672999D01*
X86409541Y-167675465D01*
X86386644Y-167677640D01*
X86363291Y-167679525D01*
X86339482Y-167681121D01*
X86315217Y-167682426D01*
X86290496Y-167683441D01*
X86265319Y-167684166D01*
X86239686Y-167684601D01*
X86213597Y-167684746D01*
X86063143Y-167684746D01*
X86063143Y-168454600D01*
X85660143Y-168454600D01*
X85660143Y-166746854D01*
X86063143Y-166746854D01*
X86063143Y-167360392D01*
X86228740Y-167360392D01*
X86253243Y-167360124D01*
X86276802Y-167359323D01*
X86299420Y-167357987D01*
X86321094Y-167356117D01*
X86341826Y-167353713D01*
X86361616Y-167350774D01*
X86389532Y-167345365D01*
X86415328Y-167338753D01*
X86439003Y-167330939D01*
X86460557Y-167321923D01*
X86479990Y-167311705D01*
X86497302Y-167300285D01*
X86507665Y-167292004D01*
X86521808Y-167278205D01*
X86534559Y-167262637D01*
X86545919Y-167245301D01*
X86555888Y-167226195D01*
X86564466Y-167205321D01*
X86571653Y-167182678D01*
X86577449Y-167158266D01*
X86581854Y-167132086D01*
X86584868Y-167104136D01*
X86586105Y-167084520D01*
X86586723Y-167064118D01*
X86586800Y-167053623D01*
X86586491Y-167032829D01*
X86585564Y-167012826D01*
X86583013Y-166984303D01*
X86579072Y-166957557D01*
X86573740Y-166932588D01*
X86567016Y-166909397D01*
X86558902Y-166887983D01*
X86549397Y-166868347D01*
X86538500Y-166850488D01*
X86526213Y-166834407D01*
X86512534Y-166820103D01*
X86507665Y-166815730D01*
X86491767Y-166803421D01*
X86473748Y-166792323D01*
X86453608Y-166782435D01*
X86431347Y-166773758D01*
X86406965Y-166766292D01*
X86380463Y-166760037D01*
X86351839Y-166754992D01*
X86331578Y-166752302D01*
X86310375Y-166750149D01*
X86288229Y-166748535D01*
X86265140Y-166747459D01*
X86241109Y-166746921D01*
X86228740Y-166746854D01*
X86063143Y-166746854D01*
X85660143Y-166746854D01*
X85660143Y-166422499D01*
X86213597Y-166422499D01*
X86239686Y-166422644D01*
G37*
G36*
X87875914Y-168485863D02*
G01*
X87853214Y-168485719D01*
X87830300Y-168485290D01*
X87807170Y-168484575D01*
X87783827Y-168483573D01*
X87760268Y-168482285D01*
X87736495Y-168480711D01*
X87726926Y-168480001D01*
X87703136Y-168478131D01*
X87679394Y-168475879D01*
X87655699Y-168473246D01*
X87632053Y-168470231D01*
X87608454Y-168466835D01*
X87584902Y-168463056D01*
X87575495Y-168461438D01*
X87553594Y-168457784D01*
X87531550Y-168453844D01*
X87509363Y-168449617D01*
X87487033Y-168445105D01*
X87464560Y-168440306D01*
X87441944Y-168435220D01*
X87432857Y-168433106D01*
X87410265Y-168427584D01*
X87387672Y-168421705D01*
X87365080Y-168415468D01*
X87342487Y-168408873D01*
X87319895Y-168401920D01*
X87297303Y-168394609D01*
X87288266Y-168391585D01*
X87288266Y-168022290D01*
X87312534Y-168034982D01*
X87337164Y-168047048D01*
X87362154Y-168058487D01*
X87387504Y-168069299D01*
X87413216Y-168079484D01*
X87439288Y-168089042D01*
X87465720Y-168097974D01*
X87492514Y-168106279D01*
X87519667Y-168113957D01*
X87547182Y-168121008D01*
X87565725Y-168125360D01*
X87585211Y-168129848D01*
X87604591Y-168134031D01*
X87623863Y-168137908D01*
X87647803Y-168142325D01*
X87671576Y-168146266D01*
X87695182Y-168149729D01*
X87718621Y-168152715D01*
X87741832Y-168155248D01*
X87764446Y-168157352D01*
X87786463Y-168159027D01*
X87807885Y-168160272D01*
X87828710Y-168161087D01*
X87848938Y-168161474D01*
X87856863Y-168161508D01*
X87879150Y-168161218D01*
X87900827Y-168160348D01*
X87921893Y-168158898D01*
X87942348Y-168156867D01*
X87962193Y-168154257D01*
X87986140Y-168150178D01*
X88009133Y-168145193D01*
X88018063Y-168142946D01*
X88039849Y-168136432D01*
X88060634Y-168128797D01*
X88080417Y-168120041D01*
X88099198Y-168110164D01*
X88116977Y-168099166D01*
X88133754Y-168087046D01*
X88140185Y-168081885D01*
X88157033Y-168066105D01*
X88172224Y-168049175D01*
X88185758Y-168031095D01*
X88197635Y-168011864D01*
X88207855Y-167991482D01*
X88216417Y-167969949D01*
X88223322Y-167947266D01*
X88228570Y-167923432D01*
X88232161Y-167898448D01*
X88234094Y-167872313D01*
X88234462Y-167854251D01*
X88233621Y-167825761D01*
X88231096Y-167798363D01*
X88226889Y-167772055D01*
X88220998Y-167746837D01*
X88213425Y-167722710D01*
X88204169Y-167699673D01*
X88193229Y-167677727D01*
X88180607Y-167656872D01*
X88166301Y-167637107D01*
X88150313Y-167618432D01*
X88138719Y-167606588D01*
X88120893Y-167591470D01*
X88104831Y-167579842D01*
X88087672Y-167569097D01*
X88069416Y-167559234D01*
X88050063Y-167550254D01*
X88029612Y-167542156D01*
X88025390Y-167540643D01*
X88003776Y-167533747D01*
X87981064Y-167528020D01*
X87957255Y-167523462D01*
X87937418Y-167520657D01*
X87916879Y-167518600D01*
X87895637Y-167517291D01*
X87873694Y-167516730D01*
X87868098Y-167516707D01*
X87651699Y-167516707D01*
X87651699Y-167172813D01*
X87868098Y-167172813D01*
X87895467Y-167172298D01*
X87921702Y-167170752D01*
X87946803Y-167168176D01*
X87970772Y-167164570D01*
X87993606Y-167159933D01*
X88015308Y-167154266D01*
X88035876Y-167147568D01*
X88055310Y-167139840D01*
X88073611Y-167131082D01*
X88090779Y-167121293D01*
X88101594Y-167114195D01*
X88120828Y-167099014D01*
X88137498Y-167082291D01*
X88151603Y-167064026D01*
X88163143Y-167044219D01*
X88172119Y-167022871D01*
X88178531Y-166999981D01*
X88182378Y-166975549D01*
X88183660Y-166949575D01*
X88182939Y-166929218D01*
X88180775Y-166909727D01*
X88175646Y-166885089D01*
X88167952Y-166861993D01*
X88157694Y-166840439D01*
X88144871Y-166820426D01*
X88129484Y-166801955D01*
X88111532Y-166785026D01*
X88101594Y-166777140D01*
X88080589Y-166762714D01*
X88063233Y-166753157D01*
X88044502Y-166744682D01*
X88024398Y-166737289D01*
X88002920Y-166730978D01*
X87980068Y-166725748D01*
X87955842Y-166721601D01*
X87930243Y-166718536D01*
X87903269Y-166716552D01*
X87874922Y-166715651D01*
X87865167Y-166715590D01*
X87844874Y-166715831D01*
X87823928Y-166716552D01*
X87802330Y-166717754D01*
X87780079Y-166719437D01*
X87757176Y-166721601D01*
X87749396Y-166722429D01*
X87729926Y-166724781D01*
X87710289Y-166727562D01*
X87690484Y-166730773D01*
X87670513Y-166734412D01*
X87650375Y-166738482D01*
X87630070Y-166742980D01*
X87621901Y-166744900D01*
X87602464Y-166749365D01*
X87582622Y-166754211D01*
X87562374Y-166759440D01*
X87541721Y-166765050D01*
X87520662Y-166771041D01*
X87499198Y-166777414D01*
X87490499Y-166780071D01*
X87468646Y-166786942D01*
X87446745Y-166794124D01*
X87424796Y-166801616D01*
X87402800Y-166809418D01*
X87380756Y-166817530D01*
X87358665Y-166825952D01*
X87349815Y-166829408D01*
X87349815Y-166477698D01*
X87376408Y-166469989D01*
X87402880Y-166462614D01*
X87429233Y-166455574D01*
X87455465Y-166448870D01*
X87481577Y-166442500D01*
X87507569Y-166436465D01*
X87533440Y-166430765D01*
X87559192Y-166425399D01*
X87584823Y-166420369D01*
X87610334Y-166415674D01*
X87627275Y-166412729D01*
X87652564Y-166408888D01*
X87677690Y-166405425D01*
X87702653Y-166402339D01*
X87727452Y-166399632D01*
X87752089Y-166397302D01*
X87776562Y-166395350D01*
X87800873Y-166393776D01*
X87825020Y-166392579D01*
X87849004Y-166391761D01*
X87872825Y-166391320D01*
X87888614Y-166391236D01*
X87908864Y-166391369D01*
X87928823Y-166391768D01*
X87948492Y-166392434D01*
X87986960Y-166394563D01*
X88024268Y-166397757D01*
X88060416Y-166402016D01*
X88095404Y-166407340D01*
X88129232Y-166413729D01*
X88161899Y-166421182D01*
X88193407Y-166429700D01*
X88223754Y-166439283D01*
X88252941Y-166449930D01*
X88280968Y-166461642D01*
X88307834Y-166474419D01*
X88333541Y-166488261D01*
X88358087Y-166503167D01*
X88381474Y-166519139D01*
X88392732Y-166527523D01*
X88414618Y-166544903D01*
X88435093Y-166563091D01*
X88454155Y-166582089D01*
X88471805Y-166601895D01*
X88488044Y-166622511D01*
X88502870Y-166643936D01*
X88516284Y-166666169D01*
X88528286Y-166689212D01*
X88538877Y-166713064D01*
X88548055Y-166737725D01*
X88555821Y-166763195D01*
X88562175Y-166789474D01*
X88567117Y-166816562D01*
X88570647Y-166844459D01*
X88572765Y-166873165D01*
X88573471Y-166902680D01*
X88573097Y-166923601D01*
X88571975Y-166944110D01*
X88570105Y-166964207D01*
X88567487Y-166983891D01*
X88564121Y-167003163D01*
X88558862Y-167026674D01*
X88552434Y-167049541D01*
X88549536Y-167058507D01*
X88541269Y-167080508D01*
X88531427Y-167101937D01*
X88520012Y-167122793D01*
X88507022Y-167143076D01*
X88495497Y-167158891D01*
X88482964Y-167174340D01*
X88469424Y-167189422D01*
X88449138Y-167209801D01*
X88427298Y-167228806D01*
X88403903Y-167246437D01*
X88387444Y-167257428D01*
X88370293Y-167267808D01*
X88352452Y-167277578D01*
X88333920Y-167286737D01*
X88314698Y-167295286D01*
X88294784Y-167303223D01*
X88274180Y-167310551D01*
X88252885Y-167317267D01*
X88230899Y-167323373D01*
X88208223Y-167328869D01*
X88184856Y-167333754D01*
X88172913Y-167335967D01*
X88199862Y-167341173D01*
X88225998Y-167347141D01*
X88251321Y-167353873D01*
X88275831Y-167361369D01*
X88299528Y-167369627D01*
X88322413Y-167378649D01*
X88344484Y-167388434D01*
X88365743Y-167398982D01*
X88386189Y-167410293D01*
X88405822Y-167422368D01*
X88424642Y-167435206D01*
X88442649Y-167448807D01*
X88459843Y-167463172D01*
X88476225Y-167478300D01*
X88491793Y-167494191D01*
X88506549Y-167510845D01*
X88520450Y-167527954D01*
X88533454Y-167545818D01*
X88545561Y-167564437D01*
X88556771Y-167583813D01*
X88567085Y-167603944D01*
X88576502Y-167624830D01*
X88585021Y-167646472D01*
X88592644Y-167668870D01*
X88599371Y-167692024D01*
X88605200Y-167715933D01*
X88610133Y-167740598D01*
X88614168Y-167766018D01*
X88617307Y-167792194D01*
X88619549Y-167819125D01*
X88620895Y-167846813D01*
X88621343Y-167875255D01*
X88620605Y-167911600D01*
X88618389Y-167946872D01*
X88614697Y-167981072D01*
X88609528Y-168014199D01*
X88602882Y-168046254D01*
X88594759Y-168077237D01*
X88585159Y-168107147D01*
X88574082Y-168135985D01*
X88561528Y-168163750D01*
X88547498Y-168190443D01*
X88531990Y-168216064D01*
X88515006Y-168240612D01*
X88496544Y-168264088D01*
X88476606Y-168286492D01*
X88455191Y-168307823D01*
X88432299Y-168328082D01*
X88408029Y-168347188D01*
X88382359Y-168365062D01*
X88355288Y-168381703D01*
X88326817Y-168397111D01*
X88296945Y-168411286D01*
X88265672Y-168424229D01*
X88232999Y-168435940D01*
X88198925Y-168446417D01*
X88163451Y-168455662D01*
X88126576Y-168463675D01*
X88088300Y-168470454D01*
X88068637Y-168473382D01*
X88048624Y-168476001D01*
X88028261Y-168478313D01*
X88007547Y-168480316D01*
X87986484Y-168482011D01*
X87965070Y-168483397D01*
X87943306Y-168484476D01*
X87921192Y-168485246D01*
X87898728Y-168485709D01*
X87875914Y-168485863D01*
G37*
G36*
X88958887Y-168162974D02*
G01*
X88960523Y-168143282D01*
X88966400Y-168121750D01*
X88975049Y-168103762D01*
X88986970Y-168086568D01*
X88993081Y-168079442D01*
X89177728Y-167885025D01*
X89196586Y-167865022D01*
X89214937Y-167845557D01*
X89232780Y-167826630D01*
X89250116Y-167808241D01*
X89266944Y-167790391D01*
X89283264Y-167773078D01*
X89299077Y-167756303D01*
X89314382Y-167740067D01*
X89329180Y-167724369D01*
X89343470Y-167709208D01*
X89357252Y-167694586D01*
X89376975Y-167673662D01*
X89395555Y-167653949D01*
X89412993Y-167635446D01*
X89418552Y-167629547D01*
X89434803Y-167612388D01*
X89450402Y-167595899D01*
X89465349Y-167580079D01*
X89479643Y-167564930D01*
X89493284Y-167550450D01*
X89510458Y-167532185D01*
X89526471Y-167515111D01*
X89541324Y-167499227D01*
X89555017Y-167484535D01*
X89558259Y-167481048D01*
X89574037Y-167464024D01*
X89589314Y-167447455D01*
X89604090Y-167431338D01*
X89618365Y-167415674D01*
X89632140Y-167400464D01*
X89645413Y-167385707D01*
X89650582Y-167379931D01*
X89666112Y-167362016D01*
X89680950Y-167344602D01*
X89695097Y-167327688D01*
X89708552Y-167311276D01*
X89721315Y-167295364D01*
X89733386Y-167279954D01*
X89738021Y-167273930D01*
X89751445Y-167255909D01*
X89763873Y-167237751D01*
X89775305Y-167219456D01*
X89785740Y-167201023D01*
X89795180Y-167182453D01*
X89798105Y-167176232D01*
X89808752Y-167153289D01*
X89817980Y-167130376D01*
X89825788Y-167107493D01*
X89832177Y-167084641D01*
X89837146Y-167061820D01*
X89840695Y-167039029D01*
X89842824Y-167016269D01*
X89843534Y-166993539D01*
X89842800Y-166969752D01*
X89840598Y-166946936D01*
X89836927Y-166925090D01*
X89831788Y-166904215D01*
X89825180Y-166884309D01*
X89817104Y-166865374D01*
X89807560Y-166847410D01*
X89796548Y-166830415D01*
X89784067Y-166814391D01*
X89770118Y-166799337D01*
X89760003Y-166789840D01*
X89743753Y-166776571D01*
X89726326Y-166764607D01*
X89707723Y-166753948D01*
X89687944Y-166744594D01*
X89666988Y-166736546D01*
X89644856Y-166729802D01*
X89621547Y-166724364D01*
X89597063Y-166720231D01*
X89571401Y-166717403D01*
X89544564Y-166715880D01*
X89526018Y-166715590D01*
X89504636Y-166715990D01*
X89482988Y-166717188D01*
X89461073Y-166719184D01*
X89438892Y-166721979D01*
X89416446Y-166725572D01*
X89393732Y-166729965D01*
X89370753Y-166735155D01*
X89347507Y-166741144D01*
X89323996Y-166747932D01*
X89300218Y-166755518D01*
X89284218Y-166761020D01*
X89263221Y-166768585D01*
X89242058Y-166776628D01*
X89220727Y-166785148D01*
X89199229Y-166794145D01*
X89177565Y-166803619D01*
X89155733Y-166813570D01*
X89146954Y-166817684D01*
X89129307Y-166826179D01*
X89111538Y-166835056D01*
X89093648Y-166844314D01*
X89075635Y-166853954D01*
X89057500Y-166863976D01*
X89039242Y-166874379D01*
X89020863Y-166885164D01*
X89002362Y-166896330D01*
X89002362Y-166505053D01*
X89022748Y-166497398D01*
X89042876Y-166490063D01*
X89062743Y-166483048D01*
X89082351Y-166476355D01*
X89101700Y-166469981D01*
X89120789Y-166463929D01*
X89139619Y-166458197D01*
X89158189Y-166452785D01*
X89180974Y-166446307D01*
X89202925Y-166440306D01*
X89224041Y-166434782D01*
X89244323Y-166429735D01*
X89263769Y-166425165D01*
X89286003Y-166420310D01*
X89289591Y-166419568D01*
X89315901Y-166414505D01*
X89342073Y-166409940D01*
X89368108Y-166405872D01*
X89394005Y-166402303D01*
X89419765Y-166399232D01*
X89445388Y-166396659D01*
X89470873Y-166394584D01*
X89496221Y-166393007D01*
X89521431Y-166391928D01*
X89546504Y-166391347D01*
X89563143Y-166391236D01*
X89590903Y-166391554D01*
X89618310Y-166392507D01*
X89645365Y-166394095D01*
X89672068Y-166396319D01*
X89698419Y-166399179D01*
X89724418Y-166402673D01*
X89750065Y-166406804D01*
X89775360Y-166411569D01*
X89800303Y-166416970D01*
X89824893Y-166423007D01*
X89841092Y-166427384D01*
X89865080Y-166434527D01*
X89888502Y-166442399D01*
X89911356Y-166451001D01*
X89933645Y-166460334D01*
X89955366Y-166470396D01*
X89976521Y-166481188D01*
X89997109Y-166492710D01*
X90017130Y-166504962D01*
X90036584Y-166517943D01*
X90055472Y-166531655D01*
X90067749Y-166541201D01*
X90083800Y-166554848D01*
X90099165Y-166569045D01*
X90113842Y-166583791D01*
X90127833Y-166599087D01*
X90141136Y-166614932D01*
X90153753Y-166631327D01*
X90165683Y-166648271D01*
X90176926Y-166665765D01*
X90187482Y-166683808D01*
X90197350Y-166702401D01*
X90203548Y-166715102D01*
X90212278Y-166734592D01*
X90220149Y-166754778D01*
X90227161Y-166775659D01*
X90233315Y-166797236D01*
X90238610Y-166819509D01*
X90243047Y-166842476D01*
X90246625Y-166866140D01*
X90249344Y-166890499D01*
X90251204Y-166915553D01*
X90252206Y-166941303D01*
X90252397Y-166958856D01*
X90252036Y-166979796D01*
X90250954Y-167000668D01*
X90249151Y-167021470D01*
X90246626Y-167042204D01*
X90243381Y-167062869D01*
X90239414Y-167083466D01*
X90234725Y-167103994D01*
X90229316Y-167124453D01*
X90223185Y-167144843D01*
X90216333Y-167165165D01*
X90211364Y-167178675D01*
X90201516Y-167201395D01*
X90191025Y-167223944D01*
X90179889Y-167246321D01*
X90168110Y-167268526D01*
X90155687Y-167290559D01*
X90142619Y-167312421D01*
X90128908Y-167334111D01*
X90114552Y-167355629D01*
X90099553Y-167376975D01*
X90083909Y-167398150D01*
X90073122Y-167412171D01*
X90060468Y-167427413D01*
X90046439Y-167443831D01*
X90031036Y-167461424D01*
X90014260Y-167480193D01*
X90000776Y-167495040D01*
X89986519Y-167510549D01*
X89971490Y-167526719D01*
X89955687Y-167543551D01*
X89939112Y-167561043D01*
X89933416Y-167567021D01*
X89915623Y-167585683D01*
X89896499Y-167605581D01*
X89876044Y-167626715D01*
X89861668Y-167641492D01*
X89846700Y-167656818D01*
X89831141Y-167672694D01*
X89814991Y-167689120D01*
X89798249Y-167706094D01*
X89780915Y-167723619D01*
X89762990Y-167741693D01*
X89744473Y-167760316D01*
X89725365Y-167779489D01*
X89705665Y-167799212D01*
X89685374Y-167819484D01*
X89675007Y-167829826D01*
X89656691Y-167848226D01*
X89639114Y-167865690D01*
X89622276Y-167882218D01*
X89606176Y-167897810D01*
X89590814Y-167912466D01*
X89576191Y-167926186D01*
X89557843Y-167943023D01*
X89540807Y-167958197D01*
X89525083Y-167971707D01*
X89517714Y-167977837D01*
X89500379Y-167991955D01*
X89484093Y-168005000D01*
X89465935Y-168019237D01*
X89449288Y-168031928D01*
X89431777Y-168044781D01*
X89424902Y-168049645D01*
X89407103Y-168062620D01*
X89391579Y-168075226D01*
X89376101Y-168089000D01*
X89360670Y-168103944D01*
X89354072Y-168110706D01*
X90254839Y-168110706D01*
X90254839Y-168454600D01*
X88958887Y-168454600D01*
X88958887Y-168162974D01*
G37*
G36*
X90788266Y-167422918D02*
G01*
X91869284Y-167422918D01*
X91869284Y-167829338D01*
X90788266Y-167829338D01*
X90788266Y-167422918D01*
G37*
G36*
X92820670Y-166422730D02*
G01*
X92851196Y-166423424D01*
X92881170Y-166424581D01*
X92910591Y-166426201D01*
X92939460Y-166428283D01*
X92967776Y-166430828D01*
X92995540Y-166433836D01*
X93022752Y-166437306D01*
X93049411Y-166441239D01*
X93075518Y-166445635D01*
X93101072Y-166450494D01*
X93126074Y-166455815D01*
X93150524Y-166461599D01*
X93174421Y-166467846D01*
X93197766Y-166474556D01*
X93220558Y-166481728D01*
X93242798Y-166489363D01*
X93264485Y-166497461D01*
X93285620Y-166506021D01*
X93306203Y-166515044D01*
X93326233Y-166524530D01*
X93345711Y-166534479D01*
X93364637Y-166544890D01*
X93383010Y-166555764D01*
X93400831Y-166567101D01*
X93418099Y-166578900D01*
X93434815Y-166591163D01*
X93450978Y-166603887D01*
X93466589Y-166617075D01*
X93481648Y-166630726D01*
X93496154Y-166644839D01*
X93510108Y-166659415D01*
X93523398Y-166674306D01*
X93536280Y-166689792D01*
X93548754Y-166705874D01*
X93560819Y-166722551D01*
X93572476Y-166739824D01*
X93583724Y-166757692D01*
X93594564Y-166776155D01*
X93604996Y-166795214D01*
X93615020Y-166814868D01*
X93624635Y-166835117D01*
X93633842Y-166855961D01*
X93642640Y-166877401D01*
X93651030Y-166899437D01*
X93659012Y-166922067D01*
X93666585Y-166945293D01*
X93673751Y-166969115D01*
X93680553Y-166993501D01*
X93686917Y-167018543D01*
X93692842Y-167044242D01*
X93698327Y-167070597D01*
X93703374Y-167097609D01*
X93707983Y-167125277D01*
X93712152Y-167153602D01*
X93715882Y-167182583D01*
X93719174Y-167212220D01*
X93722027Y-167242514D01*
X93724440Y-167273464D01*
X93726415Y-167305071D01*
X93727951Y-167337333D01*
X93729049Y-167370253D01*
X93729707Y-167403829D01*
X93729926Y-167438061D01*
X93729712Y-167471354D01*
X93729068Y-167504065D01*
X93727994Y-167536196D01*
X93726492Y-167567746D01*
X93724560Y-167598715D01*
X93722198Y-167629103D01*
X93719408Y-167658909D01*
X93716188Y-167688135D01*
X93712538Y-167716780D01*
X93708460Y-167744843D01*
X93703952Y-167772326D01*
X93699014Y-167799227D01*
X93693648Y-167825548D01*
X93687852Y-167851287D01*
X93681626Y-167876446D01*
X93674972Y-167901023D01*
X93667888Y-167925019D01*
X93660374Y-167948435D01*
X93652432Y-167971269D01*
X93644060Y-167993522D01*
X93635258Y-168015195D01*
X93626028Y-168036286D01*
X93616368Y-168056796D01*
X93606278Y-168076725D01*
X93595760Y-168096073D01*
X93584812Y-168114841D01*
X93573434Y-168133027D01*
X93561628Y-168150632D01*
X93549392Y-168167656D01*
X93536726Y-168184099D01*
X93523632Y-168199961D01*
X93510108Y-168215242D01*
X93496065Y-168229968D01*
X93481476Y-168244226D01*
X93466340Y-168258017D01*
X93450658Y-168271341D01*
X93434428Y-168284197D01*
X93417652Y-168296586D01*
X93400330Y-168308507D01*
X93382460Y-168319961D01*
X93364044Y-168330947D01*
X93345082Y-168341465D01*
X93325572Y-168351517D01*
X93305516Y-168361100D01*
X93284914Y-168370216D01*
X93263764Y-168378865D01*
X93242068Y-168387046D01*
X93219825Y-168394760D01*
X93197036Y-168402006D01*
X93173700Y-168408785D01*
X93149817Y-168415096D01*
X93125387Y-168420940D01*
X93100411Y-168426316D01*
X93074888Y-168431225D01*
X93048818Y-168435666D01*
X93022202Y-168439640D01*
X92995039Y-168443146D01*
X92967330Y-168446185D01*
X92939073Y-168448756D01*
X92910270Y-168450860D01*
X92880921Y-168452496D01*
X92851024Y-168453665D01*
X92820581Y-168454366D01*
X92789591Y-168454600D01*
X92357282Y-168454600D01*
X92357282Y-166797656D01*
X92760771Y-166797656D01*
X92760771Y-168079442D01*
X92870192Y-168079442D01*
X92899394Y-168078870D01*
X92927528Y-168077153D01*
X92954593Y-168074290D01*
X92980589Y-168070283D01*
X93005517Y-168065131D01*
X93029377Y-168058834D01*
X93052168Y-168051393D01*
X93073890Y-168042806D01*
X93094544Y-168033075D01*
X93114129Y-168022198D01*
X93132646Y-168010177D01*
X93150094Y-167997011D01*
X93166473Y-167982699D01*
X93181784Y-167967243D01*
X93196027Y-167950643D01*
X93209201Y-167932897D01*
X93221445Y-167913728D01*
X93232900Y-167892978D01*
X93243564Y-167870649D01*
X93253439Y-167846740D01*
X93262524Y-167821251D01*
X93270819Y-167794182D01*
X93278323Y-167765533D01*
X93285038Y-167735304D01*
X93290963Y-167703496D01*
X93296098Y-167670107D01*
X93300442Y-167635138D01*
X93303997Y-167598589D01*
X93306762Y-167560461D01*
X93307848Y-167540804D01*
X93308737Y-167520752D01*
X93309428Y-167500305D01*
X93309922Y-167479464D01*
X93310218Y-167458227D01*
X93310317Y-167436595D01*
X93310218Y-167415114D01*
X93309922Y-167394025D01*
X93309428Y-167373326D01*
X93308737Y-167353018D01*
X93307848Y-167333102D01*
X93306762Y-167313577D01*
X93303997Y-167275700D01*
X93300442Y-167239388D01*
X93296098Y-167204641D01*
X93290963Y-167171458D01*
X93285038Y-167139840D01*
X93278323Y-167109787D01*
X93270819Y-167081298D01*
X93262524Y-167054374D01*
X93253439Y-167029015D01*
X93243564Y-167005220D01*
X93232900Y-166982991D01*
X93221445Y-166962325D01*
X93209201Y-166943225D01*
X93196199Y-166925597D01*
X93182105Y-166909107D01*
X93166920Y-166893754D01*
X93150643Y-166879538D01*
X93133275Y-166866460D01*
X93114816Y-166854519D01*
X93095265Y-166843715D01*
X93074623Y-166834048D01*
X93052889Y-166825519D01*
X93030064Y-166818127D01*
X93006147Y-166811872D01*
X92981139Y-166806754D01*
X92955039Y-166802774D01*
X92927848Y-166799931D01*
X92899566Y-166798225D01*
X92870192Y-166797656D01*
X92760771Y-166797656D01*
X92357282Y-166797656D01*
X92357282Y-166422499D01*
X92789591Y-166422499D01*
X92820670Y-166422730D01*
G37*
G36*
X94089452Y-168110706D02*
G01*
X94495872Y-168110706D01*
X94495872Y-166766393D01*
X94089452Y-166766393D01*
X94089452Y-166422499D01*
X95305293Y-166422499D01*
X95305293Y-166766393D01*
X94898873Y-166766393D01*
X94898873Y-168110706D01*
X95305293Y-168110706D01*
X95305293Y-168454600D01*
X94089452Y-168454600D01*
X94089452Y-168110706D01*
G37*
G36*
X96345478Y-166422644D02*
G01*
X96371111Y-166423079D01*
X96396288Y-166423804D01*
X96421009Y-166424819D01*
X96445274Y-166426124D01*
X96469083Y-166427720D01*
X96492436Y-166429605D01*
X96515333Y-166431780D01*
X96537774Y-166434246D01*
X96559758Y-166437001D01*
X96581287Y-166440046D01*
X96602360Y-166443382D01*
X96622976Y-166447007D01*
X96643137Y-166450923D01*
X96662841Y-166455128D01*
X96682090Y-166459624D01*
X96719218Y-166469485D01*
X96754523Y-166480507D01*
X96788003Y-166492688D01*
X96819659Y-166506030D01*
X96849491Y-166520532D01*
X96877499Y-166536194D01*
X96903683Y-166553016D01*
X96928042Y-166570999D01*
X96950343Y-166590172D01*
X96971204Y-166610810D01*
X96990628Y-166632914D01*
X97008612Y-166656484D01*
X97025157Y-166681519D01*
X97040264Y-166708019D01*
X97053932Y-166735985D01*
X97066162Y-166765416D01*
X97076952Y-166796313D01*
X97086304Y-166828675D01*
X97094217Y-166862503D01*
X97100691Y-166897796D01*
X97105727Y-166934554D01*
X97109324Y-166972778D01*
X97110583Y-166992440D01*
X97111482Y-167012468D01*
X97112021Y-167032862D01*
X97112201Y-167053623D01*
X97112021Y-167074294D01*
X97111482Y-167094606D01*
X97110583Y-167114556D01*
X97109324Y-167134146D01*
X97105727Y-167172244D01*
X97100691Y-167208900D01*
X97094217Y-167244113D01*
X97086304Y-167277883D01*
X97076952Y-167310211D01*
X97066162Y-167341096D01*
X97053932Y-167370539D01*
X97040264Y-167398539D01*
X97025157Y-167425097D01*
X97008612Y-167450212D01*
X96990628Y-167473884D01*
X96971204Y-167496114D01*
X96950343Y-167516902D01*
X96928042Y-167536246D01*
X96903683Y-167554229D01*
X96877499Y-167571051D01*
X96849491Y-167586713D01*
X96819659Y-167601215D01*
X96788003Y-167614557D01*
X96754523Y-167626738D01*
X96719218Y-167637760D01*
X96682090Y-167647621D01*
X96662841Y-167652117D01*
X96643137Y-167656322D01*
X96622976Y-167660238D01*
X96602360Y-167663863D01*
X96581287Y-167667199D01*
X96559758Y-167670244D01*
X96537774Y-167672999D01*
X96515333Y-167675465D01*
X96492436Y-167677640D01*
X96469083Y-167679525D01*
X96445274Y-167681121D01*
X96421009Y-167682426D01*
X96396288Y-167683441D01*
X96371111Y-167684166D01*
X96345478Y-167684601D01*
X96319389Y-167684746D01*
X96168935Y-167684746D01*
X96168935Y-168454600D01*
X95765935Y-168454600D01*
X95765935Y-166746854D01*
X96168935Y-166746854D01*
X96168935Y-167360392D01*
X96334532Y-167360392D01*
X96359035Y-167360124D01*
X96382595Y-167359323D01*
X96405212Y-167357987D01*
X96426886Y-167356117D01*
X96447618Y-167353713D01*
X96467408Y-167350774D01*
X96495325Y-167345365D01*
X96521120Y-167338753D01*
X96544795Y-167330939D01*
X96566349Y-167321923D01*
X96585782Y-167311705D01*
X96603094Y-167300285D01*
X96613457Y-167292004D01*
X96627600Y-167278205D01*
X96640351Y-167262637D01*
X96651711Y-167245301D01*
X96661680Y-167226195D01*
X96670258Y-167205321D01*
X96677445Y-167182678D01*
X96683241Y-167158266D01*
X96687646Y-167132086D01*
X96690660Y-167104136D01*
X96691897Y-167084520D01*
X96692515Y-167064118D01*
X96692592Y-167053623D01*
X96692283Y-167032829D01*
X96691356Y-167012826D01*
X96688805Y-166984303D01*
X96684864Y-166957557D01*
X96679532Y-166932588D01*
X96672808Y-166909397D01*
X96664694Y-166887983D01*
X96655189Y-166868347D01*
X96644292Y-166850488D01*
X96632005Y-166834407D01*
X96618326Y-166820103D01*
X96613457Y-166815730D01*
X96597559Y-166803421D01*
X96579540Y-166792323D01*
X96559400Y-166782435D01*
X96537139Y-166773758D01*
X96512757Y-166766292D01*
X96486255Y-166760037D01*
X96457631Y-166754992D01*
X96437370Y-166752302D01*
X96416167Y-166750149D01*
X96394021Y-166748535D01*
X96370932Y-166747459D01*
X96346901Y-166746921D01*
X96334532Y-166746854D01*
X96168935Y-166746854D01*
X95765935Y-166746854D01*
X95765935Y-166422499D01*
X96319389Y-166422499D01*
X96345478Y-166422644D01*
G37*
G36*
X97380380Y-168162974D02*
G01*
X97382016Y-168143282D01*
X97387893Y-168121750D01*
X97396542Y-168103762D01*
X97408463Y-168086568D01*
X97414574Y-168079442D01*
X97599222Y-167885025D01*
X97618080Y-167865022D01*
X97636430Y-167845557D01*
X97654274Y-167826630D01*
X97671609Y-167808241D01*
X97688437Y-167790391D01*
X97704757Y-167773078D01*
X97720570Y-167756303D01*
X97735875Y-167740067D01*
X97750673Y-167724369D01*
X97764963Y-167709208D01*
X97778746Y-167694586D01*
X97798468Y-167673662D01*
X97817048Y-167653949D01*
X97834486Y-167635446D01*
X97840045Y-167629547D01*
X97856297Y-167612388D01*
X97871896Y-167595899D01*
X97886842Y-167580079D01*
X97901136Y-167564930D01*
X97914778Y-167550450D01*
X97931951Y-167532185D01*
X97947964Y-167515111D01*
X97962817Y-167499227D01*
X97976510Y-167484535D01*
X97979752Y-167481048D01*
X97995530Y-167464024D01*
X98010807Y-167447455D01*
X98025583Y-167431338D01*
X98039859Y-167415674D01*
X98053633Y-167400464D01*
X98066907Y-167385707D01*
X98072076Y-167379931D01*
X98087606Y-167362016D01*
X98102444Y-167344602D01*
X98116590Y-167327688D01*
X98130045Y-167311276D01*
X98142808Y-167295364D01*
X98154880Y-167279954D01*
X98159515Y-167273930D01*
X98172938Y-167255909D01*
X98185366Y-167237751D01*
X98196798Y-167219456D01*
X98207234Y-167201023D01*
X98216673Y-167182453D01*
X98219598Y-167176232D01*
X98230246Y-167153289D01*
X98239474Y-167130376D01*
X98247282Y-167107493D01*
X98253670Y-167084641D01*
X98258639Y-167061820D01*
X98262188Y-167039029D01*
X98264318Y-167016269D01*
X98265028Y-166993539D01*
X98264293Y-166969752D01*
X98262091Y-166946936D01*
X98258420Y-166925090D01*
X98253281Y-166904215D01*
X98246674Y-166884309D01*
X98238598Y-166865374D01*
X98229054Y-166847410D01*
X98218041Y-166830415D01*
X98205561Y-166814391D01*
X98191612Y-166799337D01*
X98181496Y-166789840D01*
X98165246Y-166776571D01*
X98147820Y-166764607D01*
X98129217Y-166753948D01*
X98109437Y-166744594D01*
X98088481Y-166736546D01*
X98066349Y-166729802D01*
X98043041Y-166724364D01*
X98018556Y-166720231D01*
X97992895Y-166717403D01*
X97966057Y-166715880D01*
X97947512Y-166715590D01*
X97926130Y-166715990D01*
X97904481Y-166717188D01*
X97882567Y-166719184D01*
X97860386Y-166721979D01*
X97837939Y-166725572D01*
X97815226Y-166729965D01*
X97792246Y-166735155D01*
X97769001Y-166741144D01*
X97745489Y-166747932D01*
X97721711Y-166755518D01*
X97705711Y-166761020D01*
X97684715Y-166768585D01*
X97663551Y-166776628D01*
X97642220Y-166785148D01*
X97620723Y-166794145D01*
X97599058Y-166803619D01*
X97577226Y-166813570D01*
X97568447Y-166817684D01*
X97550800Y-166826179D01*
X97533032Y-166835056D01*
X97515141Y-166844314D01*
X97497128Y-166853954D01*
X97478993Y-166863976D01*
X97460736Y-166874379D01*
X97442357Y-166885164D01*
X97423855Y-166896330D01*
X97423855Y-166505053D01*
X97444242Y-166497398D01*
X97464369Y-166490063D01*
X97484237Y-166483048D01*
X97503845Y-166476355D01*
X97523193Y-166469981D01*
X97542282Y-166463929D01*
X97561112Y-166458197D01*
X97579682Y-166452785D01*
X97602468Y-166446307D01*
X97624419Y-166440306D01*
X97645535Y-166434782D01*
X97665816Y-166429735D01*
X97685262Y-166425165D01*
X97707496Y-166420310D01*
X97711085Y-166419568D01*
X97737394Y-166414505D01*
X97763566Y-166409940D01*
X97789601Y-166405872D01*
X97815499Y-166402303D01*
X97841259Y-166399232D01*
X97866881Y-166396659D01*
X97892366Y-166394584D01*
X97917714Y-166393007D01*
X97942925Y-166391928D01*
X97967998Y-166391347D01*
X97984637Y-166391236D01*
X98012396Y-166391554D01*
X98039803Y-166392507D01*
X98066858Y-166394095D01*
X98093561Y-166396319D01*
X98119912Y-166399179D01*
X98145911Y-166402673D01*
X98171558Y-166406804D01*
X98196853Y-166411569D01*
X98221796Y-166416970D01*
X98246387Y-166423007D01*
X98262585Y-166427384D01*
X98286573Y-166434527D01*
X98309995Y-166442399D01*
X98332850Y-166451001D01*
X98355138Y-166460334D01*
X98376859Y-166470396D01*
X98398014Y-166481188D01*
X98418602Y-166492710D01*
X98438623Y-166504962D01*
X98458078Y-166517943D01*
X98476965Y-166531655D01*
X98489242Y-166541201D01*
X98505294Y-166554848D01*
X98520658Y-166569045D01*
X98535336Y-166583791D01*
X98549326Y-166599087D01*
X98562630Y-166614932D01*
X98575246Y-166631327D01*
X98587176Y-166648271D01*
X98598419Y-166665765D01*
X98608975Y-166683808D01*
X98618844Y-166702401D01*
X98625042Y-166715102D01*
X98633771Y-166734592D01*
X98641642Y-166754778D01*
X98648655Y-166775659D01*
X98654809Y-166797236D01*
X98660104Y-166819509D01*
X98664540Y-166842476D01*
X98668118Y-166866140D01*
X98670837Y-166890499D01*
X98672697Y-166915553D01*
X98673699Y-166941303D01*
X98673890Y-166958856D01*
X98673529Y-166979796D01*
X98672448Y-167000668D01*
X98670644Y-167021470D01*
X98668120Y-167042204D01*
X98664874Y-167062869D01*
X98660907Y-167083466D01*
X98656219Y-167103994D01*
X98650809Y-167124453D01*
X98644678Y-167144843D01*
X98637826Y-167165165D01*
X98632857Y-167178675D01*
X98623010Y-167201395D01*
X98612518Y-167223944D01*
X98601383Y-167246321D01*
X98589603Y-167268526D01*
X98577180Y-167290559D01*
X98564112Y-167312421D01*
X98550401Y-167334111D01*
X98536046Y-167355629D01*
X98521046Y-167376975D01*
X98505403Y-167398150D01*
X98494616Y-167412171D01*
X98481961Y-167427413D01*
X98467932Y-167443831D01*
X98452530Y-167461424D01*
X98435753Y-167480193D01*
X98422269Y-167495040D01*
X98408013Y-167510549D01*
X98392983Y-167526719D01*
X98377181Y-167543551D01*
X98360606Y-167561043D01*
X98354909Y-167567021D01*
X98337116Y-167585683D01*
X98317992Y-167605581D01*
X98297537Y-167626715D01*
X98283161Y-167641492D01*
X98268194Y-167656818D01*
X98252635Y-167672694D01*
X98236484Y-167689120D01*
X98219742Y-167706094D01*
X98202408Y-167723619D01*
X98184483Y-167741693D01*
X98165967Y-167760316D01*
X98146858Y-167779489D01*
X98127159Y-167799212D01*
X98106867Y-167819484D01*
X98096500Y-167829826D01*
X98078185Y-167848226D01*
X98060608Y-167865690D01*
X98043769Y-167882218D01*
X98027669Y-167897810D01*
X98012308Y-167912466D01*
X97997685Y-167926186D01*
X97979336Y-167943023D01*
X97962300Y-167958197D01*
X97946577Y-167971707D01*
X97939208Y-167977837D01*
X97921872Y-167991955D01*
X97905586Y-168005000D01*
X97887428Y-168019237D01*
X97870781Y-168031928D01*
X97853270Y-168044781D01*
X97846395Y-168049645D01*
X97828596Y-168062620D01*
X97813072Y-168075226D01*
X97797594Y-168089000D01*
X97782164Y-168103944D01*
X97775565Y-168110706D01*
X98676333Y-168110706D01*
X98676333Y-168454600D01*
X97380380Y-168454600D01*
X97380380Y-168162974D01*
G37*
G36*
X99784787Y-166391806D02*
G01*
X99819099Y-166393518D01*
X99852472Y-166396371D01*
X99884907Y-166400365D01*
X99916403Y-166405499D01*
X99946960Y-166411775D01*
X99976578Y-166419192D01*
X100005258Y-166427750D01*
X100032998Y-166437449D01*
X100059800Y-166448290D01*
X100085663Y-166460271D01*
X100110588Y-166473393D01*
X100134573Y-166487657D01*
X100157620Y-166503061D01*
X100179727Y-166519607D01*
X100200896Y-166537293D01*
X100220890Y-166555953D01*
X100239594Y-166575418D01*
X100257007Y-166595688D01*
X100273131Y-166616764D01*
X100287965Y-166638644D01*
X100301509Y-166661330D01*
X100313763Y-166684822D01*
X100324727Y-166709118D01*
X100334402Y-166734220D01*
X100342786Y-166760127D01*
X100349881Y-166786839D01*
X100355685Y-166814356D01*
X100360200Y-166842679D01*
X100363425Y-166871807D01*
X100365360Y-166901740D01*
X100366005Y-166932478D01*
X100365695Y-166953025D01*
X100364768Y-166973145D01*
X100363222Y-166992837D01*
X100359745Y-167021573D01*
X100354876Y-167049348D01*
X100348617Y-167076162D01*
X100340966Y-167102013D01*
X100331924Y-167126903D01*
X100321491Y-167150831D01*
X100309667Y-167173798D01*
X100296453Y-167195802D01*
X100286870Y-167209938D01*
X100271392Y-167230668D01*
X100254636Y-167250358D01*
X100236599Y-167269010D01*
X100217284Y-167286623D01*
X100196688Y-167303196D01*
X100174814Y-167318731D01*
X100151660Y-167333227D01*
X100127227Y-167346683D01*
X100101514Y-167359101D01*
X100074522Y-167370480D01*
X100055816Y-167377489D01*
X100076544Y-167384217D01*
X100096719Y-167391578D01*
X100116341Y-167399573D01*
X100135409Y-167408202D01*
X100153923Y-167417464D01*
X100171885Y-167427360D01*
X100189293Y-167437889D01*
X100206148Y-167449052D01*
X100222449Y-167460848D01*
X100238197Y-167473278D01*
X100253391Y-167486341D01*
X100268033Y-167500037D01*
X100282120Y-167514368D01*
X100295655Y-167529331D01*
X100308636Y-167544928D01*
X100321064Y-167561159D01*
X100332658Y-167577831D01*
X100343504Y-167594994D01*
X100353602Y-167612651D01*
X100362951Y-167630799D01*
X100371553Y-167649440D01*
X100379407Y-167668573D01*
X100386513Y-167688198D01*
X100392871Y-167708315D01*
X100398481Y-167728925D01*
X100403343Y-167750028D01*
X100407457Y-167771622D01*
X100410823Y-167793709D01*
X100413441Y-167816288D01*
X100415311Y-167839359D01*
X100416433Y-167862923D01*
X100416807Y-167886979D01*
X100416128Y-167921673D01*
X100414090Y-167955413D01*
X100410693Y-167988199D01*
X100405938Y-168020030D01*
X100399825Y-168050908D01*
X100392352Y-168080832D01*
X100383521Y-168109801D01*
X100373332Y-168137817D01*
X100361784Y-168164878D01*
X100348877Y-168190985D01*
X100334612Y-168216138D01*
X100318988Y-168240337D01*
X100302005Y-168263583D01*
X100283664Y-168285873D01*
X100263964Y-168307210D01*
X100242906Y-168327593D01*
X100220663Y-168346759D01*
X100197286Y-168364688D01*
X100172776Y-168381380D01*
X100147132Y-168396836D01*
X100120355Y-168411056D01*
X100092445Y-168424039D01*
X100063401Y-168435785D01*
X100033224Y-168446295D01*
X100001913Y-168455569D01*
X99969469Y-168463606D01*
X99935891Y-168470407D01*
X99901180Y-168475971D01*
X99865335Y-168480298D01*
X99828357Y-168483390D01*
X99790246Y-168485244D01*
X99751001Y-168485863D01*
X99730176Y-168485702D01*
X99709709Y-168485221D01*
X99689601Y-168484420D01*
X99669851Y-168483298D01*
X99640900Y-168481014D01*
X99612756Y-168478009D01*
X99585419Y-168474282D01*
X99558889Y-168469834D01*
X99533166Y-168464665D01*
X99508250Y-168458775D01*
X99484142Y-168452163D01*
X99460841Y-168444830D01*
X99438386Y-168436744D01*
X99416636Y-168428057D01*
X99395590Y-168418769D01*
X99375249Y-168408880D01*
X99355611Y-168398390D01*
X99336677Y-168387299D01*
X99318448Y-168375607D01*
X99300923Y-168363314D01*
X99284101Y-168350419D01*
X99267984Y-168336924D01*
X99257630Y-168327593D01*
X99236572Y-168307210D01*
X99216872Y-168285873D01*
X99198531Y-168263583D01*
X99181549Y-168240337D01*
X99165925Y-168216138D01*
X99151660Y-168190985D01*
X99138753Y-168164878D01*
X99127205Y-168137817D01*
X99117015Y-168109801D01*
X99108184Y-168080832D01*
X99100712Y-168050908D01*
X99094598Y-168020030D01*
X99089843Y-167988199D01*
X99086447Y-167955413D01*
X99084409Y-167921673D01*
X99083730Y-167886979D01*
X99084111Y-167861700D01*
X99084527Y-167852785D01*
X99447651Y-167852785D01*
X99448381Y-167878508D01*
X99450571Y-167903286D01*
X99454220Y-167927120D01*
X99459329Y-167950009D01*
X99465898Y-167971954D01*
X99473927Y-167992954D01*
X99483415Y-168013009D01*
X99494363Y-168032120D01*
X99506771Y-168050287D01*
X99520638Y-168067509D01*
X99530694Y-168078466D01*
X99545268Y-168092055D01*
X99561148Y-168104615D01*
X99578333Y-168116144D01*
X99596823Y-168126642D01*
X99616618Y-168136111D01*
X99623506Y-168139038D01*
X99645053Y-168146674D01*
X99667562Y-168152731D01*
X99687053Y-168156571D01*
X99707213Y-168159314D01*
X99728040Y-168160959D01*
X99749536Y-168161508D01*
X99774962Y-168160765D01*
X99799401Y-168158537D01*
X99822853Y-168154823D01*
X99845317Y-168149624D01*
X99866794Y-168142939D01*
X99887283Y-168134769D01*
X99906785Y-168125114D01*
X99925299Y-168113972D01*
X99942826Y-168101346D01*
X99959365Y-168087233D01*
X99969843Y-168077000D01*
X99984683Y-168061072D01*
X99998064Y-168044062D01*
X100009985Y-168025970D01*
X100020447Y-168006796D01*
X100029448Y-167986540D01*
X100036990Y-167965202D01*
X100043073Y-167942782D01*
X100047695Y-167919280D01*
X100050858Y-167894697D01*
X100052561Y-167869031D01*
X100052885Y-167851320D01*
X100052155Y-167826557D01*
X100049966Y-167802645D01*
X100046316Y-167779582D01*
X100041207Y-167757370D01*
X100034639Y-167736008D01*
X100026610Y-167715496D01*
X100017122Y-167695834D01*
X100006174Y-167677022D01*
X99993766Y-167659060D01*
X99979899Y-167641948D01*
X99969843Y-167631013D01*
X99954805Y-167617125D01*
X99938633Y-167604405D01*
X99921328Y-167592853D01*
X99902890Y-167582469D01*
X99883318Y-167573253D01*
X99876542Y-167570440D01*
X99855407Y-167562804D01*
X99833036Y-167556748D01*
X99813449Y-167552907D01*
X99793003Y-167550164D01*
X99771699Y-167548519D01*
X99749536Y-167547970D01*
X99724122Y-167548700D01*
X99699721Y-167550890D01*
X99676334Y-167554539D01*
X99653960Y-167559648D01*
X99632600Y-167566217D01*
X99612252Y-167574245D01*
X99592918Y-167583734D01*
X99574597Y-167594681D01*
X99557289Y-167607089D01*
X99540994Y-167620957D01*
X99530694Y-167631013D01*
X99515853Y-167646907D01*
X99502472Y-167663814D01*
X99490551Y-167681734D01*
X99480090Y-167700668D01*
X99471088Y-167720614D01*
X99463546Y-167741574D01*
X99457464Y-167763548D01*
X99452842Y-167786534D01*
X99449679Y-167810534D01*
X99447976Y-167835547D01*
X99447651Y-167852785D01*
X99084527Y-167852785D01*
X99085256Y-167837154D01*
X99087164Y-167813340D01*
X99089836Y-167790259D01*
X99093270Y-167767911D01*
X99097468Y-167746295D01*
X99102429Y-167725412D01*
X99108154Y-167705262D01*
X99114741Y-167685685D01*
X99122045Y-167666519D01*
X99130067Y-167647766D01*
X99138806Y-167629425D01*
X99148263Y-167611496D01*
X99158437Y-167593979D01*
X99169329Y-167576875D01*
X99180938Y-167560182D01*
X99193210Y-167544070D01*
X99206088Y-167528583D01*
X99219572Y-167513723D01*
X99233664Y-167499488D01*
X99248363Y-167485879D01*
X99263668Y-167472896D01*
X99279580Y-167460539D01*
X99296099Y-167448807D01*
X99313224Y-167437702D01*
X99330957Y-167427222D01*
X99349296Y-167417369D01*
X99368242Y-167408141D01*
X99387795Y-167399539D01*
X99407954Y-167391563D01*
X99428721Y-167384213D01*
X99450094Y-167377489D01*
X99430915Y-167370655D01*
X99412335Y-167363345D01*
X99394355Y-167355558D01*
X99368508Y-167342983D01*
X99344008Y-167329335D01*
X99320857Y-167314613D01*
X99299054Y-167298818D01*
X99278600Y-167281949D01*
X99259493Y-167264007D01*
X99241734Y-167244992D01*
X99225324Y-167224904D01*
X99215132Y-167210915D01*
X99200728Y-167188949D01*
X99187741Y-167166098D01*
X99176170Y-167142363D01*
X99166017Y-167117744D01*
X99157280Y-167092240D01*
X99149959Y-167065852D01*
X99144056Y-167038579D01*
X99139570Y-167010422D01*
X99136500Y-166981381D01*
X99135722Y-166969115D01*
X99492592Y-166969115D01*
X99493206Y-166990077D01*
X99495048Y-167010285D01*
X99498118Y-167029736D01*
X99504121Y-167054496D01*
X99512307Y-167077913D01*
X99522675Y-167099987D01*
X99535227Y-167120717D01*
X99549962Y-167140104D01*
X99562446Y-167153762D01*
X99580542Y-167170134D01*
X99600151Y-167184323D01*
X99621270Y-167196329D01*
X99643901Y-167206152D01*
X99668042Y-167213792D01*
X99687141Y-167218090D01*
X99707089Y-167221160D01*
X99727887Y-167223002D01*
X99749536Y-167223616D01*
X99771625Y-167223002D01*
X99792830Y-167221160D01*
X99813150Y-167218090D01*
X99832586Y-167213792D01*
X99857125Y-167206152D01*
X99880091Y-167196329D01*
X99901485Y-167184323D01*
X99921307Y-167170134D01*
X99939557Y-167153762D01*
X99955585Y-167135383D01*
X99969476Y-167115660D01*
X99981230Y-167094594D01*
X99990848Y-167072185D01*
X99998327Y-167048432D01*
X100003670Y-167023336D01*
X100006275Y-167003633D01*
X100007677Y-166983174D01*
X100007945Y-166969115D01*
X100007343Y-166947138D01*
X100005540Y-166926090D01*
X100002535Y-166905968D01*
X99998327Y-166886774D01*
X99990848Y-166862625D01*
X99981230Y-166840124D01*
X99969476Y-166819272D01*
X99955585Y-166800068D01*
X99939557Y-166782513D01*
X99921628Y-166766828D01*
X99902035Y-166753234D01*
X99880778Y-166741732D01*
X99857857Y-166732321D01*
X99833273Y-166725001D01*
X99813742Y-166720884D01*
X99793276Y-166717943D01*
X99771874Y-166716179D01*
X99749536Y-166715590D01*
X99727883Y-166716191D01*
X99707072Y-166717995D01*
X99687102Y-166721000D01*
X99667974Y-166725207D01*
X99643778Y-166732687D01*
X99621079Y-166742304D01*
X99599876Y-166754059D01*
X99580168Y-166767950D01*
X99561957Y-166783978D01*
X99545700Y-166801831D01*
X99531610Y-166821195D01*
X99519688Y-166842070D01*
X99509933Y-166864456D01*
X99502347Y-166888354D01*
X99496927Y-166913763D01*
X99494286Y-166933811D01*
X99492863Y-166954710D01*
X99492592Y-166969115D01*
X99135722Y-166969115D01*
X99135240Y-166961528D01*
X99134611Y-166941283D01*
X99134532Y-166931013D01*
X99135177Y-166900452D01*
X99137112Y-166870685D01*
X99140337Y-166841711D01*
X99144851Y-166813532D01*
X99150656Y-166786146D01*
X99157750Y-166759554D01*
X99166135Y-166733756D01*
X99175809Y-166708752D01*
X99186773Y-166684541D01*
X99199027Y-166661124D01*
X99212571Y-166638501D01*
X99227405Y-166616672D01*
X99243529Y-166595637D01*
X99260943Y-166575395D01*
X99279647Y-166555947D01*
X99299640Y-166537293D01*
X99320975Y-166519607D01*
X99343215Y-166503061D01*
X99366359Y-166487657D01*
X99390407Y-166473393D01*
X99415360Y-166460271D01*
X99441217Y-166448290D01*
X99467979Y-166437449D01*
X99495645Y-166427750D01*
X99524216Y-166419192D01*
X99553691Y-166411775D01*
X99584071Y-166405499D01*
X99615355Y-166400365D01*
X99647543Y-166396371D01*
X99680636Y-166393518D01*
X99714634Y-166391806D01*
X99749536Y-166391236D01*
X99784787Y-166391806D01*
G37*
D10*
X91276000Y-125970200D02*
X91276000Y-165848200D01*
X69776000Y-125989000D02*
X112776000Y-125989000D01*
X112776000Y-165938200D02*
X112776000Y-123938200D01*
X69776000Y-165989000D02*
X69776000Y-123989000D01*
X69776000Y-123989000D02*
X112776000Y-123989000D01*
X69776000Y-165989000D02*
X112776000Y-165989000D01*
X78232000Y-95123000D02*
X78232000Y-105283000D01*
X78232000Y-105283000D02*
X83312000Y-105283000D01*
X83312000Y-105283000D02*
X83312000Y-95123000D01*
X83312000Y-95123000D02*
X78232000Y-95123000D01*
D11*
X73544510Y-112855114D02*
X74044510Y-112855114D01*
X74258796Y-113640828D02*
X73544510Y-113640828D01*
X73544510Y-113640828D02*
X73544510Y-112140828D01*
X73544510Y-112140828D02*
X74258796Y-112140828D01*
X75758796Y-113640828D02*
X75258796Y-112926542D01*
X74901653Y-113640828D02*
X74901653Y-112140828D01*
X74901653Y-112140828D02*
X75473082Y-112140828D01*
X75473082Y-112140828D02*
X75615939Y-112212257D01*
X75615939Y-112212257D02*
X75687368Y-112283685D01*
X75687368Y-112283685D02*
X75758796Y-112426542D01*
X75758796Y-112426542D02*
X75758796Y-112640828D01*
X75758796Y-112640828D02*
X75687368Y-112783685D01*
X75687368Y-112783685D02*
X75615939Y-112855114D01*
X75615939Y-112855114D02*
X75473082Y-112926542D01*
X75473082Y-112926542D02*
X74901653Y-112926542D01*
X77258796Y-113640828D02*
X76758796Y-112926542D01*
X76401653Y-113640828D02*
X76401653Y-112140828D01*
X76401653Y-112140828D02*
X76973082Y-112140828D01*
X76973082Y-112140828D02*
X77115939Y-112212257D01*
X77115939Y-112212257D02*
X77187368Y-112283685D01*
X77187368Y-112283685D02*
X77258796Y-112426542D01*
X77258796Y-112426542D02*
X77258796Y-112640828D01*
X77258796Y-112640828D02*
X77187368Y-112783685D01*
X77187368Y-112783685D02*
X77115939Y-112855114D01*
X77115939Y-112855114D02*
X76973082Y-112926542D01*
X76973082Y-112926542D02*
X76401653Y-112926542D01*
X78187368Y-112140828D02*
X78473082Y-112140828D01*
X78473082Y-112140828D02*
X78615939Y-112212257D01*
X78615939Y-112212257D02*
X78758796Y-112355114D01*
X78758796Y-112355114D02*
X78830225Y-112640828D01*
X78830225Y-112640828D02*
X78830225Y-113140828D01*
X78830225Y-113140828D02*
X78758796Y-113426542D01*
X78758796Y-113426542D02*
X78615939Y-113569400D01*
X78615939Y-113569400D02*
X78473082Y-113640828D01*
X78473082Y-113640828D02*
X78187368Y-113640828D01*
X78187368Y-113640828D02*
X78044511Y-113569400D01*
X78044511Y-113569400D02*
X77901653Y-113426542D01*
X77901653Y-113426542D02*
X77830225Y-113140828D01*
X77830225Y-113140828D02*
X77830225Y-112640828D01*
X77830225Y-112640828D02*
X77901653Y-112355114D01*
X77901653Y-112355114D02*
X78044511Y-112212257D01*
X78044511Y-112212257D02*
X78187368Y-112140828D01*
X80330225Y-113640828D02*
X79830225Y-112926542D01*
X79473082Y-113640828D02*
X79473082Y-112140828D01*
X79473082Y-112140828D02*
X80044511Y-112140828D01*
X80044511Y-112140828D02*
X80187368Y-112212257D01*
X80187368Y-112212257D02*
X80258797Y-112283685D01*
X80258797Y-112283685D02*
X80330225Y-112426542D01*
X80330225Y-112426542D02*
X80330225Y-112640828D01*
X80330225Y-112640828D02*
X80258797Y-112783685D01*
X80258797Y-112783685D02*
X80187368Y-112855114D01*
X80187368Y-112855114D02*
X80044511Y-112926542D01*
X80044511Y-112926542D02*
X79473082Y-112926542D01*
D12*
X72170027Y-72278419D02*
X72503360Y-73278419D01*
X72503360Y-73278419D02*
X72836693Y-72278419D01*
X73598598Y-73278419D02*
X73598598Y-72754609D01*
X73598598Y-72754609D02*
X73550979Y-72659371D01*
X73550979Y-72659371D02*
X73455741Y-72611752D01*
X73455741Y-72611752D02*
X73265265Y-72611752D01*
X73265265Y-72611752D02*
X73170027Y-72659371D01*
X73598598Y-73230800D02*
X73503360Y-73278419D01*
X73503360Y-73278419D02*
X73265265Y-73278419D01*
X73265265Y-73278419D02*
X73170027Y-73230800D01*
X73170027Y-73230800D02*
X73122408Y-73135561D01*
X73122408Y-73135561D02*
X73122408Y-73040323D01*
X73122408Y-73040323D02*
X73170027Y-72945085D01*
X73170027Y-72945085D02*
X73265265Y-72897466D01*
X73265265Y-72897466D02*
X73503360Y-72897466D01*
X73503360Y-72897466D02*
X73598598Y-72849847D01*
X74074789Y-72611752D02*
X74074789Y-73468895D01*
X74074789Y-73468895D02*
X74027170Y-73564133D01*
X74027170Y-73564133D02*
X73931932Y-73611752D01*
X73931932Y-73611752D02*
X73884313Y-73611752D01*
X74074789Y-72278419D02*
X74027170Y-72326038D01*
X74027170Y-72326038D02*
X74074789Y-72373657D01*
X74074789Y-72373657D02*
X74122408Y-72326038D01*
X74122408Y-72326038D02*
X74074789Y-72278419D01*
X74074789Y-72278419D02*
X74074789Y-72373657D01*
X74503360Y-73230800D02*
X74598598Y-73278419D01*
X74598598Y-73278419D02*
X74789074Y-73278419D01*
X74789074Y-73278419D02*
X74884312Y-73230800D01*
X74884312Y-73230800D02*
X74931931Y-73135561D01*
X74931931Y-73135561D02*
X74931931Y-73087942D01*
X74931931Y-73087942D02*
X74884312Y-72992704D01*
X74884312Y-72992704D02*
X74789074Y-72945085D01*
X74789074Y-72945085D02*
X74646217Y-72945085D01*
X74646217Y-72945085D02*
X74550979Y-72897466D01*
X74550979Y-72897466D02*
X74503360Y-72802228D01*
X74503360Y-72802228D02*
X74503360Y-72754609D01*
X74503360Y-72754609D02*
X74550979Y-72659371D01*
X74550979Y-72659371D02*
X74646217Y-72611752D01*
X74646217Y-72611752D02*
X74789074Y-72611752D01*
X74789074Y-72611752D02*
X74884312Y-72659371D01*
X75360503Y-73278419D02*
X75360503Y-72278419D01*
X75455741Y-72897466D02*
X75741455Y-73278419D01*
X75741455Y-72611752D02*
X75360503Y-72992704D01*
X76170027Y-73278419D02*
X76170027Y-72611752D01*
X76170027Y-72278419D02*
X76122408Y-72326038D01*
X76122408Y-72326038D02*
X76170027Y-72373657D01*
X76170027Y-72373657D02*
X76217646Y-72326038D01*
X76217646Y-72326038D02*
X76170027Y-72278419D01*
X76170027Y-72278419D02*
X76170027Y-72373657D01*
X76646217Y-73278419D02*
X76646217Y-72278419D01*
X76646217Y-72278419D02*
X76884312Y-72278419D01*
X76884312Y-72278419D02*
X77027169Y-72326038D01*
X77027169Y-72326038D02*
X77122407Y-72421276D01*
X77122407Y-72421276D02*
X77170026Y-72516514D01*
X77170026Y-72516514D02*
X77217645Y-72706990D01*
X77217645Y-72706990D02*
X77217645Y-72849847D01*
X77217645Y-72849847D02*
X77170026Y-73040323D01*
X77170026Y-73040323D02*
X77122407Y-73135561D01*
X77122407Y-73135561D02*
X77027169Y-73230800D01*
X77027169Y-73230800D02*
X76884312Y-73278419D01*
X76884312Y-73278419D02*
X76646217Y-73278419D01*
X77598598Y-73230800D02*
X77693836Y-73278419D01*
X77693836Y-73278419D02*
X77884312Y-73278419D01*
X77884312Y-73278419D02*
X77979550Y-73230800D01*
X77979550Y-73230800D02*
X78027169Y-73135561D01*
X78027169Y-73135561D02*
X78027169Y-73087942D01*
X78027169Y-73087942D02*
X77979550Y-72992704D01*
X77979550Y-72992704D02*
X77884312Y-72945085D01*
X77884312Y-72945085D02*
X77741455Y-72945085D01*
X77741455Y-72945085D02*
X77646217Y-72897466D01*
X77646217Y-72897466D02*
X77598598Y-72802228D01*
X77598598Y-72802228D02*
X77598598Y-72754609D01*
X77598598Y-72754609D02*
X77646217Y-72659371D01*
X77646217Y-72659371D02*
X77741455Y-72611752D01*
X77741455Y-72611752D02*
X77884312Y-72611752D01*
X77884312Y-72611752D02*
X77979550Y-72659371D01*
X79789074Y-73183180D02*
X79741455Y-73230800D01*
X79741455Y-73230800D02*
X79598598Y-73278419D01*
X79598598Y-73278419D02*
X79503360Y-73278419D01*
X79503360Y-73278419D02*
X79360503Y-73230800D01*
X79360503Y-73230800D02*
X79265265Y-73135561D01*
X79265265Y-73135561D02*
X79217646Y-73040323D01*
X79217646Y-73040323D02*
X79170027Y-72849847D01*
X79170027Y-72849847D02*
X79170027Y-72706990D01*
X79170027Y-72706990D02*
X79217646Y-72516514D01*
X79217646Y-72516514D02*
X79265265Y-72421276D01*
X79265265Y-72421276D02*
X79360503Y-72326038D01*
X79360503Y-72326038D02*
X79503360Y-72278419D01*
X79503360Y-72278419D02*
X79598598Y-72278419D01*
X79598598Y-72278419D02*
X79741455Y-72326038D01*
X79741455Y-72326038D02*
X79789074Y-72373657D01*
X80360503Y-73278419D02*
X80265265Y-73230800D01*
X80265265Y-73230800D02*
X80217646Y-73183180D01*
X80217646Y-73183180D02*
X80170027Y-73087942D01*
X80170027Y-73087942D02*
X80170027Y-72802228D01*
X80170027Y-72802228D02*
X80217646Y-72706990D01*
X80217646Y-72706990D02*
X80265265Y-72659371D01*
X80265265Y-72659371D02*
X80360503Y-72611752D01*
X80360503Y-72611752D02*
X80503360Y-72611752D01*
X80503360Y-72611752D02*
X80598598Y-72659371D01*
X80598598Y-72659371D02*
X80646217Y-72706990D01*
X80646217Y-72706990D02*
X80693836Y-72802228D01*
X80693836Y-72802228D02*
X80693836Y-73087942D01*
X80693836Y-73087942D02*
X80646217Y-73183180D01*
X80646217Y-73183180D02*
X80598598Y-73230800D01*
X80598598Y-73230800D02*
X80503360Y-73278419D01*
X80503360Y-73278419D02*
X80360503Y-73278419D01*
X81122408Y-72611752D02*
X81122408Y-73278419D01*
X81122408Y-72706990D02*
X81170027Y-72659371D01*
X81170027Y-72659371D02*
X81265265Y-72611752D01*
X81265265Y-72611752D02*
X81408122Y-72611752D01*
X81408122Y-72611752D02*
X81503360Y-72659371D01*
X81503360Y-72659371D02*
X81550979Y-72754609D01*
X81550979Y-72754609D02*
X81550979Y-73278419D01*
X81979551Y-73230800D02*
X82074789Y-73278419D01*
X82074789Y-73278419D02*
X82265265Y-73278419D01*
X82265265Y-73278419D02*
X82360503Y-73230800D01*
X82360503Y-73230800D02*
X82408122Y-73135561D01*
X82408122Y-73135561D02*
X82408122Y-73087942D01*
X82408122Y-73087942D02*
X82360503Y-72992704D01*
X82360503Y-72992704D02*
X82265265Y-72945085D01*
X82265265Y-72945085D02*
X82122408Y-72945085D01*
X82122408Y-72945085D02*
X82027170Y-72897466D01*
X82027170Y-72897466D02*
X81979551Y-72802228D01*
X81979551Y-72802228D02*
X81979551Y-72754609D01*
X81979551Y-72754609D02*
X82027170Y-72659371D01*
X82027170Y-72659371D02*
X82122408Y-72611752D01*
X82122408Y-72611752D02*
X82265265Y-72611752D01*
X82265265Y-72611752D02*
X82360503Y-72659371D01*
X82979551Y-73278419D02*
X82884313Y-73230800D01*
X82884313Y-73230800D02*
X82836694Y-73183180D01*
X82836694Y-73183180D02*
X82789075Y-73087942D01*
X82789075Y-73087942D02*
X82789075Y-72802228D01*
X82789075Y-72802228D02*
X82836694Y-72706990D01*
X82836694Y-72706990D02*
X82884313Y-72659371D01*
X82884313Y-72659371D02*
X82979551Y-72611752D01*
X82979551Y-72611752D02*
X83122408Y-72611752D01*
X83122408Y-72611752D02*
X83217646Y-72659371D01*
X83217646Y-72659371D02*
X83265265Y-72706990D01*
X83265265Y-72706990D02*
X83312884Y-72802228D01*
X83312884Y-72802228D02*
X83312884Y-73087942D01*
X83312884Y-73087942D02*
X83265265Y-73183180D01*
X83265265Y-73183180D02*
X83217646Y-73230800D01*
X83217646Y-73230800D02*
X83122408Y-73278419D01*
X83122408Y-73278419D02*
X82979551Y-73278419D01*
X83884313Y-73278419D02*
X83789075Y-73230800D01*
X83789075Y-73230800D02*
X83741456Y-73135561D01*
X83741456Y-73135561D02*
X83741456Y-72278419D01*
X84646218Y-73230800D02*
X84550980Y-73278419D01*
X84550980Y-73278419D02*
X84360504Y-73278419D01*
X84360504Y-73278419D02*
X84265266Y-73230800D01*
X84265266Y-73230800D02*
X84217647Y-73135561D01*
X84217647Y-73135561D02*
X84217647Y-72754609D01*
X84217647Y-72754609D02*
X84265266Y-72659371D01*
X84265266Y-72659371D02*
X84360504Y-72611752D01*
X84360504Y-72611752D02*
X84550980Y-72611752D01*
X84550980Y-72611752D02*
X84646218Y-72659371D01*
X84646218Y-72659371D02*
X84693837Y-72754609D01*
X84693837Y-72754609D02*
X84693837Y-72849847D01*
X84693837Y-72849847D02*
X84217647Y-72945085D01*
X85074790Y-73230800D02*
X85170028Y-73278419D01*
X85170028Y-73278419D02*
X85360504Y-73278419D01*
X85360504Y-73278419D02*
X85455742Y-73230800D01*
X85455742Y-73230800D02*
X85503361Y-73135561D01*
X85503361Y-73135561D02*
X85503361Y-73087942D01*
X85503361Y-73087942D02*
X85455742Y-72992704D01*
X85455742Y-72992704D02*
X85360504Y-72945085D01*
X85360504Y-72945085D02*
X85217647Y-72945085D01*
X85217647Y-72945085D02*
X85122409Y-72897466D01*
X85122409Y-72897466D02*
X85074790Y-72802228D01*
X85074790Y-72802228D02*
X85074790Y-72754609D01*
X85074790Y-72754609D02*
X85122409Y-72659371D01*
X85122409Y-72659371D02*
X85217647Y-72611752D01*
X85217647Y-72611752D02*
X85360504Y-72611752D01*
X85360504Y-72611752D02*
X85455742Y-72659371D01*
X86646219Y-72373657D02*
X86693838Y-72326038D01*
X86693838Y-72326038D02*
X86789076Y-72278419D01*
X86789076Y-72278419D02*
X87027171Y-72278419D01*
X87027171Y-72278419D02*
X87122409Y-72326038D01*
X87122409Y-72326038D02*
X87170028Y-72373657D01*
X87170028Y-72373657D02*
X87217647Y-72468895D01*
X87217647Y-72468895D02*
X87217647Y-72564133D01*
X87217647Y-72564133D02*
X87170028Y-72706990D01*
X87170028Y-72706990D02*
X86598600Y-73278419D01*
X86598600Y-73278419D02*
X87217647Y-73278419D01*
X87836695Y-72278419D02*
X87931933Y-72278419D01*
X87931933Y-72278419D02*
X88027171Y-72326038D01*
X88027171Y-72326038D02*
X88074790Y-72373657D01*
X88074790Y-72373657D02*
X88122409Y-72468895D01*
X88122409Y-72468895D02*
X88170028Y-72659371D01*
X88170028Y-72659371D02*
X88170028Y-72897466D01*
X88170028Y-72897466D02*
X88122409Y-73087942D01*
X88122409Y-73087942D02*
X88074790Y-73183180D01*
X88074790Y-73183180D02*
X88027171Y-73230800D01*
X88027171Y-73230800D02*
X87931933Y-73278419D01*
X87931933Y-73278419D02*
X87836695Y-73278419D01*
X87836695Y-73278419D02*
X87741457Y-73230800D01*
X87741457Y-73230800D02*
X87693838Y-73183180D01*
X87693838Y-73183180D02*
X87646219Y-73087942D01*
X87646219Y-73087942D02*
X87598600Y-72897466D01*
X87598600Y-72897466D02*
X87598600Y-72659371D01*
X87598600Y-72659371D02*
X87646219Y-72468895D01*
X87646219Y-72468895D02*
X87693838Y-72373657D01*
X87693838Y-72373657D02*
X87741457Y-72326038D01*
X87741457Y-72326038D02*
X87836695Y-72278419D01*
X88550981Y-72373657D02*
X88598600Y-72326038D01*
X88598600Y-72326038D02*
X88693838Y-72278419D01*
X88693838Y-72278419D02*
X88931933Y-72278419D01*
X88931933Y-72278419D02*
X89027171Y-72326038D01*
X89027171Y-72326038D02*
X89074790Y-72373657D01*
X89074790Y-72373657D02*
X89122409Y-72468895D01*
X89122409Y-72468895D02*
X89122409Y-72564133D01*
X89122409Y-72564133D02*
X89074790Y-72706990D01*
X89074790Y-72706990D02*
X88503362Y-73278419D01*
X88503362Y-73278419D02*
X89122409Y-73278419D01*
X89979552Y-72611752D02*
X89979552Y-73278419D01*
X89741457Y-72230800D02*
X89503362Y-72945085D01*
X89503362Y-72945085D02*
X90122409Y-72945085D01*
D13*
X76489160Y-86944200D02*
X76632017Y-86991819D01*
X76632017Y-86991819D02*
X76870112Y-86991819D01*
X76870112Y-86991819D02*
X76965350Y-86944200D01*
X76965350Y-86944200D02*
X77012969Y-86896580D01*
X77012969Y-86896580D02*
X77060588Y-86801342D01*
X77060588Y-86801342D02*
X77060588Y-86706104D01*
X77060588Y-86706104D02*
X77012969Y-86610866D01*
X77012969Y-86610866D02*
X76965350Y-86563247D01*
X76965350Y-86563247D02*
X76870112Y-86515628D01*
X76870112Y-86515628D02*
X76679636Y-86468009D01*
X76679636Y-86468009D02*
X76584398Y-86420390D01*
X76584398Y-86420390D02*
X76536779Y-86372771D01*
X76536779Y-86372771D02*
X76489160Y-86277533D01*
X76489160Y-86277533D02*
X76489160Y-86182295D01*
X76489160Y-86182295D02*
X76536779Y-86087057D01*
X76536779Y-86087057D02*
X76584398Y-86039438D01*
X76584398Y-86039438D02*
X76679636Y-85991819D01*
X76679636Y-85991819D02*
X76917731Y-85991819D01*
X76917731Y-85991819D02*
X77060588Y-86039438D01*
X77393922Y-85991819D02*
X77632017Y-86991819D01*
X77632017Y-86991819D02*
X77822493Y-86277533D01*
X77822493Y-86277533D02*
X78012969Y-86991819D01*
X78012969Y-86991819D02*
X78251065Y-85991819D01*
X78632017Y-86991819D02*
X78632017Y-85991819D01*
X78632017Y-85991819D02*
X78870112Y-85991819D01*
X78870112Y-85991819D02*
X79012969Y-86039438D01*
X79012969Y-86039438D02*
X79108207Y-86134676D01*
X79108207Y-86134676D02*
X79155826Y-86229914D01*
X79155826Y-86229914D02*
X79203445Y-86420390D01*
X79203445Y-86420390D02*
X79203445Y-86563247D01*
X79203445Y-86563247D02*
X79155826Y-86753723D01*
X79155826Y-86753723D02*
X79108207Y-86848961D01*
X79108207Y-86848961D02*
X79012969Y-86944200D01*
X79012969Y-86944200D02*
X78870112Y-86991819D01*
X78870112Y-86991819D02*
X78632017Y-86991819D01*
D12*
X110633390Y-77977217D02*
X110633390Y-77643884D01*
X110109580Y-77643884D02*
X111109580Y-77643884D01*
X111109580Y-77643884D02*
X111109580Y-78120074D01*
X110109580Y-78643884D02*
X110157200Y-78548646D01*
X110157200Y-78548646D02*
X110252438Y-78501027D01*
X110252438Y-78501027D02*
X111109580Y-78501027D01*
X110109580Y-79453408D02*
X110633390Y-79453408D01*
X110633390Y-79453408D02*
X110728628Y-79405789D01*
X110728628Y-79405789D02*
X110776247Y-79310551D01*
X110776247Y-79310551D02*
X110776247Y-79120075D01*
X110776247Y-79120075D02*
X110728628Y-79024837D01*
X110157200Y-79453408D02*
X110109580Y-79358170D01*
X110109580Y-79358170D02*
X110109580Y-79120075D01*
X110109580Y-79120075D02*
X110157200Y-79024837D01*
X110157200Y-79024837D02*
X110252438Y-78977218D01*
X110252438Y-78977218D02*
X110347676Y-78977218D01*
X110347676Y-78977218D02*
X110442914Y-79024837D01*
X110442914Y-79024837D02*
X110490533Y-79120075D01*
X110490533Y-79120075D02*
X110490533Y-79358170D01*
X110490533Y-79358170D02*
X110538152Y-79453408D01*
X110157200Y-79881980D02*
X110109580Y-79977218D01*
X110109580Y-79977218D02*
X110109580Y-80167694D01*
X110109580Y-80167694D02*
X110157200Y-80262932D01*
X110157200Y-80262932D02*
X110252438Y-80310551D01*
X110252438Y-80310551D02*
X110300057Y-80310551D01*
X110300057Y-80310551D02*
X110395295Y-80262932D01*
X110395295Y-80262932D02*
X110442914Y-80167694D01*
X110442914Y-80167694D02*
X110442914Y-80024837D01*
X110442914Y-80024837D02*
X110490533Y-79929599D01*
X110490533Y-79929599D02*
X110585771Y-79881980D01*
X110585771Y-79881980D02*
X110633390Y-79881980D01*
X110633390Y-79881980D02*
X110728628Y-79929599D01*
X110728628Y-79929599D02*
X110776247Y-80024837D01*
X110776247Y-80024837D02*
X110776247Y-80167694D01*
X110776247Y-80167694D02*
X110728628Y-80262932D01*
X110109580Y-80739123D02*
X111109580Y-80739123D01*
X110109580Y-81167694D02*
X110633390Y-81167694D01*
X110633390Y-81167694D02*
X110728628Y-81120075D01*
X110728628Y-81120075D02*
X110776247Y-81024837D01*
X110776247Y-81024837D02*
X110776247Y-80881980D01*
X110776247Y-80881980D02*
X110728628Y-80786742D01*
X110728628Y-80786742D02*
X110681009Y-80739123D01*
X110109580Y-81643885D02*
X110776247Y-81643885D01*
X111109580Y-81643885D02*
X111061961Y-81596266D01*
X111061961Y-81596266D02*
X111014342Y-81643885D01*
X111014342Y-81643885D02*
X111061961Y-81691504D01*
X111061961Y-81691504D02*
X111109580Y-81643885D01*
X111109580Y-81643885D02*
X111014342Y-81643885D01*
X110776247Y-82120075D02*
X110109580Y-82120075D01*
X110681009Y-82120075D02*
X110728628Y-82167694D01*
X110728628Y-82167694D02*
X110776247Y-82262932D01*
X110776247Y-82262932D02*
X110776247Y-82405789D01*
X110776247Y-82405789D02*
X110728628Y-82501027D01*
X110728628Y-82501027D02*
X110633390Y-82548646D01*
X110633390Y-82548646D02*
X110109580Y-82548646D01*
X110776247Y-83453408D02*
X109966723Y-83453408D01*
X109966723Y-83453408D02*
X109871485Y-83405789D01*
X109871485Y-83405789D02*
X109823866Y-83358170D01*
X109823866Y-83358170D02*
X109776247Y-83262932D01*
X109776247Y-83262932D02*
X109776247Y-83120075D01*
X109776247Y-83120075D02*
X109823866Y-83024837D01*
X110157200Y-83453408D02*
X110109580Y-83358170D01*
X110109580Y-83358170D02*
X110109580Y-83167694D01*
X110109580Y-83167694D02*
X110157200Y-83072456D01*
X110157200Y-83072456D02*
X110204819Y-83024837D01*
X110204819Y-83024837D02*
X110300057Y-82977218D01*
X110300057Y-82977218D02*
X110585771Y-82977218D01*
X110585771Y-82977218D02*
X110681009Y-83024837D01*
X110681009Y-83024837D02*
X110728628Y-83072456D01*
X110728628Y-83072456D02*
X110776247Y-83167694D01*
X110776247Y-83167694D02*
X110776247Y-83358170D01*
X110776247Y-83358170D02*
X110728628Y-83453408D01*
X110776247Y-84548647D02*
X110776247Y-84929599D01*
X110109580Y-84691504D02*
X110966723Y-84691504D01*
X110966723Y-84691504D02*
X111061961Y-84739123D01*
X111061961Y-84739123D02*
X111109580Y-84834361D01*
X111109580Y-84834361D02*
X111109580Y-84929599D01*
X110109580Y-85262933D02*
X110776247Y-85262933D01*
X111109580Y-85262933D02*
X111061961Y-85215314D01*
X111061961Y-85215314D02*
X111014342Y-85262933D01*
X111014342Y-85262933D02*
X111061961Y-85310552D01*
X111061961Y-85310552D02*
X111109580Y-85262933D01*
X111109580Y-85262933D02*
X111014342Y-85262933D01*
X110109580Y-85739123D02*
X110776247Y-85739123D01*
X110585771Y-85739123D02*
X110681009Y-85786742D01*
X110681009Y-85786742D02*
X110728628Y-85834361D01*
X110728628Y-85834361D02*
X110776247Y-85929599D01*
X110776247Y-85929599D02*
X110776247Y-86024837D01*
X110109580Y-86358171D02*
X110776247Y-86358171D01*
X110681009Y-86358171D02*
X110728628Y-86405790D01*
X110728628Y-86405790D02*
X110776247Y-86501028D01*
X110776247Y-86501028D02*
X110776247Y-86643885D01*
X110776247Y-86643885D02*
X110728628Y-86739123D01*
X110728628Y-86739123D02*
X110633390Y-86786742D01*
X110633390Y-86786742D02*
X110109580Y-86786742D01*
X110633390Y-86786742D02*
X110728628Y-86834361D01*
X110728628Y-86834361D02*
X110776247Y-86929599D01*
X110776247Y-86929599D02*
X110776247Y-87072456D01*
X110776247Y-87072456D02*
X110728628Y-87167695D01*
X110728628Y-87167695D02*
X110633390Y-87215314D01*
X110633390Y-87215314D02*
X110109580Y-87215314D01*
X110776247Y-87596266D02*
X110109580Y-87786742D01*
X110109580Y-87786742D02*
X110585771Y-87977218D01*
X110585771Y-87977218D02*
X110109580Y-88167694D01*
X110109580Y-88167694D02*
X110776247Y-88358170D01*
X110109580Y-89167694D02*
X110633390Y-89167694D01*
X110633390Y-89167694D02*
X110728628Y-89120075D01*
X110728628Y-89120075D02*
X110776247Y-89024837D01*
X110776247Y-89024837D02*
X110776247Y-88834361D01*
X110776247Y-88834361D02*
X110728628Y-88739123D01*
X110157200Y-89167694D02*
X110109580Y-89072456D01*
X110109580Y-89072456D02*
X110109580Y-88834361D01*
X110109580Y-88834361D02*
X110157200Y-88739123D01*
X110157200Y-88739123D02*
X110252438Y-88691504D01*
X110252438Y-88691504D02*
X110347676Y-88691504D01*
X110347676Y-88691504D02*
X110442914Y-88739123D01*
X110442914Y-88739123D02*
X110490533Y-88834361D01*
X110490533Y-88834361D02*
X110490533Y-89072456D01*
X110490533Y-89072456D02*
X110538152Y-89167694D01*
X110109580Y-89643885D02*
X110776247Y-89643885D01*
X110585771Y-89643885D02*
X110681009Y-89691504D01*
X110681009Y-89691504D02*
X110728628Y-89739123D01*
X110728628Y-89739123D02*
X110776247Y-89834361D01*
X110776247Y-89834361D02*
X110776247Y-89929599D01*
X110157200Y-90643885D02*
X110109580Y-90548647D01*
X110109580Y-90548647D02*
X110109580Y-90358171D01*
X110109580Y-90358171D02*
X110157200Y-90262933D01*
X110157200Y-90262933D02*
X110252438Y-90215314D01*
X110252438Y-90215314D02*
X110633390Y-90215314D01*
X110633390Y-90215314D02*
X110728628Y-90262933D01*
X110728628Y-90262933D02*
X110776247Y-90358171D01*
X110776247Y-90358171D02*
X110776247Y-90548647D01*
X110776247Y-90548647D02*
X110728628Y-90643885D01*
X110728628Y-90643885D02*
X110633390Y-90691504D01*
X110633390Y-90691504D02*
X110538152Y-90691504D01*
X110538152Y-90691504D02*
X110442914Y-90215314D01*
X110109580Y-91881981D02*
X111109580Y-91881981D01*
X110728628Y-91881981D02*
X110776247Y-91977219D01*
X110776247Y-91977219D02*
X110776247Y-92167695D01*
X110776247Y-92167695D02*
X110728628Y-92262933D01*
X110728628Y-92262933D02*
X110681009Y-92310552D01*
X110681009Y-92310552D02*
X110585771Y-92358171D01*
X110585771Y-92358171D02*
X110300057Y-92358171D01*
X110300057Y-92358171D02*
X110204819Y-92310552D01*
X110204819Y-92310552D02*
X110157200Y-92262933D01*
X110157200Y-92262933D02*
X110109580Y-92167695D01*
X110109580Y-92167695D02*
X110109580Y-91977219D01*
X110109580Y-91977219D02*
X110157200Y-91881981D01*
X110776247Y-92691505D02*
X110109580Y-92929600D01*
X110776247Y-93167695D02*
X110109580Y-92929600D01*
X110109580Y-92929600D02*
X109871485Y-92834362D01*
X109871485Y-92834362D02*
X109823866Y-92786743D01*
X109823866Y-92786743D02*
X109776247Y-92691505D01*
X110109580Y-94310553D02*
X111109580Y-94310553D01*
X110728628Y-94310553D02*
X110776247Y-94405791D01*
X110776247Y-94405791D02*
X110776247Y-94596267D01*
X110776247Y-94596267D02*
X110728628Y-94691505D01*
X110728628Y-94691505D02*
X110681009Y-94739124D01*
X110681009Y-94739124D02*
X110585771Y-94786743D01*
X110585771Y-94786743D02*
X110300057Y-94786743D01*
X110300057Y-94786743D02*
X110204819Y-94739124D01*
X110204819Y-94739124D02*
X110157200Y-94691505D01*
X110157200Y-94691505D02*
X110109580Y-94596267D01*
X110109580Y-94596267D02*
X110109580Y-94405791D01*
X110109580Y-94405791D02*
X110157200Y-94310553D01*
X110109580Y-95215315D02*
X110776247Y-95215315D01*
X110585771Y-95215315D02*
X110681009Y-95262934D01*
X110681009Y-95262934D02*
X110728628Y-95310553D01*
X110728628Y-95310553D02*
X110776247Y-95405791D01*
X110776247Y-95405791D02*
X110776247Y-95501029D01*
X110109580Y-95977220D02*
X110157200Y-95881982D01*
X110157200Y-95881982D02*
X110204819Y-95834363D01*
X110204819Y-95834363D02*
X110300057Y-95786744D01*
X110300057Y-95786744D02*
X110585771Y-95786744D01*
X110585771Y-95786744D02*
X110681009Y-95834363D01*
X110681009Y-95834363D02*
X110728628Y-95881982D01*
X110728628Y-95881982D02*
X110776247Y-95977220D01*
X110776247Y-95977220D02*
X110776247Y-96120077D01*
X110776247Y-96120077D02*
X110728628Y-96215315D01*
X110728628Y-96215315D02*
X110681009Y-96262934D01*
X110681009Y-96262934D02*
X110585771Y-96310553D01*
X110585771Y-96310553D02*
X110300057Y-96310553D01*
X110300057Y-96310553D02*
X110204819Y-96262934D01*
X110204819Y-96262934D02*
X110157200Y-96215315D01*
X110157200Y-96215315D02*
X110109580Y-96120077D01*
X110109580Y-96120077D02*
X110109580Y-95977220D01*
X110776247Y-96596268D02*
X110776247Y-96977220D01*
X111109580Y-96739125D02*
X110252438Y-96739125D01*
X110252438Y-96739125D02*
X110157200Y-96786744D01*
X110157200Y-96786744D02*
X110109580Y-96881982D01*
X110109580Y-96881982D02*
X110109580Y-96977220D01*
X110109580Y-97310554D02*
X111109580Y-97310554D01*
X110109580Y-97739125D02*
X110633390Y-97739125D01*
X110633390Y-97739125D02*
X110728628Y-97691506D01*
X110728628Y-97691506D02*
X110776247Y-97596268D01*
X110776247Y-97596268D02*
X110776247Y-97453411D01*
X110776247Y-97453411D02*
X110728628Y-97358173D01*
X110728628Y-97358173D02*
X110681009Y-97310554D01*
X110157200Y-98596268D02*
X110109580Y-98501030D01*
X110109580Y-98501030D02*
X110109580Y-98310554D01*
X110109580Y-98310554D02*
X110157200Y-98215316D01*
X110157200Y-98215316D02*
X110252438Y-98167697D01*
X110252438Y-98167697D02*
X110633390Y-98167697D01*
X110633390Y-98167697D02*
X110728628Y-98215316D01*
X110728628Y-98215316D02*
X110776247Y-98310554D01*
X110776247Y-98310554D02*
X110776247Y-98501030D01*
X110776247Y-98501030D02*
X110728628Y-98596268D01*
X110728628Y-98596268D02*
X110633390Y-98643887D01*
X110633390Y-98643887D02*
X110538152Y-98643887D01*
X110538152Y-98643887D02*
X110442914Y-98167697D01*
X110109580Y-99072459D02*
X110776247Y-99072459D01*
X110585771Y-99072459D02*
X110681009Y-99120078D01*
X110681009Y-99120078D02*
X110728628Y-99167697D01*
X110728628Y-99167697D02*
X110776247Y-99262935D01*
X110776247Y-99262935D02*
X110776247Y-99358173D01*
X110014342Y-99453412D02*
X110014342Y-100215316D01*
X110776247Y-100358174D02*
X110109580Y-100596269D01*
X110776247Y-100834364D02*
X110109580Y-100596269D01*
X110109580Y-100596269D02*
X109871485Y-100501031D01*
X109871485Y-100501031D02*
X109823866Y-100453412D01*
X109823866Y-100453412D02*
X109776247Y-100358174D01*
X110109580Y-101643888D02*
X110633390Y-101643888D01*
X110633390Y-101643888D02*
X110728628Y-101596269D01*
X110728628Y-101596269D02*
X110776247Y-101501031D01*
X110776247Y-101501031D02*
X110776247Y-101310555D01*
X110776247Y-101310555D02*
X110728628Y-101215317D01*
X110157200Y-101643888D02*
X110109580Y-101548650D01*
X110109580Y-101548650D02*
X110109580Y-101310555D01*
X110109580Y-101310555D02*
X110157200Y-101215317D01*
X110157200Y-101215317D02*
X110252438Y-101167698D01*
X110252438Y-101167698D02*
X110347676Y-101167698D01*
X110347676Y-101167698D02*
X110442914Y-101215317D01*
X110442914Y-101215317D02*
X110490533Y-101310555D01*
X110490533Y-101310555D02*
X110490533Y-101548650D01*
X110490533Y-101548650D02*
X110538152Y-101643888D01*
X110776247Y-102120079D02*
X110109580Y-102120079D01*
X110681009Y-102120079D02*
X110728628Y-102167698D01*
X110728628Y-102167698D02*
X110776247Y-102262936D01*
X110776247Y-102262936D02*
X110776247Y-102405793D01*
X110776247Y-102405793D02*
X110728628Y-102501031D01*
X110728628Y-102501031D02*
X110633390Y-102548650D01*
X110633390Y-102548650D02*
X110109580Y-102548650D01*
D11*
X74044510Y-116755114D02*
X73544510Y-116755114D01*
X73544510Y-117540828D02*
X73544510Y-116040828D01*
X73544510Y-116040828D02*
X74258796Y-116040828D01*
X75044510Y-117540828D02*
X74901653Y-117469400D01*
X74901653Y-117469400D02*
X74830224Y-117326542D01*
X74830224Y-117326542D02*
X74830224Y-116040828D01*
X76258796Y-117540828D02*
X76258796Y-116755114D01*
X76258796Y-116755114D02*
X76187367Y-116612257D01*
X76187367Y-116612257D02*
X76044510Y-116540828D01*
X76044510Y-116540828D02*
X75758796Y-116540828D01*
X75758796Y-116540828D02*
X75615938Y-116612257D01*
X76258796Y-117469400D02*
X76115938Y-117540828D01*
X76115938Y-117540828D02*
X75758796Y-117540828D01*
X75758796Y-117540828D02*
X75615938Y-117469400D01*
X75615938Y-117469400D02*
X75544510Y-117326542D01*
X75544510Y-117326542D02*
X75544510Y-117183685D01*
X75544510Y-117183685D02*
X75615938Y-117040828D01*
X75615938Y-117040828D02*
X75758796Y-116969400D01*
X75758796Y-116969400D02*
X76115938Y-116969400D01*
X76115938Y-116969400D02*
X76258796Y-116897971D01*
X76901653Y-117469400D02*
X77044510Y-117540828D01*
X77044510Y-117540828D02*
X77330224Y-117540828D01*
X77330224Y-117540828D02*
X77473081Y-117469400D01*
X77473081Y-117469400D02*
X77544510Y-117326542D01*
X77544510Y-117326542D02*
X77544510Y-117255114D01*
X77544510Y-117255114D02*
X77473081Y-117112257D01*
X77473081Y-117112257D02*
X77330224Y-117040828D01*
X77330224Y-117040828D02*
X77115939Y-117040828D01*
X77115939Y-117040828D02*
X76973081Y-116969400D01*
X76973081Y-116969400D02*
X76901653Y-116826542D01*
X76901653Y-116826542D02*
X76901653Y-116755114D01*
X76901653Y-116755114D02*
X76973081Y-116612257D01*
X76973081Y-116612257D02*
X77115939Y-116540828D01*
X77115939Y-116540828D02*
X77330224Y-116540828D01*
X77330224Y-116540828D02*
X77473081Y-116612257D01*
X78187367Y-117540828D02*
X78187367Y-116040828D01*
X78830225Y-117540828D02*
X78830225Y-116755114D01*
X78830225Y-116755114D02*
X78758796Y-116612257D01*
X78758796Y-116612257D02*
X78615939Y-116540828D01*
X78615939Y-116540828D02*
X78401653Y-116540828D01*
X78401653Y-116540828D02*
X78258796Y-116612257D01*
X78258796Y-116612257D02*
X78187367Y-116683685D01*
X79544510Y-117540828D02*
X79544510Y-116540828D01*
X79544510Y-116040828D02*
X79473082Y-116112257D01*
X79473082Y-116112257D02*
X79544510Y-116183685D01*
X79544510Y-116183685D02*
X79615939Y-116112257D01*
X79615939Y-116112257D02*
X79544510Y-116040828D01*
X79544510Y-116040828D02*
X79544510Y-116183685D01*
X80258796Y-116540828D02*
X80258796Y-117540828D01*
X80258796Y-116683685D02*
X80330225Y-116612257D01*
X80330225Y-116612257D02*
X80473082Y-116540828D01*
X80473082Y-116540828D02*
X80687368Y-116540828D01*
X80687368Y-116540828D02*
X80830225Y-116612257D01*
X80830225Y-116612257D02*
X80901654Y-116755114D01*
X80901654Y-116755114D02*
X80901654Y-117540828D01*
X82258797Y-116540828D02*
X82258797Y-117755114D01*
X82258797Y-117755114D02*
X82187368Y-117897971D01*
X82187368Y-117897971D02*
X82115939Y-117969400D01*
X82115939Y-117969400D02*
X81973082Y-118040828D01*
X81973082Y-118040828D02*
X81758797Y-118040828D01*
X81758797Y-118040828D02*
X81615939Y-117969400D01*
X82258797Y-117469400D02*
X82115939Y-117540828D01*
X82115939Y-117540828D02*
X81830225Y-117540828D01*
X81830225Y-117540828D02*
X81687368Y-117469400D01*
X81687368Y-117469400D02*
X81615939Y-117397971D01*
X81615939Y-117397971D02*
X81544511Y-117255114D01*
X81544511Y-117255114D02*
X81544511Y-116826542D01*
X81544511Y-116826542D02*
X81615939Y-116683685D01*
X81615939Y-116683685D02*
X81687368Y-116612257D01*
X81687368Y-116612257D02*
X81830225Y-116540828D01*
X81830225Y-116540828D02*
X82115939Y-116540828D01*
X82115939Y-116540828D02*
X82258797Y-116612257D01*
D13*
X76520922Y-83451819D02*
X76854255Y-84451819D01*
X76854255Y-84451819D02*
X77187588Y-83451819D01*
X78092350Y-84356580D02*
X78044731Y-84404200D01*
X78044731Y-84404200D02*
X77901874Y-84451819D01*
X77901874Y-84451819D02*
X77806636Y-84451819D01*
X77806636Y-84451819D02*
X77663779Y-84404200D01*
X77663779Y-84404200D02*
X77568541Y-84308961D01*
X77568541Y-84308961D02*
X77520922Y-84213723D01*
X77520922Y-84213723D02*
X77473303Y-84023247D01*
X77473303Y-84023247D02*
X77473303Y-83880390D01*
X77473303Y-83880390D02*
X77520922Y-83689914D01*
X77520922Y-83689914D02*
X77568541Y-83594676D01*
X77568541Y-83594676D02*
X77663779Y-83499438D01*
X77663779Y-83499438D02*
X77806636Y-83451819D01*
X77806636Y-83451819D02*
X77901874Y-83451819D01*
X77901874Y-83451819D02*
X78044731Y-83499438D01*
X78044731Y-83499438D02*
X78092350Y-83547057D01*
X79092350Y-84356580D02*
X79044731Y-84404200D01*
X79044731Y-84404200D02*
X78901874Y-84451819D01*
X78901874Y-84451819D02*
X78806636Y-84451819D01*
X78806636Y-84451819D02*
X78663779Y-84404200D01*
X78663779Y-84404200D02*
X78568541Y-84308961D01*
X78568541Y-84308961D02*
X78520922Y-84213723D01*
X78520922Y-84213723D02*
X78473303Y-84023247D01*
X78473303Y-84023247D02*
X78473303Y-83880390D01*
X78473303Y-83880390D02*
X78520922Y-83689914D01*
X78520922Y-83689914D02*
X78568541Y-83594676D01*
X78568541Y-83594676D02*
X78663779Y-83499438D01*
X78663779Y-83499438D02*
X78806636Y-83451819D01*
X78806636Y-83451819D02*
X78901874Y-83451819D01*
X78901874Y-83451819D02*
X79044731Y-83499438D01*
X79044731Y-83499438D02*
X79092350Y-83547057D01*
X76489160Y-92024200D02*
X76632017Y-92071819D01*
X76632017Y-92071819D02*
X76870112Y-92071819D01*
X76870112Y-92071819D02*
X76965350Y-92024200D01*
X76965350Y-92024200D02*
X77012969Y-91976580D01*
X77012969Y-91976580D02*
X77060588Y-91881342D01*
X77060588Y-91881342D02*
X77060588Y-91786104D01*
X77060588Y-91786104D02*
X77012969Y-91690866D01*
X77012969Y-91690866D02*
X76965350Y-91643247D01*
X76965350Y-91643247D02*
X76870112Y-91595628D01*
X76870112Y-91595628D02*
X76679636Y-91548009D01*
X76679636Y-91548009D02*
X76584398Y-91500390D01*
X76584398Y-91500390D02*
X76536779Y-91452771D01*
X76536779Y-91452771D02*
X76489160Y-91357533D01*
X76489160Y-91357533D02*
X76489160Y-91262295D01*
X76489160Y-91262295D02*
X76536779Y-91167057D01*
X76536779Y-91167057D02*
X76584398Y-91119438D01*
X76584398Y-91119438D02*
X76679636Y-91071819D01*
X76679636Y-91071819D02*
X76917731Y-91071819D01*
X76917731Y-91071819D02*
X77060588Y-91119438D01*
X77393922Y-91071819D02*
X77632017Y-92071819D01*
X77632017Y-92071819D02*
X77822493Y-91357533D01*
X77822493Y-91357533D02*
X78012969Y-92071819D01*
X78012969Y-92071819D02*
X78251065Y-91071819D01*
X79203445Y-91976580D02*
X79155826Y-92024200D01*
X79155826Y-92024200D02*
X79012969Y-92071819D01*
X79012969Y-92071819D02*
X78917731Y-92071819D01*
X78917731Y-92071819D02*
X78774874Y-92024200D01*
X78774874Y-92024200D02*
X78679636Y-91928961D01*
X78679636Y-91928961D02*
X78632017Y-91833723D01*
X78632017Y-91833723D02*
X78584398Y-91643247D01*
X78584398Y-91643247D02*
X78584398Y-91500390D01*
X78584398Y-91500390D02*
X78632017Y-91309914D01*
X78632017Y-91309914D02*
X78679636Y-91214676D01*
X78679636Y-91214676D02*
X78774874Y-91119438D01*
X78774874Y-91119438D02*
X78917731Y-91071819D01*
X78917731Y-91071819D02*
X79012969Y-91071819D01*
X79012969Y-91071819D02*
X79155826Y-91119438D01*
X79155826Y-91119438D02*
X79203445Y-91167057D01*
X77060588Y-80959438D02*
X76965350Y-80911819D01*
X76965350Y-80911819D02*
X76822493Y-80911819D01*
X76822493Y-80911819D02*
X76679636Y-80959438D01*
X76679636Y-80959438D02*
X76584398Y-81054676D01*
X76584398Y-81054676D02*
X76536779Y-81149914D01*
X76536779Y-81149914D02*
X76489160Y-81340390D01*
X76489160Y-81340390D02*
X76489160Y-81483247D01*
X76489160Y-81483247D02*
X76536779Y-81673723D01*
X76536779Y-81673723D02*
X76584398Y-81768961D01*
X76584398Y-81768961D02*
X76679636Y-81864200D01*
X76679636Y-81864200D02*
X76822493Y-81911819D01*
X76822493Y-81911819D02*
X76917731Y-81911819D01*
X76917731Y-81911819D02*
X77060588Y-81864200D01*
X77060588Y-81864200D02*
X77108207Y-81816580D01*
X77108207Y-81816580D02*
X77108207Y-81483247D01*
X77108207Y-81483247D02*
X76917731Y-81483247D01*
X77536779Y-81911819D02*
X77536779Y-80911819D01*
X77536779Y-80911819D02*
X78108207Y-81911819D01*
X78108207Y-81911819D02*
X78108207Y-80911819D01*
X78584398Y-81911819D02*
X78584398Y-80911819D01*
X78584398Y-80911819D02*
X78822493Y-80911819D01*
X78822493Y-80911819D02*
X78965350Y-80959438D01*
X78965350Y-80959438D02*
X79060588Y-81054676D01*
X79060588Y-81054676D02*
X79108207Y-81149914D01*
X79108207Y-81149914D02*
X79155826Y-81340390D01*
X79155826Y-81340390D02*
X79155826Y-81483247D01*
X79155826Y-81483247D02*
X79108207Y-81673723D01*
X79108207Y-81673723D02*
X79060588Y-81768961D01*
X79060588Y-81768961D02*
X78965350Y-81864200D01*
X78965350Y-81864200D02*
X78822493Y-81911819D01*
X78822493Y-81911819D02*
X78584398Y-81911819D01*
X89456856Y-122628819D02*
X88980666Y-122628819D01*
X88980666Y-122628819D02*
X88980666Y-121628819D01*
X90313999Y-121676438D02*
X90218761Y-121628819D01*
X90218761Y-121628819D02*
X90075904Y-121628819D01*
X90075904Y-121628819D02*
X89933047Y-121676438D01*
X89933047Y-121676438D02*
X89837809Y-121771676D01*
X89837809Y-121771676D02*
X89790190Y-121866914D01*
X89790190Y-121866914D02*
X89742571Y-122057390D01*
X89742571Y-122057390D02*
X89742571Y-122200247D01*
X89742571Y-122200247D02*
X89790190Y-122390723D01*
X89790190Y-122390723D02*
X89837809Y-122485961D01*
X89837809Y-122485961D02*
X89933047Y-122581200D01*
X89933047Y-122581200D02*
X90075904Y-122628819D01*
X90075904Y-122628819D02*
X90171142Y-122628819D01*
X90171142Y-122628819D02*
X90313999Y-122581200D01*
X90313999Y-122581200D02*
X90361618Y-122533580D01*
X90361618Y-122533580D02*
X90361618Y-122200247D01*
X90361618Y-122200247D02*
X90171142Y-122200247D01*
X90647333Y-121628819D02*
X91218761Y-121628819D01*
X90933047Y-122628819D02*
X90933047Y-121628819D01*
X91694952Y-122057390D02*
X91599714Y-122009771D01*
X91599714Y-122009771D02*
X91552095Y-121962152D01*
X91552095Y-121962152D02*
X91504476Y-121866914D01*
X91504476Y-121866914D02*
X91504476Y-121819295D01*
X91504476Y-121819295D02*
X91552095Y-121724057D01*
X91552095Y-121724057D02*
X91599714Y-121676438D01*
X91599714Y-121676438D02*
X91694952Y-121628819D01*
X91694952Y-121628819D02*
X91885428Y-121628819D01*
X91885428Y-121628819D02*
X91980666Y-121676438D01*
X91980666Y-121676438D02*
X92028285Y-121724057D01*
X92028285Y-121724057D02*
X92075904Y-121819295D01*
X92075904Y-121819295D02*
X92075904Y-121866914D01*
X92075904Y-121866914D02*
X92028285Y-121962152D01*
X92028285Y-121962152D02*
X91980666Y-122009771D01*
X91980666Y-122009771D02*
X91885428Y-122057390D01*
X91885428Y-122057390D02*
X91694952Y-122057390D01*
X91694952Y-122057390D02*
X91599714Y-122105009D01*
X91599714Y-122105009D02*
X91552095Y-122152628D01*
X91552095Y-122152628D02*
X91504476Y-122247866D01*
X91504476Y-122247866D02*
X91504476Y-122438342D01*
X91504476Y-122438342D02*
X91552095Y-122533580D01*
X91552095Y-122533580D02*
X91599714Y-122581200D01*
X91599714Y-122581200D02*
X91694952Y-122628819D01*
X91694952Y-122628819D02*
X91885428Y-122628819D01*
X91885428Y-122628819D02*
X91980666Y-122581200D01*
X91980666Y-122581200D02*
X92028285Y-122533580D01*
X92028285Y-122533580D02*
X92075904Y-122438342D01*
X92075904Y-122438342D02*
X92075904Y-122247866D01*
X92075904Y-122247866D02*
X92028285Y-122152628D01*
X92028285Y-122152628D02*
X91980666Y-122105009D01*
X91980666Y-122105009D02*
X91885428Y-122057390D01*
X92837809Y-122105009D02*
X92504476Y-122105009D01*
X92504476Y-122628819D02*
X92504476Y-121628819D01*
X92504476Y-121628819D02*
X92980666Y-121628819D01*
X93266381Y-121628819D02*
X93885428Y-121628819D01*
X93885428Y-121628819D02*
X93552095Y-122009771D01*
X93552095Y-122009771D02*
X93694952Y-122009771D01*
X93694952Y-122009771D02*
X93790190Y-122057390D01*
X93790190Y-122057390D02*
X93837809Y-122105009D01*
X93837809Y-122105009D02*
X93885428Y-122200247D01*
X93885428Y-122200247D02*
X93885428Y-122438342D01*
X93885428Y-122438342D02*
X93837809Y-122533580D01*
X93837809Y-122533580D02*
X93790190Y-122581200D01*
X93790190Y-122581200D02*
X93694952Y-122628819D01*
X93694952Y-122628819D02*
X93409238Y-122628819D01*
X93409238Y-122628819D02*
X93314000Y-122581200D01*
X93314000Y-122581200D02*
X93266381Y-122533580D01*
X94266381Y-121724057D02*
X94314000Y-121676438D01*
X94314000Y-121676438D02*
X94409238Y-121628819D01*
X94409238Y-121628819D02*
X94647333Y-121628819D01*
X94647333Y-121628819D02*
X94742571Y-121676438D01*
X94742571Y-121676438D02*
X94790190Y-121724057D01*
X94790190Y-121724057D02*
X94837809Y-121819295D01*
X94837809Y-121819295D02*
X94837809Y-121914533D01*
X94837809Y-121914533D02*
X94790190Y-122057390D01*
X94790190Y-122057390D02*
X94218762Y-122628819D01*
X94218762Y-122628819D02*
X94837809Y-122628819D01*
X95409238Y-122057390D02*
X95314000Y-122009771D01*
X95314000Y-122009771D02*
X95266381Y-121962152D01*
X95266381Y-121962152D02*
X95218762Y-121866914D01*
X95218762Y-121866914D02*
X95218762Y-121819295D01*
X95218762Y-121819295D02*
X95266381Y-121724057D01*
X95266381Y-121724057D02*
X95314000Y-121676438D01*
X95314000Y-121676438D02*
X95409238Y-121628819D01*
X95409238Y-121628819D02*
X95599714Y-121628819D01*
X95599714Y-121628819D02*
X95694952Y-121676438D01*
X95694952Y-121676438D02*
X95742571Y-121724057D01*
X95742571Y-121724057D02*
X95790190Y-121819295D01*
X95790190Y-121819295D02*
X95790190Y-121866914D01*
X95790190Y-121866914D02*
X95742571Y-121962152D01*
X95742571Y-121962152D02*
X95694952Y-122009771D01*
X95694952Y-122009771D02*
X95599714Y-122057390D01*
X95599714Y-122057390D02*
X95409238Y-122057390D01*
X95409238Y-122057390D02*
X95314000Y-122105009D01*
X95314000Y-122105009D02*
X95266381Y-122152628D01*
X95266381Y-122152628D02*
X95218762Y-122247866D01*
X95218762Y-122247866D02*
X95218762Y-122438342D01*
X95218762Y-122438342D02*
X95266381Y-122533580D01*
X95266381Y-122533580D02*
X95314000Y-122581200D01*
X95314000Y-122581200D02*
X95409238Y-122628819D01*
X95409238Y-122628819D02*
X95599714Y-122628819D01*
X95599714Y-122628819D02*
X95694952Y-122581200D01*
X95694952Y-122581200D02*
X95742571Y-122533580D01*
X95742571Y-122533580D02*
X95790190Y-122438342D01*
X95790190Y-122438342D02*
X95790190Y-122247866D01*
X95790190Y-122247866D02*
X95742571Y-122152628D01*
X95742571Y-122152628D02*
X95694952Y-122105009D01*
X95694952Y-122105009D02*
X95599714Y-122057390D01*
X96218762Y-122628819D02*
X96218762Y-121628819D01*
X96218762Y-121628819D02*
X96599714Y-121628819D01*
X96599714Y-121628819D02*
X96694952Y-121676438D01*
X96694952Y-121676438D02*
X96742571Y-121724057D01*
X96742571Y-121724057D02*
X96790190Y-121819295D01*
X96790190Y-121819295D02*
X96790190Y-121962152D01*
X96790190Y-121962152D02*
X96742571Y-122057390D01*
X96742571Y-122057390D02*
X96694952Y-122105009D01*
X96694952Y-122105009D02*
X96599714Y-122152628D01*
X96599714Y-122152628D02*
X96218762Y-122152628D01*
X98456857Y-122628819D02*
X97980667Y-122628819D01*
X97980667Y-122628819D02*
X97980667Y-121628819D01*
X99456857Y-122724057D02*
X99361619Y-122676438D01*
X99361619Y-122676438D02*
X99266381Y-122581200D01*
X99266381Y-122581200D02*
X99123524Y-122438342D01*
X99123524Y-122438342D02*
X99028286Y-122390723D01*
X99028286Y-122390723D02*
X98933048Y-122390723D01*
X98980667Y-122628819D02*
X98885429Y-122581200D01*
X98885429Y-122581200D02*
X98790191Y-122485961D01*
X98790191Y-122485961D02*
X98742572Y-122295485D01*
X98742572Y-122295485D02*
X98742572Y-121962152D01*
X98742572Y-121962152D02*
X98790191Y-121771676D01*
X98790191Y-121771676D02*
X98885429Y-121676438D01*
X98885429Y-121676438D02*
X98980667Y-121628819D01*
X98980667Y-121628819D02*
X99171143Y-121628819D01*
X99171143Y-121628819D02*
X99266381Y-121676438D01*
X99266381Y-121676438D02*
X99361619Y-121771676D01*
X99361619Y-121771676D02*
X99409238Y-121962152D01*
X99409238Y-121962152D02*
X99409238Y-122295485D01*
X99409238Y-122295485D02*
X99361619Y-122485961D01*
X99361619Y-122485961D02*
X99266381Y-122581200D01*
X99266381Y-122581200D02*
X99171143Y-122628819D01*
X99171143Y-122628819D02*
X98980667Y-122628819D01*
X100171143Y-122105009D02*
X99837810Y-122105009D01*
X99837810Y-122628819D02*
X99837810Y-121628819D01*
X99837810Y-121628819D02*
X100314000Y-121628819D01*
X100694953Y-122628819D02*
X100694953Y-121628819D01*
X100694953Y-121628819D02*
X101075905Y-121628819D01*
X101075905Y-121628819D02*
X101171143Y-121676438D01*
X101171143Y-121676438D02*
X101218762Y-121724057D01*
X101218762Y-121724057D02*
X101266381Y-121819295D01*
X101266381Y-121819295D02*
X101266381Y-121962152D01*
X101266381Y-121962152D02*
X101218762Y-122057390D01*
X101218762Y-122057390D02*
X101171143Y-122105009D01*
X101171143Y-122105009D02*
X101075905Y-122152628D01*
X101075905Y-122152628D02*
X100694953Y-122152628D01*
X101599715Y-121628819D02*
X102218762Y-121628819D01*
X102218762Y-121628819D02*
X101885429Y-122009771D01*
X101885429Y-122009771D02*
X102028286Y-122009771D01*
X102028286Y-122009771D02*
X102123524Y-122057390D01*
X102123524Y-122057390D02*
X102171143Y-122105009D01*
X102171143Y-122105009D02*
X102218762Y-122200247D01*
X102218762Y-122200247D02*
X102218762Y-122438342D01*
X102218762Y-122438342D02*
X102171143Y-122533580D01*
X102171143Y-122533580D02*
X102123524Y-122581200D01*
X102123524Y-122581200D02*
X102028286Y-122628819D01*
X102028286Y-122628819D02*
X101742572Y-122628819D01*
X101742572Y-122628819D02*
X101647334Y-122581200D01*
X101647334Y-122581200D02*
X101599715Y-122533580D01*
X102599715Y-121724057D02*
X102647334Y-121676438D01*
X102647334Y-121676438D02*
X102742572Y-121628819D01*
X102742572Y-121628819D02*
X102980667Y-121628819D01*
X102980667Y-121628819D02*
X103075905Y-121676438D01*
X103075905Y-121676438D02*
X103123524Y-121724057D01*
X103123524Y-121724057D02*
X103171143Y-121819295D01*
X103171143Y-121819295D02*
X103171143Y-121914533D01*
X103171143Y-121914533D02*
X103123524Y-122057390D01*
X103123524Y-122057390D02*
X102552096Y-122628819D01*
X102552096Y-122628819D02*
X103171143Y-122628819D01*
X104361620Y-122628819D02*
X104361620Y-121628819D01*
X104361620Y-121628819D02*
X104694953Y-122343104D01*
X104694953Y-122343104D02*
X105028286Y-121628819D01*
X105028286Y-121628819D02*
X105028286Y-122628819D01*
X105504477Y-122628819D02*
X105504477Y-121962152D01*
X105504477Y-121628819D02*
X105456858Y-121676438D01*
X105456858Y-121676438D02*
X105504477Y-121724057D01*
X105504477Y-121724057D02*
X105552096Y-121676438D01*
X105552096Y-121676438D02*
X105504477Y-121628819D01*
X105504477Y-121628819D02*
X105504477Y-121724057D01*
X105980667Y-121962152D02*
X105980667Y-122628819D01*
X105980667Y-122057390D02*
X106028286Y-122009771D01*
X106028286Y-122009771D02*
X106123524Y-121962152D01*
X106123524Y-121962152D02*
X106266381Y-121962152D01*
X106266381Y-121962152D02*
X106361619Y-122009771D01*
X106361619Y-122009771D02*
X106409238Y-122105009D01*
X106409238Y-122105009D02*
X106409238Y-122628819D01*
X106885429Y-122628819D02*
X106885429Y-121962152D01*
X106885429Y-121628819D02*
X106837810Y-121676438D01*
X106837810Y-121676438D02*
X106885429Y-121724057D01*
X106885429Y-121724057D02*
X106933048Y-121676438D01*
X106933048Y-121676438D02*
X106885429Y-121628819D01*
X106885429Y-121628819D02*
X106885429Y-121724057D01*
X107361619Y-122105009D02*
X107694952Y-122105009D01*
X107837809Y-122628819D02*
X107361619Y-122628819D01*
X107361619Y-122628819D02*
X107361619Y-121628819D01*
X107361619Y-121628819D02*
X107837809Y-121628819D01*
X108123524Y-121628819D02*
X108456857Y-122628819D01*
X108456857Y-122628819D02*
X108790190Y-121628819D01*
X109456857Y-122105009D02*
X109599714Y-122152628D01*
X109599714Y-122152628D02*
X109647333Y-122200247D01*
X109647333Y-122200247D02*
X109694952Y-122295485D01*
X109694952Y-122295485D02*
X109694952Y-122438342D01*
X109694952Y-122438342D02*
X109647333Y-122533580D01*
X109647333Y-122533580D02*
X109599714Y-122581200D01*
X109599714Y-122581200D02*
X109504476Y-122628819D01*
X109504476Y-122628819D02*
X109123524Y-122628819D01*
X109123524Y-122628819D02*
X109123524Y-121628819D01*
X109123524Y-121628819D02*
X109456857Y-121628819D01*
X109456857Y-121628819D02*
X109552095Y-121676438D01*
X109552095Y-121676438D02*
X109599714Y-121724057D01*
X109599714Y-121724057D02*
X109647333Y-121819295D01*
X109647333Y-121819295D02*
X109647333Y-121914533D01*
X109647333Y-121914533D02*
X109599714Y-122009771D01*
X109599714Y-122009771D02*
X109552095Y-122057390D01*
X109552095Y-122057390D02*
X109456857Y-122105009D01*
X109456857Y-122105009D02*
X109123524Y-122105009D01*
X77108207Y-89531819D02*
X76774874Y-89055628D01*
X76536779Y-89531819D02*
X76536779Y-88531819D01*
X76536779Y-88531819D02*
X76917731Y-88531819D01*
X76917731Y-88531819D02*
X77012969Y-88579438D01*
X77012969Y-88579438D02*
X77060588Y-88627057D01*
X77060588Y-88627057D02*
X77108207Y-88722295D01*
X77108207Y-88722295D02*
X77108207Y-88865152D01*
X77108207Y-88865152D02*
X77060588Y-88960390D01*
X77060588Y-88960390D02*
X77012969Y-89008009D01*
X77012969Y-89008009D02*
X76917731Y-89055628D01*
X76917731Y-89055628D02*
X76536779Y-89055628D01*
X77489160Y-89484200D02*
X77632017Y-89531819D01*
X77632017Y-89531819D02*
X77870112Y-89531819D01*
X77870112Y-89531819D02*
X77965350Y-89484200D01*
X77965350Y-89484200D02*
X78012969Y-89436580D01*
X78012969Y-89436580D02*
X78060588Y-89341342D01*
X78060588Y-89341342D02*
X78060588Y-89246104D01*
X78060588Y-89246104D02*
X78012969Y-89150866D01*
X78012969Y-89150866D02*
X77965350Y-89103247D01*
X77965350Y-89103247D02*
X77870112Y-89055628D01*
X77870112Y-89055628D02*
X77679636Y-89008009D01*
X77679636Y-89008009D02*
X77584398Y-88960390D01*
X77584398Y-88960390D02*
X77536779Y-88912771D01*
X77536779Y-88912771D02*
X77489160Y-88817533D01*
X77489160Y-88817533D02*
X77489160Y-88722295D01*
X77489160Y-88722295D02*
X77536779Y-88627057D01*
X77536779Y-88627057D02*
X77584398Y-88579438D01*
X77584398Y-88579438D02*
X77679636Y-88531819D01*
X77679636Y-88531819D02*
X77917731Y-88531819D01*
X77917731Y-88531819D02*
X78060588Y-88579438D01*
X78346303Y-88531819D02*
X78917731Y-88531819D01*
X78632017Y-89531819D02*
X78632017Y-88531819D01*
D11*
X73544510Y-109740828D02*
X73544510Y-108240828D01*
X73544510Y-108955114D02*
X74401653Y-108955114D01*
X74401653Y-109740828D02*
X74401653Y-108240828D01*
X75687368Y-109669400D02*
X75544511Y-109740828D01*
X75544511Y-109740828D02*
X75258797Y-109740828D01*
X75258797Y-109740828D02*
X75115939Y-109669400D01*
X75115939Y-109669400D02*
X75044511Y-109526542D01*
X75044511Y-109526542D02*
X75044511Y-108955114D01*
X75044511Y-108955114D02*
X75115939Y-108812257D01*
X75115939Y-108812257D02*
X75258797Y-108740828D01*
X75258797Y-108740828D02*
X75544511Y-108740828D01*
X75544511Y-108740828D02*
X75687368Y-108812257D01*
X75687368Y-108812257D02*
X75758797Y-108955114D01*
X75758797Y-108955114D02*
X75758797Y-109097971D01*
X75758797Y-109097971D02*
X75044511Y-109240828D01*
X77044511Y-109740828D02*
X77044511Y-108955114D01*
X77044511Y-108955114D02*
X76973082Y-108812257D01*
X76973082Y-108812257D02*
X76830225Y-108740828D01*
X76830225Y-108740828D02*
X76544511Y-108740828D01*
X76544511Y-108740828D02*
X76401653Y-108812257D01*
X77044511Y-109669400D02*
X76901653Y-109740828D01*
X76901653Y-109740828D02*
X76544511Y-109740828D01*
X76544511Y-109740828D02*
X76401653Y-109669400D01*
X76401653Y-109669400D02*
X76330225Y-109526542D01*
X76330225Y-109526542D02*
X76330225Y-109383685D01*
X76330225Y-109383685D02*
X76401653Y-109240828D01*
X76401653Y-109240828D02*
X76544511Y-109169400D01*
X76544511Y-109169400D02*
X76901653Y-109169400D01*
X76901653Y-109169400D02*
X77044511Y-109097971D01*
X77758796Y-109740828D02*
X77758796Y-108740828D01*
X77758796Y-109026542D02*
X77830225Y-108883685D01*
X77830225Y-108883685D02*
X77901654Y-108812257D01*
X77901654Y-108812257D02*
X78044511Y-108740828D01*
X78044511Y-108740828D02*
X78187368Y-108740828D01*
X78473082Y-108740828D02*
X79044510Y-108740828D01*
X78687367Y-108240828D02*
X78687367Y-109526542D01*
X78687367Y-109526542D02*
X78758796Y-109669400D01*
X78758796Y-109669400D02*
X78901653Y-109740828D01*
X78901653Y-109740828D02*
X79044510Y-109740828D01*
X79544510Y-109740828D02*
X79544510Y-108240828D01*
X79544510Y-108812257D02*
X79687368Y-108740828D01*
X79687368Y-108740828D02*
X79973082Y-108740828D01*
X79973082Y-108740828D02*
X80115939Y-108812257D01*
X80115939Y-108812257D02*
X80187368Y-108883685D01*
X80187368Y-108883685D02*
X80258796Y-109026542D01*
X80258796Y-109026542D02*
X80258796Y-109455114D01*
X80258796Y-109455114D02*
X80187368Y-109597971D01*
X80187368Y-109597971D02*
X80115939Y-109669400D01*
X80115939Y-109669400D02*
X79973082Y-109740828D01*
X79973082Y-109740828D02*
X79687368Y-109740828D01*
X79687368Y-109740828D02*
X79544510Y-109669400D01*
X81473082Y-109669400D02*
X81330225Y-109740828D01*
X81330225Y-109740828D02*
X81044511Y-109740828D01*
X81044511Y-109740828D02*
X80901653Y-109669400D01*
X80901653Y-109669400D02*
X80830225Y-109526542D01*
X80830225Y-109526542D02*
X80830225Y-108955114D01*
X80830225Y-108955114D02*
X80901653Y-108812257D01*
X80901653Y-108812257D02*
X81044511Y-108740828D01*
X81044511Y-108740828D02*
X81330225Y-108740828D01*
X81330225Y-108740828D02*
X81473082Y-108812257D01*
X81473082Y-108812257D02*
X81544511Y-108955114D01*
X81544511Y-108955114D02*
X81544511Y-109097971D01*
X81544511Y-109097971D02*
X80830225Y-109240828D01*
X82830225Y-109740828D02*
X82830225Y-108955114D01*
X82830225Y-108955114D02*
X82758796Y-108812257D01*
X82758796Y-108812257D02*
X82615939Y-108740828D01*
X82615939Y-108740828D02*
X82330225Y-108740828D01*
X82330225Y-108740828D02*
X82187367Y-108812257D01*
X82830225Y-109669400D02*
X82687367Y-109740828D01*
X82687367Y-109740828D02*
X82330225Y-109740828D01*
X82330225Y-109740828D02*
X82187367Y-109669400D01*
X82187367Y-109669400D02*
X82115939Y-109526542D01*
X82115939Y-109526542D02*
X82115939Y-109383685D01*
X82115939Y-109383685D02*
X82187367Y-109240828D01*
X82187367Y-109240828D02*
X82330225Y-109169400D01*
X82330225Y-109169400D02*
X82687367Y-109169400D01*
X82687367Y-109169400D02*
X82830225Y-109097971D01*
X83330225Y-108740828D02*
X83901653Y-108740828D01*
X83544510Y-108240828D02*
X83544510Y-109526542D01*
X83544510Y-109526542D02*
X83615939Y-109669400D01*
X83615939Y-109669400D02*
X83758796Y-109740828D01*
X83758796Y-109740828D02*
X83901653Y-109740828D01*
D14*
X79967996Y-97136428D02*
X79634663Y-96422142D01*
X79396568Y-97136428D02*
X79396568Y-95636428D01*
X79396568Y-95636428D02*
X79777520Y-95636428D01*
X79777520Y-95636428D02*
X79872758Y-95707857D01*
X79872758Y-95707857D02*
X79920377Y-95779285D01*
X79920377Y-95779285D02*
X79967996Y-95922142D01*
X79967996Y-95922142D02*
X79967996Y-96136428D01*
X79967996Y-96136428D02*
X79920377Y-96279285D01*
X79920377Y-96279285D02*
X79872758Y-96350714D01*
X79872758Y-96350714D02*
X79777520Y-96422142D01*
X79777520Y-96422142D02*
X79396568Y-96422142D01*
X80920377Y-97136428D02*
X80348949Y-97136428D01*
X80634663Y-97136428D02*
X80634663Y-95636428D01*
X80634663Y-95636428D02*
X80539425Y-95850714D01*
X80539425Y-95850714D02*
X80444187Y-95993571D01*
X80444187Y-95993571D02*
X80348949Y-96065000D01*
X81348949Y-96993571D02*
X81396568Y-97065000D01*
X81396568Y-97065000D02*
X81348949Y-97136428D01*
X81348949Y-97136428D02*
X81301330Y-97065000D01*
X81301330Y-97065000D02*
X81348949Y-96993571D01*
X81348949Y-96993571D02*
X81348949Y-97136428D01*
X81348949Y-96207857D02*
X81396568Y-96279285D01*
X81396568Y-96279285D02*
X81348949Y-96350714D01*
X81348949Y-96350714D02*
X81301330Y-96279285D01*
X81301330Y-96279285D02*
X81348949Y-96207857D01*
X81348949Y-96207857D02*
X81348949Y-96350714D01*
X81729901Y-95636428D02*
X82348948Y-95636428D01*
X82348948Y-95636428D02*
X82015615Y-96207857D01*
X82015615Y-96207857D02*
X82158472Y-96207857D01*
X82158472Y-96207857D02*
X82253710Y-96279285D01*
X82253710Y-96279285D02*
X82301329Y-96350714D01*
X82301329Y-96350714D02*
X82348948Y-96493571D01*
X82348948Y-96493571D02*
X82348948Y-96850714D01*
X82348948Y-96850714D02*
X82301329Y-96993571D01*
X82301329Y-96993571D02*
X82253710Y-97065000D01*
X82253710Y-97065000D02*
X82158472Y-97136428D01*
X82158472Y-97136428D02*
X81872758Y-97136428D01*
X81872758Y-97136428D02*
X81777520Y-97065000D01*
X81777520Y-97065000D02*
X81729901Y-96993571D01*
D13*
X100321904Y-81825180D02*
X100321904Y-81015657D01*
X100321904Y-81015657D02*
X100274285Y-80920419D01*
X100274285Y-80920419D02*
X100226666Y-80872800D01*
X100226666Y-80872800D02*
X100131428Y-80825180D01*
X100131428Y-80825180D02*
X99940952Y-80825180D01*
X99940952Y-80825180D02*
X99845714Y-80872800D01*
X99845714Y-80872800D02*
X99798095Y-80920419D01*
X99798095Y-80920419D02*
X99750476Y-81015657D01*
X99750476Y-81015657D02*
X99750476Y-81825180D01*
X99321904Y-80872800D02*
X99179047Y-80825180D01*
X99179047Y-80825180D02*
X98940952Y-80825180D01*
X98940952Y-80825180D02*
X98845714Y-80872800D01*
X98845714Y-80872800D02*
X98798095Y-80920419D01*
X98798095Y-80920419D02*
X98750476Y-81015657D01*
X98750476Y-81015657D02*
X98750476Y-81110895D01*
X98750476Y-81110895D02*
X98798095Y-81206133D01*
X98798095Y-81206133D02*
X98845714Y-81253752D01*
X98845714Y-81253752D02*
X98940952Y-81301371D01*
X98940952Y-81301371D02*
X99131428Y-81348990D01*
X99131428Y-81348990D02*
X99226666Y-81396609D01*
X99226666Y-81396609D02*
X99274285Y-81444228D01*
X99274285Y-81444228D02*
X99321904Y-81539466D01*
X99321904Y-81539466D02*
X99321904Y-81634704D01*
X99321904Y-81634704D02*
X99274285Y-81729942D01*
X99274285Y-81729942D02*
X99226666Y-81777561D01*
X99226666Y-81777561D02*
X99131428Y-81825180D01*
X99131428Y-81825180D02*
X98893333Y-81825180D01*
X98893333Y-81825180D02*
X98750476Y-81777561D01*
X97988571Y-81348990D02*
X97845714Y-81301371D01*
X97845714Y-81301371D02*
X97798095Y-81253752D01*
X97798095Y-81253752D02*
X97750476Y-81158514D01*
X97750476Y-81158514D02*
X97750476Y-81015657D01*
X97750476Y-81015657D02*
X97798095Y-80920419D01*
X97798095Y-80920419D02*
X97845714Y-80872800D01*
X97845714Y-80872800D02*
X97940952Y-80825180D01*
X97940952Y-80825180D02*
X98321904Y-80825180D01*
X98321904Y-80825180D02*
X98321904Y-81825180D01*
X98321904Y-81825180D02*
X97988571Y-81825180D01*
X97988571Y-81825180D02*
X97893333Y-81777561D01*
X97893333Y-81777561D02*
X97845714Y-81729942D01*
X97845714Y-81729942D02*
X97798095Y-81634704D01*
X97798095Y-81634704D02*
X97798095Y-81539466D01*
X97798095Y-81539466D02*
X97845714Y-81444228D01*
X97845714Y-81444228D02*
X97893333Y-81396609D01*
X97893333Y-81396609D02*
X97988571Y-81348990D01*
X97988571Y-81348990D02*
X98321904Y-81348990D01*
D15*
%TO.C,REF\u002A\u002A*%
X82199200Y-125951800D02*
X82199200Y-161751800D01*
X97319200Y-161691800D02*
X97319200Y-126011800D01*
X82199200Y-161751800D02*
X100319200Y-161751800D01*
X100319200Y-161751800D02*
X100319200Y-125951800D01*
X85199200Y-161691800D02*
X97319200Y-161691800D01*
X97319200Y-126011800D02*
X92259200Y-126011800D01*
X100319200Y-125951800D02*
X82199200Y-125951800D01*
X90259200Y-126011800D02*
X85199200Y-126011800D01*
X85199200Y-126011800D02*
X85199200Y-161691800D01*
X90259200Y-126011800D02*
G75*
G03*
X92259200Y-126011800I1000000J0D01*
G01*
X80204000Y-80077000D02*
X81534000Y-80077000D01*
X80204000Y-81407000D02*
X80204000Y-80077000D01*
X80204000Y-82677000D02*
X80204000Y-92897000D01*
X80204000Y-82677000D02*
X82864000Y-82677000D01*
X80204000Y-92897000D02*
X82864000Y-92897000D01*
X82864000Y-82677000D02*
X82864000Y-92897000D01*
X86309564Y-113675000D02*
X85855436Y-113675000D01*
X86309564Y-112205000D02*
X85855436Y-112205000D01*
X81026564Y-100125200D02*
X80572436Y-100125200D01*
X81026564Y-98655200D02*
X80572436Y-98655200D01*
X81026564Y-104494000D02*
X80572436Y-104494000D01*
X81026564Y-103024000D02*
X80572436Y-103024000D01*
%TO.C,LGT8F328P LQFP32 MiniEVB*%
X90040000Y-77340000D02*
X90040000Y-120780000D01*
X90040000Y-77340000D02*
X95120000Y-77340000D01*
X90040000Y-120780000D02*
X108080000Y-120780000D01*
X92710000Y-80010000D02*
X90040000Y-80010000D01*
X92710000Y-118110000D02*
X90040000Y-118110000D01*
X92710000Y-118110000D02*
X92710000Y-80010000D01*
X95120000Y-74800000D02*
X103000000Y-74800000D01*
X95120000Y-85220000D02*
X95120000Y-74800000D01*
X103000000Y-74800000D02*
X103000000Y-85220000D01*
X103000000Y-85220000D02*
X95120000Y-85220000D01*
X105410000Y-80010000D02*
X108080000Y-80010000D01*
X105410000Y-115570000D02*
X105410000Y-80010000D01*
X105410000Y-115570000D02*
X105410000Y-118110000D01*
X105410000Y-115570000D02*
X108080000Y-115570000D01*
X105410000Y-118110000D02*
X108080000Y-118110000D01*
X108080000Y-77340000D02*
X103000000Y-77340000D01*
X108080000Y-115570000D02*
X108080000Y-77340000D01*
X108080000Y-120780000D02*
X108080000Y-118110000D01*
%TO.C,REF\u002A\u002A*%
X86309564Y-117575000D02*
X85855436Y-117575000D01*
X86309564Y-116105000D02*
X85855436Y-116105000D01*
X81026564Y-102309600D02*
X80572436Y-102309600D01*
X81026564Y-100839600D02*
X80572436Y-100839600D01*
X86309564Y-109775000D02*
X85855436Y-109775000D01*
X86309564Y-108305000D02*
X85855436Y-108305000D01*
%TD*%
M02*
